<svg width="85" height="85" viewBox="0 0 85 85" fill="none" xmlns="http://www.w3.org/2000/svg">
<rect width="85" height="85" rx="5" fill="#FFACA7"/>
<path d="M61.7 73.4251H22.7C20.0119 73.4251 17.825 71.2382 17.825 68.5501V17.8501C17.825 15.162 20.0119 12.9751 22.7 12.9751H42.5349C43.837 12.9751 45.0616 13.4826 45.9815 14.403L65.1471 33.5686C66.068 34.4894 66.575 35.7131 66.575 37.0152V68.5501C66.575 71.2382 64.3881 73.4251 61.7 73.4251ZM22.7 14.9251C21.0869 14.9251 19.775 16.237 19.775 17.8501V68.5501C19.775 70.1632 21.0869 71.4751 22.7 71.4751H61.7C63.3131 71.4751 64.625 70.1632 64.625 68.5501V37.0152C64.625 36.2454 64.3125 35.4917 63.7685 34.9472L44.6029 15.7816C44.0505 15.2293 43.3159 14.9251 42.5349 14.9251H22.7Z" fill="#FD4233"/>
<path d="M57.4149 51.156C57.3808 50.9074 57.1809 50.5954 56.9664 50.3858C56.3521 49.7813 55.0018 49.4644 52.9445 49.4352C51.5503 49.4205 49.8733 49.5424 48.1085 49.791C47.3188 49.3377 46.5046 48.8404 45.866 48.2408C44.1451 46.6369 42.7119 44.409 41.8149 41.9569C41.8734 41.7278 41.9221 41.5279 41.9709 41.3232C41.9709 41.3232 42.9361 35.8242 42.6826 33.9619C42.6485 33.7084 42.6241 33.6353 42.5559 33.4354L42.473 33.2209C42.2098 32.6115 41.693 31.968 40.8838 32.0022L40.406 31.9875H40.3963C39.4895 31.9875 38.7583 32.4507 38.5633 33.138C37.9783 35.3025 38.5828 38.5444 39.6796 42.7369L39.3969 43.4194C38.612 45.3402 37.6273 47.2707 36.7595 48.972L36.6474 49.1914C35.7309 50.9805 34.9021 52.5016 34.1465 53.7885L33.3714 54.198C33.3129 54.2273 31.982 54.9342 31.67 55.1194C29.0229 56.7038 27.2679 58.4978 26.9754 59.9213C26.8828 60.3796 26.951 60.9597 27.4239 61.2278L28.1746 61.6081C28.5013 61.7689 28.8474 61.8518 29.1984 61.8518C31.085 61.8518 33.2739 59.502 36.2915 54.237C39.7723 53.106 43.7405 52.1603 47.2164 51.6435C49.8635 53.1304 53.12 54.1688 55.1773 54.1688C55.5429 54.1688 55.8598 54.1347 56.1133 54.0664C56.5081 53.9592 56.8396 53.7349 57.0444 53.4327C57.4441 52.833 57.5221 52.0043 57.4149 51.156ZM28.7889 60.4234C29.1301 59.4825 30.4951 57.6203 32.5085 55.9725C32.6353 55.8702 32.9473 55.5777 33.23 55.3047C31.124 58.6635 29.7151 59.9993 28.7889 60.4234ZM40.7131 32.9625C41.3176 32.9625 41.6638 34.4884 41.693 35.9217C41.7223 37.3549 41.3859 38.3592 40.9715 39.105C40.6254 38.0033 40.4596 36.2678 40.4596 35.1319C40.4596 35.1319 40.4353 32.9625 40.7131 32.9625ZM37.1544 52.5308C37.5785 51.7752 38.0173 50.9757 38.4658 50.1323C39.5626 48.0604 40.2549 46.4419 40.7668 45.111C41.7905 46.9733 43.0678 48.5577 44.5644 49.8252C44.7545 49.9812 44.9544 50.142 45.1591 50.3029C42.1123 50.9025 39.4749 51.6387 37.1544 52.5308ZM56.3765 52.3602C56.1913 52.4723 55.6599 52.5406 55.3186 52.5406C54.2169 52.5406 52.847 52.0384 50.9311 51.2146C51.6673 51.1609 52.3449 51.1317 52.9494 51.1317C54.056 51.1317 54.3826 51.1268 55.4698 51.4047C56.552 51.6826 56.5666 52.2432 56.3765 52.3602Z" fill="#FF402F"/>
</svg>
