<svg width="423" height="300" viewBox="0 0 423 300" fill="none" xmlns="http://www.w3.org/2000/svg">
<path d="M331.068 137.083C336.758 124.097 339.894 110.137 340.305 95.9654C340.3 93.2825 340.135 90.6023 339.812 87.939C337.815 71.2474 329.642 55.9079 316.902 44.9399C304.162 33.9719 287.778 28.1699 270.975 28.676C254.172 29.1821 238.167 35.9596 226.11 47.6745C214.054 59.3893 206.819 75.1929 205.83 91.9744C205.74 93.2751 205.695 94.6202 205.695 95.9654C205.695 133.138 235.828 190.174 273 190.174C287.08 190.174 300.083 182.058 310.845 169.907C303.399 171.346 295.83 172.052 288.246 172.014H287.842C283.426 174.927 278.288 176.557 273 176.722C246.993 176.722 219.147 129.326 219.147 95.9654C219.147 94.8443 219.192 93.7232 219.282 92.6022C244.327 92.6212 268.918 85.9159 290.488 73.1865C301.658 78.9526 313.56 83.1763 325.866 85.7417C326.536 89.108 326.867 92.5331 326.853 95.9654C326.853 111.076 321.113 129.057 312.459 144.213C318.887 142.471 325.122 140.083 331.068 137.083Z" fill="#3B4551"/>
<path d="M185.512 101.569C186.248 101.569 186.977 101.424 187.657 101.143C188.337 100.861 188.955 100.448 189.475 99.9277C189.996 99.4073 190.408 98.7893 190.69 98.1093C190.972 97.4292 191.117 96.7004 191.117 95.9643C191.117 94.2674 191.158 92.61 191.285 90.8717C192.264 75.0645 197.807 59.8807 207.244 47.1619C216.681 34.443 229.606 24.7356 244.451 19.2169C259.296 13.6981 275.423 12.6053 290.877 16.0708C306.33 19.5363 320.447 27.4113 331.513 38.7407C344.072 51.6514 352.068 68.3132 354.281 86.1883C354.662 89.4333 354.859 92.6971 354.872 95.9643C354.849 101.303 354.381 106.63 353.473 111.89L352.598 117.075L357.714 118.281C360.751 119 363.454 120.727 365.382 123.182C367.309 125.636 368.347 128.672 368.325 131.792C368.326 135.483 366.864 139.024 364.259 141.639C361.653 144.253 358.117 145.727 354.426 145.737C350.835 145.76 347.381 144.358 344.823 141.838L341.841 138.895L338.174 140.92C321.188 150.588 301.752 155.096 282.245 153.893C281.183 151.877 279.495 150.26 277.434 149.288C275.374 148.315 273.053 148.038 270.821 148.499C268.59 148.96 266.569 150.133 265.062 151.843C263.556 153.552 262.646 155.705 262.47 157.977C262.293 160.249 262.86 162.516 264.084 164.438C265.309 166.359 267.124 167.831 269.258 168.631C271.391 169.431 273.727 169.516 275.913 168.873C278.099 168.23 280.017 166.894 281.377 165.066C283.687 165.184 285.977 165.267 288.223 165.267C306.342 165.389 324.207 161.015 340.221 152.537C344.393 155.427 349.351 156.966 354.426 156.947C360.128 156.936 365.657 154.988 370.107 151.423C374.557 147.858 377.664 142.886 378.918 137.324C380.173 131.762 379.5 125.938 377.012 120.808C374.523 115.678 370.365 111.545 365.22 109.088C365.784 104.736 366.073 100.352 366.083 95.9641C366.069 92.2697 365.847 88.579 365.419 84.9095C362.922 64.5571 353.824 45.5839 339.518 30.8937C326.938 18.0183 310.893 9.0684 293.329 5.12889C275.764 1.18938 257.434 2.42942 240.56 8.69868C223.687 14.9679 208.994 25.9972 198.262 40.4496C187.531 54.902 181.223 72.1569 180.101 90.1228C179.957 92.0539 179.907 93.9872 179.907 95.9643C179.907 96.7003 180.052 97.4292 180.333 98.1093C180.615 98.7893 181.028 99.4072 181.548 99.9277C182.069 100.448 182.687 100.861 183.367 101.143C184.047 101.424 184.776 101.569 185.512 101.569Z" fill="#2B77C0"/>
<path d="M400.002 247.827C396.167 233.762 389.122 226.055 375.072 221.72C362.274 217.429 322.791 203.556 311.372 199.116C302.263 215.948 289.068 230.221 273 240.62C256.932 230.221 243.737 215.948 234.628 199.116C223.209 203.556 183.725 217.429 170.927 221.72C156.878 226.055 149.833 233.762 145.997 247.827C141.659 263.738 140.882 280.709 140.882 297.122H405.118C405.118 280.709 404.341 263.738 400.002 247.827ZM370.983 268.512H334.458C332.843 268.512 331.295 267.871 330.153 266.729C329.012 265.588 328.37 264.039 328.37 262.425C328.37 260.81 329.012 259.262 330.153 258.12C331.295 256.979 332.843 256.337 334.458 256.337H370.983C372.597 256.337 374.145 256.979 375.287 258.12C376.429 259.262 377.07 260.81 377.07 262.425C377.07 264.039 376.429 265.588 375.287 266.729C374.145 267.871 372.597 268.512 370.983 268.512Z" fill="#3B4551"/>
<path d="M241.091 103.811C239.604 103.811 238.179 104.402 237.127 105.453C236.076 106.504 235.486 107.93 235.486 109.416C235.486 110.903 236.076 112.329 237.127 113.38C238.179 114.431 239.604 115.021 241.091 115.021H254.707C256.194 115.021 257.619 114.431 258.671 113.38C259.722 112.329 260.312 110.903 260.312 109.416C260.312 107.93 259.722 106.504 258.671 105.453C257.619 104.402 256.194 103.811 254.707 103.811H241.091Z" fill="#2B77C0"/>
<path d="M291.293 103.811C289.806 103.811 288.381 104.402 287.33 105.453C286.278 106.504 285.688 107.93 285.688 109.416C285.688 110.903 286.278 112.329 287.33 113.38C288.381 114.431 289.806 115.021 291.293 115.021H304.909C306.396 115.021 307.821 114.431 308.873 113.38C309.924 112.329 310.514 110.903 310.514 109.416C310.514 107.93 309.924 106.504 308.873 105.453C307.821 104.402 306.396 103.811 304.909 103.811H291.293Z" fill="#2B77C0"/>
<g clip-path="url(#clip0_17_358)">
<path d="M69.76 184.06C69.76 181.83 71.96 180 74.71 180C77.46 180 79.66 181.81 79.66 184.06V201.8C79.66 204.03 77.46 205.86 74.71 205.86C71.96 205.86 69.76 204.05 69.76 201.8V184.06ZM14.37 258.05H25.71C26.43 258.05 27.02 258.64 27.02 259.36V267.74C27.02 268.46 26.43 269.05 25.71 269.05H14.37C13.65 269.05 13.06 268.46 13.06 267.74V259.36C13.06 258.63 13.65 258.05 14.37 258.05ZM57.79 234.17H69.13C69.48 234.17 69.79 234.31 70.03 234.53C65.58 237.31 61.72 240.93 58.66 245.18H57.79C57.07 245.18 56.48 244.59 56.48 243.87V235.49C56.48 234.76 57.07 234.17 57.79 234.17ZM36.08 234.17H47.42C48.14 234.17 48.73 234.76 48.73 235.48V243.86C48.73 244.58 48.14 245.17 47.42 245.17H36.08C35.36 245.17 34.77 244.58 34.77 243.86V235.48C34.77 234.76 35.36 234.17 36.08 234.17ZM14.37 234.17H25.71C26.43 234.17 27.02 234.76 27.02 235.48V243.86C27.02 244.58 26.43 245.17 25.71 245.17H14.37C13.65 245.17 13.06 244.58 13.06 243.86V235.48C13.06 234.76 13.65 234.17 14.37 234.17ZM36.08 258.05H47.42C48.14 258.05 48.73 258.64 48.73 259.36V267.74C48.73 268.46 48.14 269.05 47.42 269.05H36.08C35.36 269.05 34.77 268.46 34.77 267.74V259.36C34.77 258.63 35.36 258.05 36.08 258.05ZM103.49 239.54C115.2 244.39 122.88 255.82 122.88 268.56C122.88 277.23 119.36 285.09 113.68 290.77C108 296.45 100.15 299.97 91.47 299.97C82.8 299.97 74.95 296.45 69.26 290.77C63.58 285.08 60.06 277.23 60.06 268.56C60.06 255.92 67.92 244.13 79.61 239.33C86.86 236.37 96.29 236.55 103.49 239.54ZM86.64 267.72C87.03 267.29 87.51 266.92 88.03 266.64V252.98C88.03 251.59 89.16 250.46 90.55 250.46C91.94 250.46 93.08 251.59 93.08 252.98V266.64C94 267.14 94.76 267.89 95.25 268.81H105.01C106.41 268.81 107.53 269.94 107.53 271.33C107.53 272.72 106.4 273.85 105.01 273.85H95.25C94.35 275.53 92.59 276.67 90.55 276.67C88.95 276.67 87.52 275.96 86.54 274.85C84.73 272.78 84.82 269.69 86.64 267.72ZM110.12 250.41C97.11 237.4 75.17 241.08 67.56 257.46C66 260.83 65.12 264.59 65.12 268.55C65.12 275.83 68.07 282.42 72.84 287.19C77.61 291.96 84.2 294.91 91.48 294.91C98.76 294.91 105.35 291.95 110.12 287.19C114.89 282.42 117.84 275.83 117.84 268.55C117.84 264.42 116.89 260.51 115.2 257.03C113.91 254.4 112.19 252.48 110.12 250.41ZM25.33 184.06C25.33 181.83 27.53 180 30.28 180C33.02 180 35.23 181.81 35.23 184.06V201.8C35.23 204.03 33.02 205.86 30.28 205.86C27.54 205.86 25.33 204.05 25.33 201.8V184.06ZM5.45 218.79H99.66V198.37C99.66 197.67 99.38 197.06 98.93 196.61C98.48 196.16 97.84 195.88 97.17 195.88H88.14C86.63 195.88 85.4 194.65 85.4 193.14C85.4 191.63 86.63 190.4 88.14 190.4H97.17C99.38 190.4 101.37 191.29 102.82 192.74C104.27 194.19 105.16 196.18 105.16 198.39V230.82C103.36 230.2 101.51 229.7 99.6 229.33V224.26H99.66H5.45V277.17C5.45 277.87 5.73 278.48 6.18 278.93C6.63 279.38 7.27 279.66 7.94 279.66H52.71C53.22 281.56 53.86 283.42 54.63 285.2H7.99C5.79 285.2 3.79 284.31 2.34 282.86C0.89 281.4 0 279.42 0 277.21V198.39C0 196.19 0.89 194.2 2.34 192.74C3.79 191.29 5.78 190.4 7.99 190.4H17.63C19.14 190.4 20.37 191.63 20.37 193.14C20.37 194.65 19.14 195.88 17.63 195.88H7.99C7.29 195.88 6.68 196.16 6.23 196.61C5.78 197.06 5.5 197.7 5.5 198.37V218.8H5.45V218.79ZM43.13 195.87C41.62 195.87 40.39 194.64 40.39 193.13C40.39 191.62 41.62 190.39 43.13 190.39H61.52C63.03 190.39 64.26 191.62 64.26 193.13C64.26 194.64 63.03 195.87 61.52 195.87H43.13Z" fill="black"/>
</g>
<defs>
<clipPath id="clip0_17_358">
<rect width="122.88" height="119.97" fill="white" transform="translate(0 180)"/>
</clipPath>
</defs>
</svg>
