<svg width="1440" height="1024" viewBox="0 0 1440 1024" fill="none" xmlns="http://www.w3.org/2000/svg">
<g clip-path="url(#clip0_14_2)">
<rect width="1440" height="1024" fill="white"/>
<path d="M1.5 154V3L449 -119L770.5 71L896.5 245L1.5 154Z" fill="#FC7FBB"/>
<path d="M1438 246.584V2.58527C1120.85 -115.578 499 -281.006 548.824 2.58527C598.647 286.176 1162.37 283.414 1438 246.584Z" fill="#00D4F1"/>
<path d="M-0.5 561V5C666.3 309 1236 236.333 1437.5 162V1020.5L1177.5 983.5L-0.5 561Z" fill="#554DDE"/>
<path d="M0 1021V466.651C65.9771 295.224 325.368 122.228 637.279 446.319C933.677 754.291 1273.23 958.21 1443 1021H0Z" fill="#F44E77"/>
<path d="M-0.5 1020.5V557C65.5 413.667 324.981 269.022 637 540C933.5 797.5 1273.17 968 1443 1020.5H-0.5Z" fill="#16194F"/>
</g>
<defs>
<clipPath id="clip0_14_2">
<rect width="1440" height="1024" fill="white"/>
</clipPath>
</defs>
</svg>
