<svg width="1920" height="1080" viewBox="0 0 1920 1080" fill="none" xmlns="http://www.w3.org/2000/svg">
<g clip-path="url(#clip0_8_195)">
<rect width="1920" height="1080" transform="matrix(-1 0 0 1 1920 0)" fill="white"/>
<g opacity="0.7">
<path opacity="0.8" d="M1723.49 -905.151C1720.89 -904.213 1719.12 -902.332 1718.16 -900.224L1632.32 -913.925C1632.71 -915.184 1632.82 -916.477 1632.4 -917.766C1631.07 -921.379 1626.3 -923.042 1621.76 -921.352C1617.3 -919.716 1614.69 -915.387 1616.07 -911.702C1616.14 -911.433 1616.39 -911.274 1616.54 -911.06L1265.1 -695.4C1262.97 -697.41 1259.41 -698.151 1256.03 -696.847C1252.59 -695.615 1250.4 -692.868 1250.06 -690.102L1025.26 -668.34C1025.19 -668.806 1025.29 -669.381 1025.07 -669.864C1023.74 -673.477 1018.97 -675.14 1014.52 -673.505C1009.98 -671.814 1007.46 -667.54 1008.79 -663.926C1008.97 -663.318 1009.43 -662.873 1009.79 -662.374L771.1 -478.109C768.998 -479.724 765.733 -480.234 762.626 -479.094C758.826 -477.644 756.566 -474.448 756.774 -471.292L428.504 -391.998C428.452 -392.069 428.543 -392.124 428.491 -392.195C427.16 -395.809 422.395 -397.472 417.851 -395.782C413.398 -394.146 410.786 -389.817 412.169 -386.132C412.678 -384.898 413.591 -384.009 414.636 -383.3L267.708 -204.354C265.659 -205.179 263.23 -205.266 260.814 -204.437C257.106 -203.041 254.846 -199.846 254.858 -196.777L-42.0055 -132.561C-42.1099 -132.703 -41.9793 -132.884 -42.0837 -133.027C-43.4144 -136.64 -48.1798 -138.303 -52.7241 -136.613C-56.759 -135.124 -59.045 -131.605 -58.5367 -128.218L-423.859 -10.6861C-425.451 -13.9383 -429.877 -15.4969 -434.186 -13.8445C-436.276 -13.1086 -437.895 -11.7307 -438.927 -10.0887L-822.793 -109.797C-822.31 -111.111 -822.166 -112.53 -822.636 -113.889C-823.966 -117.503 -828.732 -119.166 -833.276 -117.476C-837.82 -115.785 -840.341 -111.511 -838.958 -107.826C-838.789 -107.415 -838.488 -107.184 -838.227 -106.828L-1191.77 138.28C-1193.92 136.594 -1197.24 136.012 -1200.49 137.135C-1205.04 138.826 -1207.56 143.1 -1206.23 146.714C-1205.82 147.805 -1205 148.749 -1204.01 149.386L-1440.17 431.177C-1442.17 430.422 -1444.59 430.336 -1447.01 431.164C-1451.46 432.8 -1454.08 437.129 -1452.69 440.814C-1452 442.656 -1450.49 444.007 -1448.59 444.619L-1588.73 771.246C-1590.17 771.079 -1591.69 771.164 -1593.12 771.714C-1597.57 773.35 -1600.19 777.68 -1598.8 781.364C-1598.62 781.973 -1598.17 782.417 -1597.8 782.917L-1902.85 1027.14C-1904.99 1025.65 -1908.06 1025.23 -1911.08 1026.31C-1915.62 1028 -1918.14 1032.28 -1916.76 1035.96C-1915.43 1039.57 -1910.66 1041.24 -1906.12 1039.55C-1903.94 1038.76 -1902.23 1037.32 -1901.15 1035.56L-1688.44 1090.83C-1688.96 1092.27 -1689.2 1093.74 -1688.67 1095.17C-1687.29 1098.86 -1682.58 1100.45 -1678.03 1098.76C-1675.02 1097.67 -1672.94 1095.31 -1672.3 1092.77L-1345.67 1085.92C-1345.67 1086.63 -1345.72 1087.28 -1345.49 1087.96C-1344.16 1091.57 -1339.39 1093.24 -1334.85 1091.55C-1330.39 1089.91 -1327.78 1085.58 -1329.16 1081.9C-1329.57 1080.81 -1330.34 1079.93 -1331.24 1079.24L-1119.83 836.336C-1117.78 837.162 -1115.3 837.319 -1112.8 836.436C-1108.67 834.893 -1106.34 831.248 -1107 827.844L-738.979 697.835C-737.348 700.961 -733.027 702.377 -728.809 700.779C-725.936 699.678 -723.99 697.49 -723.245 695.096L-341.336 697.345C-341.336 698.063 -341.336 698.781 -341.049 699.532C-339.718 703.145 -334.953 704.809 -330.409 703.118C-325.956 701.483 -323.343 697.153 -324.674 693.54C-325.026 692.52 -325.744 691.719 -326.501 691.044L-214.429 579.37C-212.354 580.59 -209.481 580.924 -206.7 579.877C-203.174 578.59 -200.993 575.646 -200.757 572.737L129.725 519.085C129.79 519.354 129.764 519.677 129.83 519.946C131.16 523.559 135.926 525.223 140.47 523.532C144.923 521.897 147.535 517.567 146.152 513.882C145.735 512.594 144.677 511.688 143.489 510.963L359.911 219.438C361.804 220.049 364.037 220.048 366.309 219.203C369.599 217.954 371.807 215.405 372.291 212.655L725.446 179.389C725.525 179.855 725.459 180.304 725.537 180.77C726.92 184.455 731.633 186.047 736.178 184.357C740.631 182.721 743.243 178.392 741.86 174.707C741.286 173.205 740.124 172.156 738.649 171.397L874.579 -41.7823C876.368 -41.3133 878.457 -41.3314 880.546 -42.0673C884.999 -43.703 887.612 -48.0326 886.229 -51.7172C885.824 -52.8083 885.106 -53.6095 884.206 -54.3015L1117.57 -317.298C1119.62 -316.472 1122.15 -316.243 1124.6 -317.197C1129.06 -318.833 1131.67 -323.162 1130.29 -326.847C1129.54 -328.761 1127.88 -330.128 1125.76 -330.702L1162.09 -420.902L1466.26 -603.492C1468.35 -601.357 1471.92 -600.617 1475.39 -601.975C1479.84 -603.61 1482.46 -607.94 1481.07 -611.624C1480.67 -612.715 1479.95 -613.517 1479.05 -614.209L1721.62 -892.448C1723.67 -891.622 1726.15 -891.464 1728.51 -892.364C1732.97 -894 1735.58 -898.329 1734.2 -902.014C1732.8 -905.178 1728.09 -906.77 1723.49 -905.151ZM-1901.53 1028.4L-1596.53 784.108C-1595.74 784.657 -1594.76 785.097 -1593.7 785.286L-1679.52 1084.88C-1680.71 1084.88 -1681.88 1085.06 -1682.99 1085.52C-1685.17 1086.31 -1686.97 1087.8 -1687.95 1089.51L-1900.67 1034.24C-1900.15 1032.8 -1899.91 1031.33 -1900.44 1029.9C-1900.71 1029.34 -1901.17 1028.9 -1901.53 1028.4ZM881.386 -55.282C880.224 -55.6128 878.944 -55.5657 877.716 -55.4474L844.98 -226.375C847.331 -228.19 848.39 -230.873 847.946 -233.273L1046.99 -298.292L881.386 -55.282ZM135.433 510.548C134.506 510.897 133.827 511.405 133.096 511.842L-120.811 302.279C-118.995 300.272 -118.159 297.824 -118.929 295.516L75.1055 212.883C76.5932 215.275 79.5699 216.469 82.9126 216.009L135.708 510.384C135.616 510.439 135.525 510.493 135.433 510.548ZM-211.645 566.838C-213.081 567.389 -214.256 568.296 -215.236 569.292L-492.756 426.742C-491.854 425.28 -491.579 423.681 -491.827 422.086L-134.899 301.881C-133.972 303.685 -132.184 304.872 -130.017 305.32L-207.884 566.231C-209.216 566.207 -210.391 566.396 -211.645 566.838ZM-1677.6 1085.17L-1591.78 785.574C-1590.59 785.582 -1589.42 785.392 -1588.26 785.005C-1587.33 784.656 -1586.51 784.164 -1585.74 783.601L-1456.04 895.456C-1458.09 897.502 -1459.09 900.256 -1458.22 902.707C-1457.98 903.387 -1457.42 903.974 -1457 904.545L-1674.86 1086.4C-1675.71 1085.78 -1676.54 1085.36 -1677.6 1085.17ZM-1436.8 439.725L-1164.53 480.322C-1164.79 481.401 -1164.86 482.568 -1164.45 483.659L-1356.1 567.222C-1357.86 564.277 -1362.02 563.075 -1366.06 564.563C-1366.24 564.672 -1366.42 564.782 -1366.61 564.891L-1440.35 443.488C-1438.76 442.434 -1437.56 441.203 -1436.8 439.725ZM-828.657 -104.344L-729.448 107.135C-733.026 109.069 -735.064 112.747 -733.851 116.02C-733.798 116.092 -733.746 116.163 -733.642 116.306L-911.67 203.932C-912.714 202.505 -914.15 201.62 -916.03 201.206L-831.7 -103.654C-830.799 -103.68 -829.676 -103.941 -828.657 -104.344ZM-439.295 -3.41008C-439.021 -2.85617 -438.747 -2.30227 -438.342 -1.92894L-540.136 102.783L-717.502 111.787C-717.528 111.393 -717.515 110.872 -717.632 110.532L-439.295 -3.41008ZM1012.94 -660.05C1014.44 -659.615 1016.15 -659.612 1017.83 -660.003L1098.89 -395.231L858.598 -451.556L1012.94 -660.05ZM1266.1 -688.106C1266.91 -689.513 1267.1 -691.057 1266.67 -692.543L1542.11 -794.096C1542.17 -794.025 1542.22 -793.953 1542.32 -793.811L1337.16 -660.854L1266.1 -688.106ZM1543.31 -792.456C1544.12 -791.709 1545.16 -791.197 1546.32 -790.867L1475.04 -615.197C1473.61 -615.364 1472.04 -615.35 1470.51 -614.745C1468.66 -614.047 1467.17 -612.849 1466.16 -611.53L1339.2 -660.226L1543.31 -792.456ZM1547.75 -790.699C1549.19 -790.532 1550.76 -790.546 1552.28 -791.152C1556.74 -792.787 1559.35 -797.117 1557.97 -800.801C1557.9 -801.07 1557.6 -801.301 1557.44 -801.515L1571.13 -809.386L1481.82 -628.373L1547.75 -790.699ZM1556.91 -802.425C1556.81 -802.568 1556.74 -802.836 1556.54 -802.924L1576.8 -820.668L1572.11 -811.099L1556.91 -802.425ZM1230.86 -597.125C1229.53 -597.149 1228.25 -597.102 1226.91 -596.606C1225.89 -596.202 1224.97 -595.656 1224.11 -595.039L1252.04 -670.164L1230.86 -597.125ZM1221.21 -587.154C1221.26 -587.082 1221.17 -587.027 1221.22 -586.956C1221.85 -585.382 1223.12 -584.191 1224.77 -583.542L1211.74 -561.5L1221.21 -587.154ZM1231.87 -597.008L1256.88 -683.109C1258.21 -683.084 1259.49 -683.131 1260.84 -683.628C1262.69 -684.326 1264.09 -685.468 1265.19 -686.842L1335.66 -659.854L1235.93 -595.231C1234.91 -596.263 1233.5 -596.753 1231.87 -597.008ZM1637.67 -875.192L1581.44 -826.002L1596.07 -855.559L1637.2 -875.834C1637.45 -875.675 1637.52 -875.406 1637.67 -875.192ZM1636.2 -877.387L1597.36 -858.28L1621.84 -907.768C1623.42 -907.585 1625.04 -907.527 1626.75 -908.242C1627.08 -908.334 1627.21 -908.515 1627.39 -908.624L1640.51 -886.217C1636.98 -884.212 1635.04 -880.589 1636.2 -877.387ZM1594.7 -856.893L1585.13 -852.198L1617.5 -903.119L1594.7 -856.893ZM1593.35 -854.243L1577.94 -822.885L1555.75 -803.474C1555.45 -803.705 1555 -803.952 1554.61 -804.128L1583.32 -849.275L1593.35 -854.243ZM1553.58 -804.64C1551.74 -805.18 1549.51 -805.178 1547.42 -804.442C1543.2 -802.844 1540.84 -799.074 1541.68 -795.582L1272.78 -696.4L1581.43 -848.451L1553.58 -804.64ZM1221.36 -593.597L1213.33 -596.488L1250.6 -672.485L1221.36 -593.597ZM1220.87 -592.283L1205.61 -551.38L1121.34 -409.261L1212.7 -595.191L1220.87 -592.283ZM681.51 0.699597C680.204 0.352031 678.729 0.31088 677.227 0.593083L643.196 -162.588L688.716 -178.309L766.323 -124.519L681.51 0.699597ZM-119.568 294.462C-120.469 293.053 -121.774 291.987 -123.471 291.464L-78.0774 170.732L74.6369 207.934C74.2448 209.194 74.0487 210.541 74.4662 211.83L-119.568 294.462ZM-492.362 420.458C-492.845 419.619 -493.367 418.905 -494.163 418.356L-319.274 212.447L-134.714 296.03C-135.433 297.382 -135.668 298.855 -135.434 300.253L-492.362 420.458ZM-1355.37 568.939C-1355.43 568.67 -1355.35 568.418 -1355.51 568.204L-1163.81 484.713C-1162.43 486.962 -1159.69 488.194 -1156.62 487.898L-1150.89 536.658L-1355.37 568.939ZM-429.281 -0.679644C-428.772 -0.881456 -428.367 -1.22603 -427.818 -1.55379L-355.027 88.741C-356.751 89.9762 -357.874 91.6726 -358.279 93.4526L-446.205 97.9124L-432.101 -0.224482C-431.201 -0.250245 -430.26 -0.401974 -429.281 -0.679644ZM-77.5155 169.166L-7.38625 -17.4044L79.0647 203.033C77.4585 203.89 76.1523 204.978 75.2901 206.314L-77.5155 169.166ZM-445.906 150.021L-373.165 142.23L-389.679 178.55L-446.874 152.65C-446.312 151.802 -445.946 150.865 -445.906 150.021ZM-445.985 148.838C-446.063 148.372 -445.958 147.797 -446.18 147.314C-446.232 147.243 -446.284 147.172 -446.337 147.1L-357.027 98.7536C-356.257 99.6262 -355.357 100.318 -354.286 100.704L-372.629 140.987L-445.985 148.838ZM-352.223 101.009C-350.787 101.176 -349.22 101.162 -347.601 100.502C-346.765 100.208 -346.177 99.754 -345.538 99.3716L-307.722 133.982L-370.227 140.679L-352.223 101.009ZM-255.038 133.973L-276.903 159.752L-304.106 134.794L-257.309 129.794C-257.322 130.315 -257.335 130.835 -257.113 131.318C-256.709 132.409 -255.939 133.281 -255.038 133.973ZM-253.406 134.946C-251.409 135.701 -248.928 135.858 -246.564 134.959C-246.238 134.866 -245.925 134.576 -245.651 134.412L-132.598 292.099L-275.584 161.015L-253.406 134.946ZM-257.478 128.665L-305.268 133.745L-344.049 98.1744C-343.696 97.7586 -343.2 97.3595 -342.899 96.8723L-256.642 126.217C-257.112 127.011 -257.347 127.767 -257.478 128.665ZM-462.294 153.663L-723.339 295C-723.496 294.786 -723.509 294.589 -723.757 294.43L-569.067 135.245L-462.684 149.898C-462.894 151.048 -462.959 152.215 -462.555 153.306C-462.45 153.449 -462.255 153.537 -462.294 153.663ZM-451.915 156.893C-450.335 156.358 -449.12 155.325 -448.101 154.204L-390.515 180.28L-498.106 416.919C-498.106 416.919 -498.106 416.919 -498.158 416.847L-454.683 157.419C-453.69 157.339 -452.842 157.242 -451.915 156.893ZM-496.043 417.224L-388.609 181.089L-320.984 211.726L-495.743 417.454C-495.847 417.312 -495.899 417.24 -496.043 417.224ZM-387.825 179.288L-370.762 141.922L-306.56 135.031L-278.091 161.18L-319.665 210.118L-387.825 179.288ZM-276.773 162.443L-133.225 294.115C-133.317 294.169 -133.448 294.35 -133.487 294.476L-317.994 210.965L-276.773 162.443ZM-129.582 291.732C-129.908 291.825 -130.222 292.114 -130.496 292.278L-244.227 133.664C-243.182 132.937 -242.242 132.068 -241.55 131.039L-80.101 170.301L-125.534 291.159C-126.866 291.134 -128.237 291.236 -129.582 291.732ZM-241.04 129.402C-240.609 128.016 -240.413 126.669 -240.882 125.309C-241.104 124.826 -241.509 124.453 -241.77 124.096L-15.3188 -37.5773L-8.46901 -20.1406L-79.5392 168.735L-241.04 129.402ZM-6.17081 -20.5913L3.32871 -45.8502C4.13822 -45.8214 5.07832 -45.9731 6.01845 -46.1248L74.8651 186.165L-6.17081 -20.5913ZM-2.5331 -49.0113C-2.48089 -48.94 -2.37651 -48.7974 -2.3243 -48.726L-13.9862 -40.4242L-15.2517 -43.7689L-2.5331 -49.0113ZM-1.4368 -47.5135C-0.679705 -46.8382 0.299745 -46.3982 1.26588 -46.1553L-7.30595 -23.3988L-13.4644 -38.9931L-1.4368 -47.5135ZM32.3395 -41.7592L295.039 56.8467L296.368 66.9202L288.585 72.084L32.3395 -41.7592ZM530.908 -388.706L678.91 -312.702L633.121 -226.797C631.437 -227.124 629.635 -227.072 627.872 -226.429C627.69 -226.319 627.507 -226.21 627.324 -226.101L526.064 -388.681L530.908 -388.706ZM803.964 -389.586C803.964 -388.868 803.964 -388.15 804.198 -387.47C804.59 -386.576 805.112 -385.863 805.725 -385.204L795.838 -375.913L791.612 -389.586L803.964 -389.586ZM833.546 -235.535L713.715 -297.105L754.273 -335.131L794.832 -373.159L836.732 -237.644C835.439 -237.077 834.394 -236.35 833.546 -235.535ZM634.858 -226.4L680.386 -311.943L710.92 -296.255L635.85 -225.762C635.498 -226.064 635.197 -226.295 634.858 -226.4ZM638.734 -220.924C638.787 -221.571 638.695 -222.234 638.513 -222.842C638.121 -223.736 637.599 -224.449 636.986 -225.108L712.148 -295.655L832.174 -233.998C831.704 -233.204 831.338 -232.268 831.155 -231.441L638.734 -220.924ZM796.217 -374.498L806.861 -384.55C808.493 -383.577 810.373 -383.163 812.488 -383.504L815.07 -370.284L836.89 -243.173L796.217 -374.498ZM794.311 -374.59L753.327 -336.155L712.344 -297.721L681.221 -313.673L721.51 -389.319L789.667 -389.551L794.311 -374.59ZM679.89 -314.415L535.138 -388.671L719.708 -389.267L679.89 -314.415ZM513.935 -119.997L431.577 -91.593C431.473 -91.7357 431.421 -91.807 431.316 -91.9496L621.745 -213.438L513.935 -119.997ZM312.797 54.5393L381.292 -32.8361L320.033 48.2676L312.797 54.5393ZM299.661 58.4935C298.864 60.0975 298.55 61.8229 299.229 63.4679C299.398 63.8792 299.751 64.1812 300.012 64.5378L298.144 65.7562L297.076 57.4751L299.661 58.4935ZM298.34 67.2799L300.756 65.7337C301.565 66.4803 302.453 66.975 303.523 67.3605L301.838 70.6232C300.872 70.3803 299.827 70.3893 298.692 70.4529L298.34 67.2799ZM302.948 70.8826C302.804 70.8659 302.7 70.7234 302.556 70.7067L304.241 67.4439C304.581 67.5487 305.012 67.5988 305.443 67.6489L302.948 70.8826ZM314.299 55.6926L314.612 55.4028L314.351 55.7639C314.351 55.7639 314.351 55.7639 314.299 55.6926ZM324.708 44.2433L419.575 -81.2423C420.111 -81.0496 420.829 -80.9661 421.455 -80.828L411.531 -31.017L324.708 44.2433ZM423.31 -80.8083C424.302 -80.8887 425.242 -81.0404 426.221 -81.3181C428.076 -82.016 429.473 -83.1587 430.57 -84.532L460.284 -73.3769L413.816 -33.1004L423.31 -80.8083ZM431.471 -85.9933C432.098 -87.2908 432.295 -88.6383 432.112 -89.9646L510.291 -116.896L461.577 -74.6622L431.471 -85.9933ZM415.529 -86.4112C415.607 -85.9453 415.542 -85.4962 415.673 -84.959C416.142 -83.5993 417.2 -82.6934 418.388 -81.9679L311.766 54.0277C310.395 53.4116 308.776 53.3539 307.079 53.548L285.037 -75.4812L415.529 -86.4112ZM296.564 68.4438L296.863 70.8278C296.628 70.8657 296.393 70.9036 296.158 70.9416C294.487 71.5303 293.272 72.5637 292.162 73.7398L289.864 72.755L296.564 68.4438ZM304.083 71.5369L307.009 67.6354C307.767 67.5929 308.42 67.4077 309.073 67.2225L311.721 74.252L306.89 75.1911C306.877 74.9939 306.864 74.7966 306.799 74.528C306.381 73.2396 305.271 72.2623 304.083 71.5369ZM315.095 56.9599L319.196 51.4331L410.864 -28.1579L395.866 47.0353L315.577 58.5168C315.46 58.1769 315.63 57.8703 315.512 57.5304C315.447 57.2618 315.199 57.1025 315.095 56.9599ZM518.675 -121.599L624.905 -213.788C626.589 -212.744 628.704 -212.367 630.911 -212.763L641.12 -163.809L518.675 -121.599ZM632.687 -213.21C632.778 -213.264 632.83 -213.193 632.922 -213.247C634.084 -213.634 635.09 -214.235 635.991 -214.979L686.967 -179.621L642.883 -164.452L632.687 -213.21ZM637.088 -216.352C637.924 -217.364 638.512 -218.536 638.812 -219.741L831.324 -230.312C831.298 -229.989 831.363 -229.72 831.428 -229.451L689.056 -180.357L637.088 -216.352ZM804.225 -391.382L803.559 -391.394L790.96 -391.554L767.897 -466.148L767.988 -466.203L808.366 -396.317C806.263 -395.061 804.814 -393.272 804.225 -391.382ZM265.576 -191.289C266.83 -191.731 267.875 -192.458 268.776 -193.201L417.32 -91.6846C416.392 -90.6178 415.752 -89.5176 415.504 -88.2414L284.632 -77.29L265.106 -191.213C265.341 -191.251 265.485 -191.235 265.576 -191.289ZM-3.34189 -51.1937C-3.27668 -50.9251 -3.26373 -50.7277 -3.25073 -50.5304L-15.878 -45.3426L-17.5482 -49.7782L-3.34189 -51.1937ZM-358.449 95.1948C-358.41 95.7866 -358.515 96.3619 -358.241 96.9158C-358.189 96.9871 -358.085 97.1297 -358.032 97.2011L-447.341 145.548C-448.529 144.104 -450.488 143.224 -452.681 143.1L-446.519 99.6377L-358.449 95.1948ZM-571.365 134.978L-725.389 293.457C-726.564 292.929 -727.83 292.455 -729.345 292.54L-725.273 120.019C-724.66 119.96 -724.046 119.901 -723.393 119.716C-720.795 118.778 -719.018 116.897 -718.104 114.915L-571.365 134.978ZM-726.631 120.318L-730.703 292.839C-731.316 292.898 -731.93 292.957 -732.583 293.142C-734.254 293.731 -735.469 294.764 -736.487 295.886L-835.966 247.58L-730 119.666C-729.021 120.106 -727.819 120.311 -726.631 120.318ZM-916.517 214.723C-914.846 214.134 -913.631 213.101 -912.612 211.979L-838.604 247.926L-951.297 384.064L-919.377 215.304C-918.528 215.207 -917.588 215.055 -916.517 214.723ZM-953.857 387.03L-970.667 407.327C-971.058 407.151 -971.489 407.101 -971.92 407.051C-972.064 407.034 -972.207 407.018 -972.312 406.875L-923.898 228.873L-953.857 387.03ZM-974.522 420.909C-973.817 420.795 -973.203 420.736 -972.551 420.551C-972.133 420.404 -971.728 420.06 -971.362 419.841L-962.16 430.438L-975.577 501.508L-974.522 420.909ZM-969.351 418.639C-966.922 416.572 -965.837 413.566 -966.777 410.847C-966.777 410.847 -966.777 410.847 -966.829 410.775L-957.518 406.442L-961.494 427.579L-969.351 418.639ZM-967.56 409.777C-967.977 409.206 -968.395 408.636 -968.943 408.246L-954.51 390.804L-957.139 404.985L-967.56 409.777ZM-1148.16 481.508C-1147.89 480.429 -1147.87 479.388 -1148.08 478.385L-995.766 422.224C-994.174 425.476 -989.8 426.964 -985.491 425.311C-982.893 424.373 -981.116 422.492 -980.202 420.51C-979.862 420.615 -979.484 420.593 -979.144 420.698C-978.074 421.084 -976.873 421.288 -975.645 421.17L-976.713 503.008C-977.418 503.121 -978.032 503.181 -978.685 503.366C-981.283 504.303 -983.021 506.059 -983.974 508.167L-1148.16 481.508ZM-955.167 403.909L-952.146 387.75L-836.985 248.702L-737.506 297.007C-738.669 298.83 -739.009 300.879 -738.409 302.776C-738.409 302.776 -738.409 302.776 -738.357 302.847L-955.167 403.909ZM81.5717 202.15L7.74209 -46.6422C9.12629 -47.2644 10.3016 -48.1717 11.2811 -49.1672L286.717 73.3026L89.144 203.879C87.4602 202.117 84.5227 201.514 81.5717 202.15ZM413.254 -30.0987L462.373 -72.6774L670.279 5.4627C669.9 6.20172 669.626 7.0835 669.534 7.85592L397.982 46.694L413.254 -30.0987ZM675.347 0.896622C673.492 1.59461 672.095 2.73709 670.998 4.11042L463.627 -73.8366L515.083 -118.427L641.616 -162.054L675.582 0.85861C675.49 0.913237 675.438 0.841994 675.347 0.896622ZM839.16 -238.275L828.237 -301.669L840.336 -238.465C839.905 -238.515 839.487 -238.368 839.16 -238.275ZM820.716 -391.292C820.716 -392.01 820.756 -392.854 820.521 -393.534C820.104 -394.822 819.046 -395.728 817.858 -396.453L847.783 -436.891L956.18 -391.66L820.716 -391.292ZM766.173 -465.631L789.106 -391.574L723.248 -392.51L762.191 -465.506C763.444 -465.23 764.815 -465.332 766.173 -465.631ZM531.744 -390.435L528.845 -391.882C529.185 -392.495 529.381 -393.125 529.577 -393.754L720.258 -391.031L531.744 -390.435ZM514.9 -388.674L516.088 -388.667C516.78 -388.26 517.563 -387.908 518.333 -387.753L498.966 -326.967L467.31 -352.443L514.9 -388.674ZM520.161 -387.41C521.35 -387.402 522.668 -387.575 523.922 -388.017C524.105 -388.126 524.288 -388.235 524.47 -388.345L626.044 -225.336C625.861 -225.227 625.587 -225.063 625.404 -224.954L500.48 -325.617L520.161 -387.41ZM624.151 -223.795C623.132 -222.673 622.4 -221.518 622.152 -220.242L463.914 -210.776L499.971 -323.979L624.151 -223.795ZM622.073 -218.555C622.112 -217.963 622.099 -217.442 622.229 -216.905C622.399 -216.494 622.699 -216.263 622.96 -215.907L430.573 -93.1456C429.607 -94.1062 428.379 -94.7056 426.982 -94.9985L463.313 -209.084L622.073 -218.555ZM425.115 -95.2156C424.972 -95.2323 424.828 -95.249 424.685 -95.2657L423.333 -206.619L461.329 -208.923L425.115 -95.2156ZM422.765 -94.8364C422.295 -94.7606 421.773 -94.7559 421.407 -94.5374C420.154 -94.0959 419.109 -93.3691 418.208 -92.6255L269.664 -194.142C270.5 -195.154 271.14 -196.255 271.349 -197.405L421.4 -206.387L422.765 -94.8364ZM282.883 -77.1671L279.671 -76.8881L269.757 -153.803L282.883 -77.1671ZM283.196 -75.3037L305.342 53.8682C305.251 53.9229 305.107 53.9062 305.015 53.9609C303.671 54.457 302.443 55.2931 301.555 56.2339L296.633 53.6387L280.036 -74.9532L283.196 -75.3037ZM294.466 52.4733L85.564 -58.8022L277.999 -74.8637L294.466 52.4733ZM293.839 54.4885L12.6789 -51.0277C12.9271 -51.5861 13.1753 -52.1446 13.2799 -52.7197L81.7382 -58.4639L293.839 54.4885ZM-3.41962 -53.0952L-18.2788 -51.4947L-46.7216 -124.104C-46.7216 -124.104 -46.7214 -124.104 -46.63 -124.158L0.551164 -58.4412C-1.68196 -57.0042 -3.07955 -55.1438 -3.41962 -53.0952ZM-19.9505 -49.4704L-17.9543 -44.4094L-160.577 14.5745L-119.316 -39.0974L-19.9505 -49.4704ZM-17.3282 -42.8356L-15.8406 -39.0084L-242.657 122.884C-242.905 122.724 -243.153 122.565 -243.401 122.406L-162.497 17.1574L-17.3282 -42.8356ZM-244.929 121.576C-246.874 120.893 -249.25 120.877 -251.522 121.723C-252.632 122.181 -253.599 122.656 -254.408 123.345L-313.347 79.6222L-165.592 18.4942L-244.929 121.576ZM-255.375 124.537C-255.688 124.827 -255.91 125.062 -256.08 125.369L-342.338 96.0241C-341.58 94.546 -341.397 93.0011 -341.788 91.3895L-314.875 80.2277L-255.375 124.537ZM-342.597 89.925C-342.702 89.7824 -342.754 89.7111 -342.858 89.5684L-322.707 74.5533L-316.467 79.1289L-342.597 89.925ZM-344.033 88.3225C-346.187 86.6365 -349.399 86.1978 -352.559 87.266C-353.068 87.4678 -353.473 87.8122 -353.93 88.0854L-426.721 -2.20928C-426.539 -2.31854 -426.447 -2.37302 -426.356 -2.42765L-324.156 73.4712L-344.033 88.3225ZM-447.746 99.7561L-453.96 143.147C-454.861 143.172 -455.802 143.324 -456.729 143.673C-459.327 144.611 -461.104 146.493 -462.018 148.475L-567.63 133.976L-538.844 104.369L-447.746 99.7561ZM-570.072 133.692L-717.294 113.508L-541.73 104.555L-570.072 133.692ZM-731.723 118.748L-837.729 246.788L-911.737 210.841C-910.575 209.019 -910.234 206.97 -910.835 205.073C-910.887 205.002 -910.939 204.93 -911.043 204.788L-733.107 117.216C-732.637 117.858 -732.271 118.357 -731.723 118.748ZM-921.622 215.108L-973.656 406.654C-975.145 406.415 -976.803 406.483 -978.422 407.144C-978.84 407.291 -979.154 407.581 -979.519 407.799L-1033.95 341.696L-923.45 214.765C-922.967 214.886 -922.34 215.024 -921.622 215.108ZM-981.452 408.749C-982.536 409.602 -983.267 410.757 -983.855 411.928C-985.8 411.245 -988.125 411.301 -990.449 412.075C-994.719 413.602 -997.162 417.624 -996.17 421.133L-1148.48 477.294C-1148.87 476.4 -1149.49 475.741 -1150.28 475.192L-1035.46 343.217L-981.452 408.749ZM-1154.41 487.502C-1154.18 487.464 -1154.03 487.481 -1153.85 487.372C-1151.34 486.489 -1149.51 484.678 -1148.56 482.57L-984.34 509.103C-984.458 509.481 -984.575 509.859 -984.641 510.308L-1148.73 536.191L-1154.41 487.502ZM-973.919 502.876L-960.568 432.255L-929.007 468.552L-970.564 504.049C-971.556 503.412 -972.627 503.026 -973.919 502.876ZM-959.992 429.45L-955.481 405.634L-737.522 303.988C-737.365 304.202 -737.3 304.471 -737.052 304.63L-927.296 467.12L-959.992 429.45ZM-722.034 296.783C-722.086 296.712 -722.191 296.569 -722.243 296.498L-461.197 155.161C-460.023 156.407 -458.404 157.182 -456.393 157.416L-499.869 416.844C-500.717 416.941 -501.709 417.022 -502.637 417.371C-504.073 417.921 -505.249 418.829 -506.28 419.753L-723.067 302.732C-721.761 300.926 -721.29 298.697 -722.034 296.783ZM288.323 73.8809L291.209 75.1298C290.229 76.8431 289.928 78.7659 290.567 80.5369C290.684 80.8768 290.985 81.1075 291.193 81.3928L112.65 190.037L288.323 73.8809ZM307.046 76.8407L312.256 75.8804L358.023 199.446L302.213 83.5222C305.203 82.0427 307.032 79.5146 307.046 76.8407ZM361.978 206.105L313.666 75.6527L393.173 60.948L364.276 205.654C363.57 205.768 362.774 205.936 361.978 206.105ZM313.131 74.0244L310.417 66.7266C313.512 65.3898 315.576 62.8236 315.825 60.1118L395.644 48.7061L393.578 59.1679L313.131 74.0244ZM397.524 48.4026L637.4 14.0385L395.498 58.7384L397.524 48.4026ZM690.805 -179.044L831.833 -227.642C832.381 -226.535 833.242 -225.717 834.469 -225.117L767.316 -126.035L690.805 -179.044ZM835.892 -224.43C837.25 -224.011 838.765 -224.096 840.319 -224.306L873.046 -67.9325L875.562 -54.9802C875.562 -54.9802 875.562 -54.9802 875.471 -54.9256C874.309 -54.5386 873.303 -53.9376 872.402 -53.1941L768.517 -125.113L835.892 -224.43ZM841.768 -224.66C841.859 -224.715 842.003 -224.698 842.094 -224.752C842.421 -224.845 842.643 -225.08 842.917 -225.244L856.58 -154.158L841.768 -224.66ZM842.581 -238.269L814.695 -383.9C814.695 -383.9 814.695 -383.901 814.786 -383.955C817.058 -384.8 818.808 -386.359 819.88 -388.127L1028.03 -343.043L846.563 -236.24C845.545 -237.272 844.174 -237.888 842.581 -238.269ZM820.402 -389.567C820.494 -389.621 820.442 -389.693 820.533 -389.747L959.796 -390.13L1046.65 -353.864L1030.19 -344.228L820.402 -389.567ZM1115.53 -327.257L1079.38 -342.358L1103.94 -378.461L1118.84 -329.744C1117.54 -329.177 1116.37 -328.269 1115.53 -327.257ZM1077.53 -343.096L1050.41 -354.471L1102.05 -384.815L1103.26 -380.824L1077.53 -343.096ZM1103.97 -385.962L1104.7 -386.399C1105.16 -385.954 1105.7 -385.564 1106.2 -385.246L1104.82 -383.188L1103.97 -385.962ZM1108.38 -397.521C1106.54 -396.626 1105.05 -395.428 1104.15 -393.967L1101.31 -394.624L1035.86 -608.443L1108.38 -397.521ZM1103.55 -392.275C1103.51 -392.149 1103.42 -392.095 1103.47 -392.023L1102.19 -391.976L1102.01 -392.585L1103.55 -392.275ZM1103.15 -390.495C1103.15 -389.777 1103.11 -388.934 1103.34 -388.254C1103.41 -387.985 1103.66 -387.826 1103.81 -387.612L1103.54 -387.448L1102.57 -390.562L1103.15 -390.495ZM1101.62 -386.301L1048.7 -355.192L964.876 -390.192L1100.34 -390.56L1101.62 -386.301ZM1048.22 -353.16L1076.41 -341.399L1072.12 -335.045L1032.17 -343.671L1048.22 -353.16ZM1078.26 -340.662L1112.5 -326.37L1074.24 -334.669L1078.26 -340.662ZM1105.64 -380.808L1108.11 -384.437C1109.41 -384.089 1110.74 -384.065 1112.15 -384.292L1119.82 -334.329L1105.64 -380.808ZM846.073 -437.612L816.278 -397.355C814.385 -397.966 812.153 -397.965 809.881 -397.12C809.698 -397.011 809.515 -396.901 809.332 -396.792L768.955 -466.678C769.96 -467.278 770.731 -467.842 771.436 -468.673L846.073 -437.612ZM466.058 -353.438L426.426 -385.322C427.314 -386.263 427.863 -387.309 428.216 -388.442L512.236 -388.723L466.058 -353.438ZM-48.8499 -123.242L-20.5899 -51.2414L-117.644 -41.1218L-54.4121 -123.301C-52.8063 -122.723 -50.8608 -122.758 -48.8499 -123.242ZM-433.381 -0.177459L-447.432 98.0306L-537.251 102.596L-436.619 -1.01077C-435.588 -0.49932 -434.621 -0.25642 -433.381 -0.177459ZM-1117.79 823.326C-1118.39 823.583 -1118.8 823.927 -1119.35 824.255L-1357.82 575.636C-1356.35 574.241 -1355.27 572.473 -1355.16 570.66L-1150.59 538.324L-1117.23 823.196C-1117.32 823.25 -1117.56 823.288 -1117.79 823.326ZM1113.99 -398.305C1112.78 -398.51 1111.56 -398.392 1110.2 -398.093L1019.97 -660.668C1021.54 -661.399 1022.76 -662.433 1023.72 -663.625L1211.04 -595.84L1113.99 -398.305ZM1099.45 -393.208L1099.82 -391.991L961.22 -391.596L848.867 -438.462L857.331 -449.877L1099.45 -393.208ZM847.248 -439.237L775.732 -469.087L855.542 -450.346L847.248 -439.237ZM756.956 -469.247C757.582 -467.674 758.94 -466.537 760.546 -465.959L721.485 -392.584L529.904 -395.283C529.97 -395.732 529.8 -396.143 529.722 -396.609L756.956 -469.247ZM514.169 -390.391L446.392 -390.179L513.047 -393.719C513.047 -393.001 513.047 -392.283 513.282 -391.603C513.504 -391.121 513.856 -390.819 514.169 -390.391ZM422.613 -382.633C423.54 -382.982 424.454 -383.529 425.225 -384.092L464.66 -352.295L422.046 -319.858L421.255 -382.335C421.673 -382.482 422.195 -382.486 422.613 -382.633ZM465.913 -351.301L498.378 -325.078L461.89 -210.489L423.372 -208.181L422.085 -317.83L465.913 -351.301ZM421.427 -208.146L271.52 -199.147C271.481 -199.739 271.494 -200.259 271.364 -200.797C271.181 -201.405 270.776 -201.778 270.41 -202.278L420.231 -316.415L421.427 -208.146ZM263.187 -190.784L277.974 -76.6939L82.8485 -60.3577L50.4987 -77.6269L256.333 -193.147C257.781 -191.347 260.262 -190.472 263.187 -190.784ZM78.8269 -60.1074L13.2935 -54.6757C13.2152 -55.1416 13.2806 -55.5908 13.1502 -56.128C13.085 -56.3966 12.8892 -56.4847 12.7326 -56.6986L48.1483 -76.5299L78.8269 -60.1074ZM12.0017 -57.6972C9.99165 -60.0843 6.2317 -60.9132 2.61459 -59.5718C2.19673 -59.4246 1.88319 -59.1347 1.51754 -58.9162L-45.6638 -124.633C-45.1153 -124.961 -44.7104 -125.306 -44.3055 -125.65L46.7775 -77.1462L12.0017 -57.6972ZM-55.8481 -124.186L-119.955 -40.8684L-176.101 -34.9977L-56.3443 -124.505C-56.2399 -124.362 -56.0439 -124.274 -55.8481 -124.186ZM-121.483 -38.8274L-163.581 15.8567L-314.848 78.4688L-321.44 73.5912L-179 -32.8552L-121.483 -38.8274ZM-322.889 72.5091L-425.337 -3.54907C-424.318 -4.67048 -423.548 -5.95132 -423.351 -7.29888L-182.303 -32.5215L-322.889 72.5091ZM-925.134 213.721L-1035.19 340.182L-1192.7 148.678C-1191.89 147.989 -1191.19 147.157 -1190.62 146.309L-927.143 207.027C-927.574 208.412 -927.771 209.76 -927.301 211.12C-926.753 212.227 -926.035 213.029 -925.134 213.721ZM-1195.53 150.371C-1195.12 150.224 -1194.8 149.934 -1194.44 149.716L-1036.51 341.79L-1151.77 474.236C-1153.09 473.691 -1154.52 473.524 -1156.13 473.664L-1196.1 150.502C-1196 150.447 -1195.72 150.481 -1195.53 150.371ZM-1366.45 578.025L-1449.21 892.4C-1450.25 892.409 -1451.43 892.599 -1452.54 893.057C-1453.46 893.406 -1454.29 893.898 -1455.06 894.461L-1584.76 782.606C-1582.71 780.56 -1581.7 777.806 -1582.57 775.355C-1582.91 774.533 -1583.38 773.891 -1584 773.232L-1368.99 577.078C-1368.24 577.556 -1367.46 577.908 -1366.45 578.025ZM-1447.29 892.689L-1364.48 578.385C-1363.44 578.376 -1362.26 578.186 -1361.15 577.728C-1360.55 577.472 -1360.15 577.127 -1359.6 576.799L-1121.12 825.419C-1122.78 826.923 -1123.7 828.904 -1123.71 830.86L-1441.91 897.164C-1441.92 896.967 -1441.88 896.841 -1441.99 896.698C-1442.8 894.516 -1444.83 893.17 -1447.29 892.689ZM-1115.02 822.8L-1148.47 537.983L-984.432 512.029C-984.367 512.298 -984.446 512.55 -984.328 512.89C-983.637 514.732 -982.123 516.083 -980.229 516.694L-1113.31 822.803C-1113.84 822.807 -1114.41 822.741 -1115.02 822.8ZM-968.045 506.952C-968.332 506.201 -968.841 505.685 -969.258 505.114L-927.884 469.727L-738.311 687.798L-969.692 513.678C-968.02 511.653 -967.184 509.206 -968.045 506.952ZM-733.663 687.686C-734.08 687.833 -734.485 688.178 -734.851 688.396L-926.174 468.295L-735.746 305.695C-733.658 307.113 -730.589 307.535 -727.664 306.505C-726.228 305.954 -725.053 305.046 -724.073 304.051L-507.286 421.072C-508.54 422.949 -508.972 425.052 -508.319 427.02C-507.915 428.112 -507.145 428.984 -506.1 429.693L-726.769 687.77C-728.818 686.944 -731.299 686.786 -733.663 687.686ZM90.2275 205.179L291.833 82.4459C293.83 84.6357 297.538 85.3932 301.116 84.1778L360.176 206.874C357.877 208.042 356.245 209.941 355.669 212.028L91.0621 208.474C91.1015 207.63 91.0494 206.841 90.7624 206.09C90.7364 205.695 90.4363 205.464 90.2275 205.179ZM366.143 205.871L395.145 60.5899L669.665 9.82855C669.678 10.0258 669.691 10.2231 669.756 10.4917C669.873 10.8317 670.173 11.0623 670.434 11.4189L370.53 207.556C369.276 206.562 367.723 206.055 366.143 205.871ZM682.933 1.38708L767.616 -123.651L871.253 -51.8921C870.025 -50.3382 869.385 -48.5205 869.606 -46.6023L686 4.68033C686 4.68033 685.948 4.60887 686.039 4.55424C685.465 3.05186 684.303 2.00326 682.933 1.38708ZM847.477 -234.633C847.372 -234.776 847.32 -234.847 847.216 -234.99L1030.02 -342.486L1070.93 -333.618L1048.15 -300.114L847.477 -234.633ZM1073.19 -333.224L1113.91 -324.444C1113.6 -323.436 1113.61 -322.521 1113.77 -321.589L1051.4 -301.237L1073.19 -333.224ZM1121.36 -330.43L1113.04 -384.516C1113.37 -384.608 1113.66 -384.575 1113.98 -384.667C1118.44 -386.303 1121.05 -390.632 1119.72 -394.246C1119.65 -394.514 1119.4 -394.674 1119.3 -394.816L1155.54 -416.575L1123.58 -330.629C1122.86 -330.712 1122.15 -330.599 1121.36 -330.43ZM1118.29 -396.369C1117.73 -396.956 1117.04 -397.363 1116.21 -397.786L1202.96 -544.053L1156.54 -419.329L1118.29 -396.369ZM1236.92 -593.875L1337.7 -659.226L1465.34 -610.321C1464.96 -609.582 1464.67 -608.898 1464.58 -608.125L1237.81 -591.227C1237.77 -591.819 1237.87 -592.394 1237.6 -592.948C1237.34 -593.305 1237.04 -593.536 1236.92 -593.875ZM1574.07 -810.937L1614.08 -833.822L1481.27 -623.021L1574.07 -810.937ZM1574.94 -812.792L1580.39 -823.84L1638.56 -874.698C1638.86 -874.467 1639.11 -874.308 1639.45 -874.203L1615.41 -835.951L1574.94 -812.792ZM1641.02 -873.499C1642.8 -873.03 1644.75 -873.064 1646.84 -873.8C1650.69 -875.18 1652.94 -878.573 1652.68 -881.801L1717.76 -896.291C1717.82 -896.022 1717.74 -895.77 1717.81 -895.501C1717.87 -895.233 1718.12 -895.073 1718.33 -894.788L1618.48 -837.683L1641.02 -873.499ZM1208.9 -554.064L1224.76 -580.868L1160.66 -421.787L1159.38 -421.022L1208.9 -554.064ZM1717.7 -897.08L1652.63 -882.59C1652.56 -882.858 1652.64 -883.11 1652.57 -883.379C1651.24 -886.992 1646.48 -888.655 1641.93 -886.965C1641.61 -886.873 1641.48 -886.692 1641.2 -886.528L1628.09 -908.935C1629.97 -909.956 1631.3 -911.368 1631.95 -912.988L1717.8 -899.288C1717.65 -898.586 1717.56 -897.814 1717.7 -897.08ZM1619.57 -908.359L1583.29 -851.302L1275.51 -699.672L1617.64 -909.562C1618.15 -909.046 1618.79 -908.711 1619.57 -908.359ZM1254.14 -683.623L1211.67 -597.138L1024.55 -664.835C1024.92 -665.574 1025.21 -666.258 1025.3 -667.031L1250.1 -688.792C1250.08 -688.272 1250.07 -687.751 1250.29 -687.269C1250.93 -685.498 1252.34 -684.29 1254.14 -683.623ZM1011.36 -660.952L856.718 -451.971L773.095 -471.613C773.579 -472.927 773.631 -474.291 773.214 -475.579C773.031 -476.188 772.574 -476.633 772.209 -477.132L1010.9 -661.396C1010.97 -661.128 1011.16 -661.04 1011.36 -660.952ZM529.448 -397.88C527.986 -401.313 523.417 -402.889 518.964 -401.253C515.674 -400.004 513.375 -397.4 513.035 -394.634L428.961 -390.118L428.53 -390.168C428.569 -390.294 428.517 -390.365 428.464 -390.436L745.936 -467.07L529.448 -397.88ZM419.374 -382.031L420.101 -318.387L269.236 -203.524C269.131 -203.666 268.988 -203.683 268.844 -203.7L415.719 -382.717C416.842 -382.26 418.004 -381.93 419.374 -382.031ZM255.354 -194.305L48.88 -78.4026L-42.895 -127.313C-42.1635 -128.468 -41.8235 -129.799 -41.8623 -131.109L255.002 -195.325C255.015 -195.128 254.975 -195.002 255.08 -194.859C255.093 -194.662 255.289 -194.574 255.354 -194.305ZM-57.519 -125.751L-179.404 -34.6641L-423.377 -9.12902L-58.1977 -126.678C-58.028 -126.267 -57.7278 -126.036 -57.519 -125.751ZM-439.908 -4.78655L-718.154 109.101C-719.864 106.227 -723.937 104.97 -727.842 106.278L-827.051 -105.202C-825.628 -105.95 -824.413 -106.983 -823.59 -108.193L-439.724 -8.48478C-440.208 -7.17061 -440.273 -6.00363 -439.908 -4.78655ZM-833.671 -104.014L-918.001 200.846C-919.137 200.91 -920.312 201.1 -921.475 201.486C-923.747 202.332 -925.549 203.819 -926.529 205.532L-1190.01 144.814C-1189.58 143.429 -1189.38 142.081 -1189.85 140.721C-1190.02 140.31 -1190.32 140.08 -1190.58 139.723L-837.092 -105.456C-836.139 -104.692 -835.016 -104.235 -833.671 -104.014ZM-1198.16 150.914L-1158.19 474.076C-1158.43 474.114 -1158.57 474.098 -1158.76 474.207C-1161.26 475.09 -1163.09 476.9 -1164.01 478.882L-1436.28 438.285C-1435.98 437.08 -1435.91 435.913 -1436.32 434.822C-1436.72 433.731 -1437.49 432.858 -1438.54 432.149L-1202.32 150.43C-1201.06 150.904 -1199.77 151.054 -1198.16 150.914ZM-1442.05 444.4C-1441.87 444.291 -1441.69 444.182 -1441.5 444.073L-1367.85 565.53C-1371.14 567.496 -1372.99 571.066 -1371.79 574.142C-1371.45 574.964 -1370.93 575.677 -1370.37 576.265L-1585.38 772.419C-1585.88 772.1 -1586.23 771.798 -1586.76 771.605L-1446.53 444.924C-1445.15 445.019 -1443.63 444.935 -1442.05 444.4ZM-1673.66 1087.33L-1455.8 905.468C-1453.66 906.956 -1450.59 907.378 -1447.58 906.293C-1447.4 906.184 -1447.3 906.13 -1447.12 906.02L-1341.58 1079.47C-1343.54 1080.75 -1344.9 1082.48 -1345.43 1084.44L-1672.17 1091.15C-1672.17 1090.44 -1672.12 1089.79 -1672.35 1089.11C-1672.73 1088.41 -1673.24 1087.9 -1673.66 1087.33ZM-1339.75 1078.38C-1339.94 1078.49 -1340.03 1078.55 -1340.21 1078.65L-1445.84 905.256C-1443.33 903.655 -1441.83 901.219 -1441.8 898.742L-1123.55 832.51C-1123.54 832.707 -1123.58 832.833 -1123.47 832.976C-1123.07 834.067 -1122.3 834.94 -1121.4 835.632L-1332.71 1078.48C-1334.82 1077.58 -1337.3 1077.43 -1339.75 1078.38ZM-1111.25 823.108L-978.167 516.999C-976.731 517.166 -975.216 517.081 -973.636 516.547C-972.617 516.144 -971.703 515.597 -970.933 515.034L-737.698 690.61C-739.2 692.328 -739.827 694.343 -739.462 696.278L-1107.48 826.287C-1108.29 824.823 -1109.65 823.686 -1111.25 823.108ZM-725.241 688.6L-504.573 430.523C-502.523 431.349 -500.095 431.435 -497.679 430.607C-497.588 430.552 -497.496 430.498 -497.405 430.443L-337.365 691.281C-339.141 692.445 -340.369 693.999 -340.917 695.763L-722.827 693.514C-722.827 692.796 -722.827 692.078 -723.062 691.398C-723.571 690.165 -724.34 689.292 -725.241 688.6ZM-335.354 690.08C-335.445 690.134 -335.537 690.189 -335.628 690.243L-495.668 429.405C-495.028 429.023 -494.532 428.624 -494.088 428.153L-216.568 570.703C-217.731 572.525 -218.071 574.574 -217.379 576.416C-217.027 577.436 -216.309 578.238 -215.552 578.913L-327.624 690.587C-329.7 689.367 -332.572 689.033 -335.354 690.08ZM-206.252 566.486L-128.385 305.575C-127.196 305.583 -125.969 305.464 -124.716 305.023C-123.789 304.674 -123.109 304.166 -122.378 303.729L131.529 513.292C130.288 514.648 129.53 516.126 129.399 517.743L-201.083 571.394C-201.148 571.125 -201.122 570.802 -201.187 570.534C-201.904 568.297 -203.889 567.022 -206.252 566.486ZM141.831 510.313C140.617 509.911 139.142 509.87 137.732 510.097L84.9365 215.723C85.0279 215.668 85.08 215.739 85.1714 215.685C88.1878 214.6 90.0817 212.34 90.8266 209.947L355.434 213.501C355.395 214.345 355.447 215.134 355.734 215.885C356.151 217.173 357.209 218.08 358.397 218.805L141.831 510.313ZM371.286 208.949L671.191 12.8122C673.11 14.5362 676.139 15.0841 679.221 14.2678L730.776 171.591C727.772 172.873 725.748 175.313 725.303 177.937L372.147 211.203C372.069 210.737 372.135 210.288 372.057 209.822C371.795 209.465 371.495 209.234 371.286 208.949ZM737.108 171.087C735.607 170.652 733.949 170.72 732.173 171.166L680.618 13.8428C684.314 12.2496 686.469 8.91101 686.026 5.79246L869.632 -45.4898C869.684 -45.4185 869.684 -45.4186 869.593 -45.364C870.167 -43.8616 871.328 -42.8128 872.803 -42.054L737.108 171.087ZM1050.06 -299.305L1114 -320.192C1114.39 -319.298 1115.06 -318.568 1115.82 -317.892L887.015 -59.9786L1050.06 -299.305ZM1158.41 -418.394L1159.6 -419.104L1147.51 -389.121L1158.41 -418.394ZM1227.38 -582.847C1228.82 -582.68 1230.28 -582.836 1231.77 -583.315C1235.06 -584.564 1237.27 -587.114 1237.7 -589.935L1464.48 -606.832C1464.52 -606.24 1464.41 -605.665 1464.68 -605.111C1464.75 -604.843 1464.95 -604.755 1465.1 -604.541L1162.98 -423.279L1227.38 -582.847ZM1617.24 -835.608L1719.01 -893.861C1719.27 -893.504 1719.62 -893.202 1719.92 -892.971L1479.7 -617.265L1617.24 -835.608Z" fill="#777FAD"/>
</g>
<g opacity="0.7">
<path opacity="0.8" d="M-39.7893 1744.6C-37.0984 1743.97 -35.1133 1742.31 -33.9181 1740.33L49.7174 1764.04C49.1798 1765.25 48.9234 1766.52 49.1863 1767.85C50.0826 1771.59 54.6191 1773.8 59.3307 1772.66C63.9451 1771.56 67.0494 1767.57 66.1096 1763.75C66.0765 1763.47 65.8489 1763.28 65.7186 1763.05L440.102 1590.25C441.978 1592.5 445.43 1593.65 448.942 1592.76C452.498 1591.94 455 1589.47 455.663 1586.76L681.454 1591.6C681.477 1592.08 681.305 1592.63 681.468 1593.14C682.365 1596.88 686.901 1599.1 691.516 1598C696.227 1596.85 699.234 1592.9 698.338 1589.16C698.228 1588.53 697.827 1588.04 697.523 1587.5L956.24 1432.61C958.137 1434.46 961.319 1435.35 964.539 1434.58C968.484 1433.59 971.103 1430.68 971.268 1427.52L1306.59 1387.41C1306.63 1387.49 1306.54 1387.53 1306.58 1387.61C1307.47 1391.35 1312.01 1393.57 1316.72 1392.42C1321.34 1391.32 1324.44 1387.33 1323.5 1383.51C1323.14 1382.22 1322.34 1381.23 1321.38 1380.41L1488.35 1219.99C1490.29 1221.06 1492.69 1221.43 1495.19 1220.89C1499.03 1219.94 1501.65 1217.03 1502 1213.98L1804.36 1185.15C1804.45 1185.3 1804.3 1185.47 1804.38 1185.62C1805.28 1189.37 1809.82 1191.58 1814.53 1190.43C1818.71 1189.43 1821.39 1186.21 1821.29 1182.78L2197.9 1109.06C2199.1 1112.48 2203.31 1114.54 2207.79 1113.41C2209.95 1112.93 2211.72 1111.75 2212.94 1110.24L2582.4 1254.43C2581.77 1255.68 2581.46 1257.07 2581.76 1258.48C2582.66 1262.22 2587.2 1264.43 2591.91 1263.29C2596.62 1262.14 2599.63 1258.2 2598.69 1254.37C2598.57 1253.95 2598.3 1253.68 2598.08 1253.3L2978.01 1051.5C2979.95 1053.43 2983.18 1054.4 2986.54 1053.66C2991.25 1052.52 2994.25 1048.57 2993.36 1044.83C2993.08 1043.69 2992.38 1042.66 2991.47 1041.91L3259.15 789.871C3261.05 790.855 3263.45 791.227 3265.94 790.688C3270.56 789.588 3273.66 785.596 3272.72 781.774C3272.25 779.863 3270.91 778.344 3269.1 777.514L3446.71 469.649C3448.11 469.984 3449.63 470.078 3451.12 469.7C3455.73 468.599 3458.84 464.607 3457.9 460.786C3457.79 460.16 3457.38 459.664 3457.08 459.126L3788.75 252.502C3790.7 254.233 3793.7 255.013 3796.82 254.291C3801.53 253.147 3804.54 249.198 3803.6 245.377C3802.71 241.632 3798.17 239.419 3793.46 240.563C3791.2 241.091 3789.33 242.313 3788.06 243.942L3583.32 164.02C3584.01 162.652 3584.42 161.216 3584.07 159.734C3583.13 155.912 3578.64 153.776 3573.93 154.92C3570.8 155.642 3568.46 157.75 3567.53 160.193L3242.36 128.56C3242.45 127.847 3242.57 127.212 3242.42 126.509C3241.52 122.764 3236.99 120.551 3232.28 121.695C3227.66 122.796 3224.56 126.787 3225.5 130.609C3225.77 131.74 3226.43 132.697 3227.25 133.491L2988.72 349.828C2986.78 348.767 2984.34 348.318 2981.75 348.9C2977.47 349.947 2974.73 353.293 2974.97 356.75L2594.22 442.546C2592.96 439.25 2588.84 437.335 2584.46 438.426C2581.48 439.181 2579.29 441.125 2578.27 443.414L2199.28 396.236C2199.36 395.523 2199.45 394.811 2199.25 394.031C2198.35 390.286 2193.82 388.073 2189.11 389.217C2184.49 390.318 2181.39 394.309 2182.28 398.054C2182.51 399.108 2183.13 399.989 2183.8 400.748L2059.37 498.457C2057.45 497.001 2054.64 496.331 2051.75 497.044C2048.1 497.907 2045.59 500.573 2045.01 503.435L1710.51 517.821C1710.48 517.546 1710.54 517.228 1710.51 516.954C1709.61 513.209 1705.08 510.997 1700.37 512.14C1695.75 513.241 1692.65 517.233 1693.59 521.054C1693.85 522.383 1694.79 523.407 1695.89 524.267L1446.66 788.297C1444.85 787.467 1442.64 787.206 1440.28 787.777C1436.87 788.63 1434.37 790.902 1433.57 793.576L1078.95 785.049C1078.93 784.578 1079.05 784.139 1079.03 783.667C1078.09 779.845 1073.59 777.71 1068.88 778.854C1064.27 779.954 1061.16 783.946 1062.1 787.768C1062.5 789.327 1063.53 790.505 1064.9 791.432L904.828 987.133C903.107 986.457 901.031 986.229 898.87 986.714C894.255 987.815 891.151 991.807 892.091 995.628C892.364 996.759 892.983 997.64 893.796 998.433L631.106 1232.14C629.168 1231.08 626.679 1230.55 624.129 1231.21C619.515 1232.31 616.411 1236.3 617.351 1240.12C617.864 1242.11 619.349 1243.67 621.395 1244.49L574.696 1329.78L251.151 1475.31C249.328 1472.94 245.875 1471.79 242.266 1472.73C237.652 1473.83 234.548 1477.82 235.487 1481.64C235.761 1482.77 236.379 1483.65 237.192 1484.45L-36.4365 1732.2C-38.3748 1731.14 -40.8195 1730.69 -43.2725 1731.31C-47.8869 1732.41 -50.9911 1736.4 -50.0514 1740.22C-49.0373 1743.53 -44.5443 1745.67 -39.7893 1744.6ZM3787.59 251.094L3455.96 457.794C3455.24 457.154 3454.32 456.602 3453.29 456.291L3573.77 168.875C3574.95 169.022 3576.14 168.972 3577.29 168.648C3579.55 168.119 3581.52 166.854 3582.69 165.268L3787.42 245.19C3786.74 246.559 3786.33 247.995 3786.68 249.477C3786.89 250.059 3787.29 250.555 3787.59 251.094ZM896.481 999.738C897.596 1000.2 898.872 1000.31 900.105 1000.33L912.498 1173.93C909.95 1175.45 908.583 1177.99 908.741 1180.43L703.429 1221.57L896.481 999.738ZM1703.84 525.627C1704.8 525.39 1705.53 524.965 1706.31 524.617L1933.79 762.605C1931.75 764.385 1930.63 766.717 1931.13 769.1L1728.72 828.323C1727.52 825.773 1724.71 824.237 1721.33 824.3L1703.55 525.758C1703.64 525.714 1703.74 525.671 1703.84 525.627ZM2055.13 510.574C2056.62 510.196 2057.89 509.433 2058.98 508.56L2317.8 682.779C2316.73 684.124 2316.27 685.68 2316.33 687.293L1947.74 764.658C1947.03 762.757 1945.39 761.368 1943.29 760.668L2051.32 510.734C2052.64 510.915 2053.83 510.865 2055.13 510.574ZM3571.9 168.362L3451.42 455.778C3450.24 455.631 3449.05 455.681 3447.85 455.929C3446.89 456.166 3446.01 456.557 3445.18 457.026L3329.55 330.685C3331.82 328.894 3333.15 326.278 3332.57 323.741C3332.41 323.038 3331.93 322.389 3331.58 321.773L3569.32 166.816C3570.09 167.532 3570.87 168.051 3571.9 168.362ZM3256.81 780.985L2991.21 708.628C2991.6 707.587 2991.8 706.436 2991.53 705.305L3191.67 644.876C3193.08 648.009 3197.07 649.693 3201.25 648.689C3201.45 648.602 3201.64 648.515 3201.84 648.428L3260.78 777.666C3259.08 778.526 3257.74 779.607 3256.81 780.985ZM2588.87 1249.71L2515.23 1028.02C2519.02 1026.52 2521.47 1023.11 2520.65 1019.71C2520.61 1019.64 2520.57 1019.56 2520.48 1019.41L2707.58 953.34C2708.45 954.88 2709.77 955.928 2711.59 956.56L2591.97 1249.38C2591.07 1249.3 2589.93 1249.42 2588.87 1249.71ZM2214.09 1103.65C2213.88 1103.07 2213.67 1102.49 2213.32 1102.07L2326.73 1010.06L2503.92 1021.99C2503.9 1022.39 2503.82 1022.9 2503.9 1023.26L2214.09 1103.65ZM694.672 1584.82C693.232 1584.21 691.534 1584.01 689.815 1584.2L640.48 1311.73L872.475 1395.94L694.672 1584.82ZM439.963 1582.89C438.994 1584.19 438.63 1585.7 438.883 1587.23L153.397 1655.66C153.354 1655.58 153.31 1655.51 153.223 1655.35L372.605 1547.46L439.963 1582.89ZM152.398 1653.89C151.682 1653.05 150.718 1652.42 149.603 1651.96L241.056 1485.9C242.463 1486.23 244.021 1486.4 245.609 1485.98C247.533 1485.51 249.152 1484.49 250.306 1483.3L370.656 1546.6L152.398 1653.89ZM148.197 1651.62C146.79 1651.29 145.233 1651.12 143.644 1651.54C139.03 1652.64 135.926 1656.63 136.866 1660.45C136.899 1660.73 137.17 1660.99 137.3 1661.22L122.783 1667.43L232.773 1498.18L148.197 1651.62ZM137.724 1662.19C137.811 1662.34 137.844 1662.62 138.028 1662.73L115.825 1677.97L121.608 1669.02L137.724 1662.19ZM485.666 1496.69C486.986 1496.87 488.262 1496.97 489.656 1496.64C490.715 1496.36 491.687 1495.92 492.616 1495.41L456.045 1566.73L485.666 1496.69ZM496.424 1487.92C496.381 1487.84 496.478 1487.8 496.435 1487.72C495.998 1486.09 494.88 1484.76 493.31 1483.92L508.851 1463.56L496.424 1487.92ZM484.682 1496.45L449.707 1579.01C448.388 1578.83 447.111 1578.73 445.717 1579.06C443.794 1579.54 442.272 1580.51 441.021 1581.74L374.214 1546.65L480.859 1494.21C481.749 1495.36 483.091 1496.01 484.682 1496.45ZM48.9579 1724.95L110.593 1682.72L92.5834 1710.35L49.349 1725.64C49.1214 1725.45 49.0882 1725.18 48.9579 1724.95ZM50.1644 1727.3L90.9788 1712.9L60.8425 1759.16C59.2953 1758.79 57.6942 1758.54 55.9113 1759.05C55.5762 1759.11 55.4253 1759.27 55.2309 1759.36L44.8437 1735.56C48.581 1733.99 50.9406 1730.62 50.1644 1727.3ZM93.7874 1711.83L103.846 1708.3L65.7085 1755.05L93.7874 1711.83ZM95.4359 1709.36L114.435 1680.03L138.754 1663.37C139.025 1663.63 139.437 1663.93 139.805 1664.15L105.979 1705.61L95.4359 1709.36ZM140.769 1664.78C142.533 1665.53 144.751 1665.8 146.913 1665.31C151.289 1664.22 154.08 1660.75 153.649 1657.19L432.359 1590.34L107.957 1705.01L140.769 1664.78ZM495.522 1494.3L503.155 1498.12L457.197 1569.2L495.522 1494.3ZM496.157 1493.06L516.126 1454.23L616.536 1323.02L503.93 1496.9L496.157 1493.06ZM1101.56 967.668C1102.81 968.167 1104.27 968.381 1105.8 968.278L1120.39 1134.33L1073.33 1144.58L1002.6 1082.04L1101.56 967.668ZM1931.64 770.221C1932.37 771.727 1933.54 772.938 1935.16 773.658L1875.87 888.208L1728.6 833.293C1729.14 832.088 1729.49 830.773 1729.23 829.444L1931.64 770.221ZM2316.67 688.973C2317.05 689.863 2317.48 690.633 2318.21 691.272L2120.3 875.168L1946.86 770.447C1947.74 769.189 1948.14 767.753 1948.08 766.338L2316.67 688.973ZM3191.15 643.086C3191.18 643.36 3191.07 643.601 3191.21 643.832L2991.01 704.184C2989.91 701.788 2987.33 700.241 2984.25 700.174L2984.29 651.078L3191.15 643.086ZM2204.47 1099.76C2203.94 1099.9 2203.49 1100.2 2202.91 1100.46L2141.25 1002.22C2143.11 1001.2 2144.42 999.646 2145.03 997.926L2232.87 1003.85L2207.32 1099.64C2206.42 1099.56 2205.47 1099.6 2204.47 1099.76ZM1875.13 889.698L1783.53 1066.72L1723.63 837.639C1725.32 836.977 1726.75 836.05 1727.76 834.825L1875.13 889.698ZM2238.71 952.063L2165.56 951.24L2186.23 917.115L2239.98 949.567C2239.32 950.343 2238.85 951.23 2238.71 952.063ZM2238.65 953.248C2238.67 953.719 2238.5 954.278 2238.66 954.784C2238.71 954.861 2238.75 954.938 2238.79 955.015L2144.42 992.515C2143.75 991.558 2142.94 990.765 2141.92 990.256L2164.88 952.411L2238.65 953.248ZM2139.91 989.71C2138.5 989.375 2136.95 989.204 2135.26 989.669C2134.4 989.863 2133.76 990.245 2133.08 990.549L2099.6 951.729L2162.46 952.434L2139.91 989.71ZM2047.28 945.537L2072.03 922.511L2096.1 950.497L2049.04 949.955C2049.12 949.439 2049.19 948.924 2049.03 948.419C2048.75 947.288 2048.09 946.331 2047.28 945.537ZM2045.77 944.379C2043.88 943.395 2041.43 942.946 2038.98 943.562C2038.65 943.615 2038.3 943.866 2038.01 943.997L1944.3 774.101L2070.87 921.102L2045.77 944.379ZM2049.08 951.096L2097.13 951.675L2131.46 991.563C2131.06 991.934 2130.52 992.272 2130.16 992.72L2047.96 953.428C2048.52 952.695 2048.84 951.973 2049.08 951.096ZM2255.41 950.375L2531.28 840.741C2531.41 840.972 2531.4 841.17 2531.62 841.357L2359.28 981.231L2255.36 954.16C2255.7 953.043 2255.9 951.891 2255.63 950.76C2255.54 950.606 2255.36 950.496 2255.41 950.375ZM2245.49 945.947C2243.85 946.291 2242.53 947.175 2241.38 948.168L2187.27 915.496L2321.96 693.164C2321.96 693.164 2321.96 693.164 2322 693.24L2248.3 945.75C2247.3 945.713 2246.45 945.709 2245.49 945.947ZM2319.94 692.618L2185.47 914.468L2121.92 876.086L2319.67 692.353C2319.76 692.507 2319.8 692.584 2319.94 692.618ZM2184.48 916.165L2163.14 951.263L2098.57 950.551L2073.37 921.232L2120.42 877.528L2184.48 916.165ZM2072.21 919.823L1945.16 772.174C1945.26 772.13 1945.41 771.966 1945.46 771.846L2118.86 876.49L2072.21 919.823ZM1941.26 774.111C1941.6 774.057 1941.94 773.806 1942.23 773.676L2036.51 944.572C2035.38 945.171 2034.35 945.924 2033.54 946.864L1877.83 888.875L1937.17 774.204C1938.49 774.385 1939.87 774.445 1941.26 774.111ZM2032.84 948.43C2032.25 949.755 2031.9 951.07 2032.2 952.476C2032.37 952.981 2032.72 953.399 2032.94 953.784L1789.04 1087.68L1784.29 1069.56L1877.09 890.364L2032.84 948.43ZM1781.95 1069.74L1769.55 1093.71C1768.75 1093.58 1767.79 1093.62 1766.84 1093.66L1725.81 854.884L1781.95 1069.74ZM1774.99 1097.53C1774.95 1097.46 1774.86 1097.3 1774.82 1097.23L1787.38 1090.36L1788.24 1093.83L1774.99 1097.53ZM1774.08 1095.92C1773.41 1095.16 1772.49 1094.61 1771.56 1094.25L1782.75 1072.66L1787.03 1088.87L1774.08 1095.92ZM1741.22 1086.23L1491.95 957.393L1491.81 947.233L1500.15 943.021L1741.22 1086.23ZM1205.28 1372.09L1067.25 1279.2L1122.83 1199.28C1124.47 1199.8 1126.26 1199.96 1128.09 1199.53C1128.29 1199.44 1128.48 1199.36 1128.67 1199.27L1210.1 1372.64L1205.28 1372.09ZM934.022 1340.83C934.107 1340.12 934.191 1339.4 934.038 1338.7C933.755 1337.77 933.32 1337 932.789 1336.27L943.7 1328.21L946.288 1342.28L934.022 1340.83ZM922.775 1184.37L1034.53 1259.61L989.776 1292.6L945.023 1325.59L919.363 1186.09C920.714 1185.68 921.836 1185.08 922.775 1184.37ZM1121.16 1198.68L1065.88 1278.27L1037.4 1259.1L1120.25 1197.93C1120.56 1198.27 1120.83 1198.54 1121.16 1198.68ZM1117.95 1192.79C1117.82 1193.42 1117.84 1194.09 1117.95 1194.72C1118.23 1195.65 1118.66 1196.42 1119.2 1197.15L1036.25 1258.36L924.318 1183C924.879 1182.27 925.352 1181.38 925.631 1180.58L1117.95 1192.79ZM943.491 1326.76L931.738 1335.49C930.232 1334.33 928.413 1333.7 926.273 1333.79L925.265 1320.36L918.555 1191.56L943.491 1326.76ZM945.373 1327.07L990.595 1293.73L1035.82 1260.39L1064.85 1279.89L1015.93 1350.27L948.224 1342.48L945.373 1327.07ZM1066.08 1280.78L1201.09 1371.56L1017.73 1350.43L1066.08 1280.78ZM1253.76 1107.25L1338.89 1088.73C1338.98 1088.89 1339.02 1088.96 1339.11 1089.12L1135.7 1187.35L1253.76 1107.25ZM1474.04 957.594L1395.74 1036.3L1466.12 962.971L1474.04 957.594ZM1487.55 955.213C1488.53 953.714 1489.05 952.038 1488.57 950.324C1488.45 949.896 1488.13 949.555 1487.92 949.17L1489.91 948.18L1490 956.529L1487.55 955.213ZM1489.9 946.643L1487.32 947.895C1486.6 947.058 1485.78 946.462 1484.76 945.953L1486.82 942.912C1487.75 943.267 1488.79 943.381 1489.92 943.451L1489.9 946.643ZM1485.75 942.524C1485.89 942.557 1485.97 942.711 1486.11 942.744L1484.06 945.786C1483.73 945.642 1483.31 945.542 1482.89 945.441L1485.75 942.524ZM1472.69 956.272L1472.34 956.523L1472.64 956.195C1472.64 956.195 1472.64 956.195 1472.69 956.272ZM1461 966.417L1352.03 1079.87C1351.52 1079.61 1350.81 1079.44 1350.21 1079.23L1365.93 1030.94L1461 966.417ZM1348.37 1079C1347.37 1078.96 1346.42 1079 1345.42 1079.16C1343.49 1079.63 1341.97 1080.6 1340.72 1081.84L1312.53 1067.26L1363.41 1032.74L1348.37 1079ZM1339.65 1083.18C1338.88 1084.4 1338.53 1085.71 1338.55 1087.05L1257.75 1104.6L1311.09 1068.39L1339.65 1083.18ZM1355.44 1085.48C1355.41 1085 1355.53 1084.57 1355.47 1084.02C1355.16 1082.61 1354.22 1081.59 1353.12 1080.73L1475.01 958.223C1476.29 958.997 1477.9 959.245 1479.6 959.251L1486.31 1089.98L1355.44 1085.48ZM1491.8 945.697L1491.78 943.294C1492.02 943.284 1492.26 943.274 1492.5 943.264C1494.22 942.876 1495.55 941.993 1496.79 940.955L1498.96 942.204L1491.8 945.697ZM1484.7 941.74L1481.33 945.27C1480.57 945.223 1479.9 945.33 1479.23 945.437L1477.43 938.145L1482.34 937.781C1482.33 937.978 1482.32 938.176 1482.35 938.45C1482.61 939.779 1483.6 940.88 1484.7 941.74ZM1472.05 954.92L1467.32 959.926L1366.92 1028.18L1390.67 955.27L1471.75 953.317C1471.83 953.668 1471.62 953.953 1471.7 954.304C1471.73 954.579 1471.96 954.766 1472.05 954.92ZM1248.87 1108.28L1132.53 1187.33C1130.98 1186.09 1128.92 1185.47 1126.68 1185.6L1122.3 1135.79L1248.87 1108.28ZM1124.87 1185.84C1124.77 1185.88 1124.73 1185.8 1124.63 1185.85C1123.43 1186.09 1122.36 1186.57 1121.38 1187.2L1074.92 1146.09L1120.48 1136.22L1124.87 1185.84ZM1120.13 1188.44C1119.18 1189.35 1118.45 1190.44 1118.01 1191.6L925.596 1179.44C925.66 1179.13 925.627 1178.85 925.594 1178.58L1072.75 1146.58L1120.13 1188.44ZM933.551 1342.58L934.211 1342.67L946.704 1344.32L960.828 1421.11L960.731 1421.15L928.858 1347C931.094 1346 932.745 1344.39 933.551 1342.58ZM1492 1207.27C1490.71 1207.56 1489.58 1208.16 1488.6 1208.79L1353.04 1090.5C1354.08 1089.55 1354.85 1088.53 1355.25 1087.3L1486.5 1091.82L1492.48 1207.25C1492.24 1207.26 1492.1 1207.23 1492 1207.27ZM1775.54 1099.8C1775.51 1099.52 1775.52 1099.33 1775.53 1099.13L1788.68 1095.46L1789.82 1100.06L1775.54 1099.8ZM2145.41 996.216C2145.44 995.624 2145.61 995.065 2145.4 994.483C2145.36 994.406 2145.27 994.252 2145.23 994.175L2239.61 956.675C2240.62 958.248 2242.46 959.352 2244.62 959.734L2233.39 1002.17L2145.41 996.216ZM2361.53 981.767L2533.13 842.515C2534.24 843.178 2535.44 843.797 2536.95 843.891L2512.61 1014.73C2511.99 1014.72 2511.37 1014.71 2510.7 1014.81C2508.01 1015.44 2506.03 1017.1 2504.88 1018.96L2361.53 981.767ZM2513.99 1014.6L2538.33 843.754C2538.95 843.767 2539.57 843.781 2540.24 843.674C2541.97 843.286 2543.29 842.403 2544.44 841.409L2637.54 901.086L2517.26 1015.64C2516.34 1015.09 2515.17 1014.74 2513.99 1014.6ZM2713.66 943.195C2711.94 943.583 2710.61 944.466 2709.46 945.46L2640.2 901.053L2768.13 779.123L2716.57 942.954C2715.72 942.951 2714.77 942.991 2713.66 943.195ZM2771.02 776.48L2790.1 758.301C2790.47 758.522 2790.89 758.622 2791.32 758.723C2791.46 758.756 2791.6 758.79 2791.69 758.944L2722.66 930.011L2771.02 776.48ZM2795.53 745.267C2794.82 745.297 2794.2 745.284 2793.53 745.391C2793.1 745.488 2792.66 745.782 2792.27 745.956L2784.38 734.35L2806.06 665.352L2795.53 745.267ZM2790.13 746.913C2787.47 748.68 2786.04 751.537 2786.66 754.348C2786.66 754.348 2786.66 754.348 2786.7 754.425L2776.94 757.633L2783.38 737.11L2790.13 746.913ZM2787.31 755.503C2787.66 756.119 2788 756.735 2788.5 757.186L2772.12 772.809L2776.4 759.035L2787.31 755.503ZM2975.09 705.524C2974.7 706.564 2974.55 707.595 2974.64 708.616L2816.78 746.462C2815.58 743.045 2811.42 741.053 2806.94 742.187C2804.25 742.812 2802.27 744.472 2801.13 746.332C2800.8 746.188 2800.42 746.165 2800.1 746.021C2799.08 745.512 2797.91 745.167 2796.68 745.14L2807.37 663.997C2808.08 663.967 2808.7 663.981 2809.37 663.874C2812.06 663.248 2813.99 661.709 2815.19 659.728L2975.09 705.524ZM2774.31 759.872L2769.41 775.562L2638.68 900.092L2545.58 840.415C2546.95 838.742 2547.53 836.748 2547.16 834.793C2547.16 834.793 2547.16 834.793 2547.11 834.716L2774.31 759.872ZM1721.03 838.221L1765.07 1093.97C1763.62 1094.43 1762.35 1095.19 1761.26 1096.06L1502.15 942.03L1713.72 835.613C1715.18 837.561 1718.03 838.505 1721.03 838.221ZM1364.32 1029.82L1310.53 1066.32L1113.27 964.26C1113.73 963.57 1114.11 962.727 1114.29 961.971L1388.53 955.36L1364.32 1029.82ZM1107.7 968.198C1109.62 967.723 1111.14 966.753 1112.4 965.518L1309.15 1067.33L1252.81 1105.55L1122.02 1133.99L1107.46 968.208C1107.56 968.164 1107.6 968.241 1107.7 968.198ZM916.877 1186.43L920.264 1250.67L915.688 1186.48C916.11 1186.58 916.542 1186.48 916.877 1186.43ZM917.186 1340.55C917.101 1341.27 916.962 1342.1 917.115 1342.8C917.378 1344.13 918.322 1345.15 919.416 1346.01L884.94 1382.65L782.619 1324.98L917.186 1340.55ZM962.601 1420.79L948.543 1344.55L1013.83 1353.23L966.57 1421.14C965.358 1420.72 963.984 1420.66 962.601 1420.79ZM1204.25 1373.71L1206.96 1375.49C1206.55 1376.06 1206.28 1376.66 1206.01 1377.26L1016.98 1352.12L1204.25 1373.71ZM1221.18 1373.94L1220.01 1373.8C1219.37 1373.31 1218.63 1372.87 1217.88 1372.62L1244.27 1314.54L1272.71 1343.56L1221.18 1373.94ZM1216.11 1372.07C1214.93 1371.92 1213.6 1371.94 1212.3 1372.23C1212.11 1372.32 1211.91 1372.4 1211.72 1372.49L1130.04 1198.66C1130.23 1198.57 1130.52 1198.44 1130.72 1198.36L1242.93 1313.02L1216.11 1372.07ZM1132.1 1197.35C1133.24 1196.36 1134.1 1195.3 1134.5 1194.06L1292.75 1203.28L1243.62 1311.46L1132.1 1197.35ZM1134.78 1192.39C1134.81 1191.8 1134.88 1191.29 1134.82 1190.74C1134.7 1190.31 1134.42 1190.04 1134.21 1189.66L1339.71 1090.39C1340.55 1091.46 1341.7 1092.2 1343.05 1092.65L1293.55 1201.67L1134.78 1192.39ZM1344.88 1093.09C1345.02 1093.12 1345.16 1093.16 1345.3 1093.19L1333.54 1203.93L1295.54 1201.75L1344.88 1093.09ZM1347.26 1092.99C1347.73 1092.97 1348.25 1093.03 1348.64 1092.85C1349.94 1092.56 1351.06 1091.96 1352.05 1091.33L1487.61 1209.62C1486.66 1210.53 1485.9 1211.55 1485.55 1212.67L1335.49 1203.93L1347.26 1092.99ZM1488.25 1091.91L1491.47 1092.01L1492.26 1169.55L1488.25 1091.91ZM1488.16 1090.02L1481.37 959.138C1481.46 959.094 1481.6 959.128 1481.7 959.084C1483.1 958.75 1484.41 958.064 1485.41 957.234L1489.99 960.391L1491.34 1090.04L1488.16 1090.02ZM1492 961.803L1686.36 1096.89L1493.37 1090.19L1492 961.803ZM1492.86 959.876L1759.65 1097.75C1759.34 1098.27 1759.03 1098.8 1758.86 1099.36L1690.2 1097L1492.86 959.876ZM1775.39 1101.69L1790.34 1101.85L1810.04 1177.31C1810.04 1177.31 1810.04 1177.31 1809.94 1177.35L1770.82 1106.54C1773.21 1105.37 1774.82 1103.69 1775.39 1101.69ZM1792.24 1100.04L1790.85 1094.78L1939.42 1052.99L1892.13 1101.43L1792.24 1100.04ZM1790.41 1093.14L1789.39 1089.17L2033.68 955.093C2033.91 955.28 2034.13 955.468 2034.36 955.655L1941.63 1050.65L1790.41 1093.14ZM2035.78 956.659C2037.63 957.566 2039.99 957.861 2042.35 957.289C2043.5 956.965 2044.52 956.607 2045.4 956.018L2098.79 1006.37L1944.87 1049.69L2035.78 956.659ZM2046.5 954.947C2046.85 954.696 2047.1 954.489 2047.3 954.205L2129.51 993.497C2128.58 994.875 2128.22 996.388 2128.42 998.034L2100.38 1005.95L2046.5 954.947ZM2129.05 999.584C2129.13 999.738 2129.18 999.815 2129.26 999.969L2107.49 1012.51L2101.83 1007.23L2129.05 999.584ZM2130.28 1001.34C2132.22 1003.27 2135.36 1004.09 2138.63 1003.4C2139.16 1003.26 2139.6 1002.96 2140.08 1002.74L2201.74 1100.98C2201.55 1101.07 2201.45 1101.11 2201.35 1101.15L2108.8 1013.75L2130.28 1001.34ZM2234.62 1002.2L2245.9 959.838C2246.8 959.918 2247.75 959.878 2248.71 959.641C2251.4 959.015 2253.39 957.356 2254.53 955.495L2357.7 982.322L2325.63 1008.34L2234.62 1002.2ZM2360.09 982.891L2503.91 1020.26L2328.52 1008.49L2360.09 982.891ZM2518.86 1016.76L2639.2 902.08L2708.46 946.487C2707.09 948.16 2706.51 950.155 2706.89 952.109C2706.93 952.186 2706.97 952.263 2707.06 952.417L2520.05 1018.44C2519.66 1017.75 2519.36 1017.21 2518.86 1016.76ZM2718.78 943.413L2792.99 759.322C2794.44 759.734 2796.1 759.861 2797.78 759.396C2798.22 759.299 2798.56 759.049 2798.95 758.875L2845.22 830.923L2720.55 943.969C2720.09 943.792 2719.48 943.581 2718.78 943.413ZM2800.98 758.159C2802.16 757.439 2803.02 756.379 2803.74 755.285C2805.59 756.192 2807.91 756.409 2810.31 755.915C2814.73 754.901 2817.63 751.194 2817.06 747.593L2974.92 709.747C2975.2 710.681 2975.73 711.407 2976.46 712.046L2846.91 829.592L2800.98 758.159ZM2982.01 700.307C2981.77 700.317 2981.63 700.284 2981.44 700.371C2978.84 700.953 2976.81 702.535 2975.62 704.516L2815.66 658.842C2815.82 658.48 2815.98 658.119 2816.1 657.68L2982.1 651.289L2982.01 700.307ZM2804.58 663.8L2783.01 732.358L2755.94 692.599L2801.39 662.24C2802.3 662.989 2803.31 663.498 2804.58 663.8ZM2782.11 735.076L2774.83 758.195L2546.42 833.485C2546.29 833.254 2546.25 832.979 2546.03 832.792L2754.07 693.82L2782.11 735.076ZM2530.19 838.817C2530.23 838.894 2530.32 839.048 2530.36 839.125L2254.5 948.759C2253.48 947.383 2251.96 946.423 2249.99 945.954L2323.7 693.445C2324.55 693.448 2325.55 693.485 2326.51 693.248C2328 692.87 2329.27 692.107 2330.41 691.311L2531.92 833.031C2530.41 834.671 2529.68 836.829 2530.19 838.817ZM1500.62 941.267L1497.9 939.687C1499.08 938.101 1499.6 936.227 1499.18 934.393C1499.1 934.042 1498.83 933.778 1498.66 933.47L1688.74 846.593L1500.62 941.267ZM1482.38 936.125L1477.09 936.465L1446.18 808.372L1487.96 930.058C1484.82 931.175 1482.71 933.471 1482.38 936.125ZM1443.04 801.294L1475.66 936.525L1394.98 941.771L1440.71 801.471C1441.42 801.441 1442.23 801.368 1443.04 801.294ZM1476 938.205L1477.84 945.772C1474.61 946.735 1472.26 949.04 1471.69 951.704L1391.08 953.637L1394.37 943.491L1476 938.205ZM1389.18 953.717L1146.93 959.613L1392.41 943.692L1389.18 953.717ZM1071.17 1145.07L925.405 1176.73C924.991 1175.57 924.232 1174.65 923.084 1173.91L1001.43 1083.42L1071.17 1145.07ZM921.752 1173.06C920.453 1172.49 918.939 1172.39 917.371 1172.42L903.274 1013.28L902.299 1000.12C902.299 1000.12 902.299 1000.12 902.396 1000.08C903.596 999.833 904.665 999.354 905.648 998.722L1000.35 1082.37L921.752 1173.06ZM915.89 1172.6C915.793 1172.65 915.652 1172.61 915.555 1172.66C915.22 1172.71 914.972 1172.92 914.68 1173.05L909.477 1100.85L915.89 1172.6ZM913.481 1186.02L924.035 1333.92C924.035 1333.92 924.035 1333.92 923.937 1333.97C921.582 1334.54 919.66 1335.88 918.389 1337.51L716.99 1268.24L909.765 1183.54C910.655 1184.68 911.944 1185.45 913.481 1186.02ZM917.7 1338.88C917.603 1338.92 917.646 1339 917.549 1339.04L779.208 1323.03L697.224 1276.8L714.71 1269.17L917.7 1338.88ZM631.954 1242.27L666.075 1261.52L637.44 1294.48L628.38 1244.35C629.73 1243.94 631.004 1243.17 631.954 1242.27ZM667.829 1262.47L693.418 1276.96L638.57 1301.01L637.835 1296.91L667.829 1262.47ZM636.529 1301.93L635.751 1302.27C635.35 1301.78 634.852 1301.33 634.397 1300.95L636.014 1299.07L636.529 1301.93ZM630.783 1312.88C632.717 1312.21 634.336 1311.2 635.403 1309.85L638.152 1310.84L677.979 1530.88L630.783 1312.88ZM636.199 1308.24C636.253 1308.12 636.35 1308.08 636.306 1308L637.583 1308.11L637.693 1308.73L636.199 1308.24ZM636.811 1306.52C636.896 1305.81 637.034 1304.98 636.881 1304.28C636.848 1304 636.62 1303.81 636.49 1303.58L636.782 1303.45L637.374 1306.66L636.811 1306.52ZM638.823 1302.54L695.032 1277.87L774.157 1322.5L639.591 1306.92L638.823 1302.54ZM695.751 1275.91L669.144 1260.92L674.147 1255.11L712.805 1268.38L695.751 1275.91ZM667.39 1259.97L635.066 1241.74L672.091 1254.49L667.39 1259.97ZM635.477 1296.61L632.599 1299.92C631.343 1299.43 630.024 1299.24 628.596 1299.3L626.867 1248.79L635.477 1296.61ZM886.554 1383.57L920.879 1347.1C922.687 1347.93 924.904 1348.19 927.26 1347.62C927.454 1347.53 927.649 1347.44 927.843 1347.35L959.716 1421.51C958.646 1421.98 957.815 1422.45 957.016 1423.2L886.554 1383.57ZM1273.83 1344.7L1309.44 1381.03C1308.45 1381.86 1307.78 1382.83 1307.29 1383.91L1223.82 1374.31L1273.83 1344.7ZM1812.25 1176.7L1792.66 1101.87L1890.23 1103.25L1817.77 1177.41C1816.24 1176.65 1814.31 1176.46 1812.25 1176.7ZM2208.6 1099.74L2234.11 1003.87L2323.84 1009.91L2211.71 1100.95C2210.75 1100.32 2209.82 1099.97 2208.6 1099.74ZM2985.16 362.508C2985.79 362.324 2986.23 362.029 2986.82 361.768L3194.38 636.725C3192.75 637.936 3191.48 639.565 3191.14 641.352L2984.19 649.388L2984.59 362.571C2984.69 362.528 2984.93 362.518 2985.16 362.508ZM625.128 1313C626.297 1313.35 627.53 1313.38 628.914 1313.24L687.61 1584.61C685.968 1585.15 684.64 1586.03 683.54 1587.1L505.5 1497.74L625.128 1313ZM640.161 1309.65L639.941 1308.4L777.622 1324.32L883.679 1384.08L873.93 1394.42L640.161 1309.65ZM885.195 1385.04L952.702 1423.1L875.652 1395.1L885.195 1385.04ZM971.328 1425.47C970.891 1423.83 969.677 1422.55 968.15 1421.78L1015.57 1353.51L1205.51 1378.74C1205.39 1379.18 1205.51 1379.61 1205.53 1380.08L971.328 1425.47ZM1221.71 1375.73L1289.04 1383.5L1222.43 1379.17C1222.52 1378.46 1222.6 1377.75 1222.45 1377.04C1222.28 1376.54 1221.97 1376.2 1221.71 1375.73ZM1313.54 1378.81C1312.58 1379.04 1311.61 1379.48 1310.78 1379.95L1275.36 1343.73L1321.49 1316.53L1314.93 1378.67C1314.49 1378.77 1313.97 1378.71 1313.54 1378.81ZM1274.23 1342.59L1245.08 1312.73L1294.8 1203.23L1333.32 1205.48L1321.69 1314.51L1274.23 1342.59ZM1335.25 1205.67L1485.18 1214.38C1485.15 1214.97 1485.07 1215.48 1485.14 1216.03C1485.25 1216.66 1485.61 1217.08 1485.91 1217.61L1323.7 1313.33L1335.25 1205.67ZM1494.44 1207.05L1493.18 1092.01L1688.87 1098.75L1718.96 1119.71L1500.97 1210.2C1499.74 1208.25 1497.38 1207.09 1494.44 1207.05ZM1692.89 1098.98L1758.61 1101.3C1758.63 1101.77 1758.52 1102.21 1758.58 1102.76C1758.62 1103.03 1758.8 1103.14 1758.93 1103.37L1721.43 1118.9L1692.89 1098.98ZM1759.54 1104.45C1761.25 1107.06 1764.89 1108.32 1768.64 1107.42C1769.07 1107.32 1769.42 1107.07 1769.81 1106.89L1808.93 1177.71C1808.34 1177.97 1807.9 1178.26 1807.46 1178.56L1722.72 1119.67L1759.54 1104.45ZM1819.09 1178.46L1892.56 1103.27L1949.01 1104.04L1819.55 1178.84C1819.46 1178.68 1819.28 1178.57 1819.09 1178.46ZM1894.32 1101.42L1942.56 1052.07L2100.14 1007.69L2106.11 1013.31L1952.14 1102.26L1894.32 1101.42ZM2107.43 1014.56L2200.21 1102.15C2199.07 1103.14 2198.15 1104.32 2197.8 1105.64L1955.46 1102.32L2107.43 1014.56ZM2722.1 945.204L2846.27 832.573L2980.16 1041.28C2979.27 1041.87 2978.47 1042.61 2977.82 1043.39L2723.31 952.088C2723.9 950.763 2724.26 949.448 2723.95 948.042C2723.54 946.877 2722.92 945.997 2722.1 945.204ZM2983.17 1039.94C2982.74 1040.03 2982.39 1040.28 2982 1040.46L2847.77 831.131L2977.82 713.171C2979.07 713.867 2980.48 714.202 2982.09 714.252L2983.74 1039.87C2983.65 1039.92 2983.36 1039.85 2983.17 1039.94ZM3203.23 635.367L3322.4 332.916C3323.44 333.029 3324.63 332.979 3325.79 332.655C3326.75 332.418 3327.62 332.026 3328.46 331.558L3444.09 457.899C3441.81 459.689 3440.49 462.306 3441.07 464.843C3441.31 465.699 3441.7 466.392 3442.23 467.118L3205.63 636.606C3204.95 636.044 3204.21 635.602 3203.23 635.367ZM3320.53 332.403L3201.31 634.778C3200.28 634.664 3199.09 634.714 3197.93 635.039C3197.3 635.223 3196.86 635.517 3196.28 635.778L2988.72 360.821C2990.54 359.523 2991.68 357.663 2991.93 355.722L3315.72 327.326C3315.71 327.524 3315.65 327.644 3315.74 327.798C3316.29 330.06 3318.15 331.637 3320.53 332.403ZM2982.35 362.705L2982.05 649.478L2816.1 655.947C2816.06 655.673 2816.17 655.432 2816.09 655.08C2815.62 653.169 2814.28 651.65 2812.47 650.82L2980.66 362.5C2981.17 362.557 2981.74 362.691 2982.35 362.705ZM2799.23 659.06C2799.42 659.84 2799.87 660.412 2800.21 661.028L2754.96 691.3L2592.37 452.435L2801.65 652.575C2799.75 654.389 2798.64 656.721 2799.23 659.06ZM2587.74 451.999C2588.17 451.902 2588.62 451.608 2589.01 451.434L2753.1 692.522L2544.86 831.581C2542.95 829.927 2539.95 829.147 2536.93 829.826C2535.43 830.204 2534.16 830.967 2533.07 831.84L2331.56 690.12C2333.03 688.403 2333.7 686.365 2333.29 684.334C2333.01 683.203 2332.35 682.245 2331.4 681.419L2580.91 451.105C2582.84 452.166 2585.29 452.615 2587.74 451.999ZM1712.79 834.194L1498.14 932.349C1496.42 929.939 1492.83 928.75 1489.13 929.536L1444.92 800.742C1447.34 799.852 1449.19 798.159 1450 796.155L1712.35 830.824C1712.21 831.657 1712.17 832.447 1712.37 833.227C1712.35 833.622 1712.62 833.886 1712.79 834.194ZM1438.88 801.036L1392.98 941.895L1114.39 959.996C1114.4 959.799 1114.41 959.602 1114.38 959.327C1114.3 958.976 1114.03 958.711 1113.82 958.327L1434.72 798.847C1435.85 799.981 1437.33 800.667 1438.88 801.036ZM1100.22 966.818L1001.41 1081.02L906.942 997.564C908.344 996.166 909.194 994.436 909.2 992.505L1097.57 963.186C1097.57 963.186 1097.61 963.264 1097.51 963.307C1097.9 964.867 1098.93 966.045 1100.22 966.818ZM909.047 1181.83C909.134 1181.99 909.177 1182.06 909.264 1182.22L715.085 1267.46L675.495 1253.83L702.061 1223.24L909.047 1181.83ZM673.298 1253.18L633.893 1239.66C634.323 1238.7 634.418 1237.79 634.372 1236.85L698.7 1223.98L673.298 1253.18ZM625.796 1244.73L627.688 1299.42C627.353 1299.48 627.072 1299.41 626.737 1299.46C622.123 1300.56 619.019 1304.55 619.915 1308.3C619.948 1308.57 620.176 1308.76 620.262 1308.91L581.715 1326.26L623.569 1244.67C624.272 1244.84 624.986 1244.81 625.796 1244.73ZM621.078 1310.57C621.566 1311.22 622.205 1311.71 622.985 1312.23L519.623 1447.27L580.391 1328.87L621.078 1310.57ZM480.033 1492.75L372.265 1545.78L251.265 1482.2C251.729 1481.51 252.095 1480.86 252.277 1480.11L479.464 1490.01C479.433 1490.61 479.262 1491.17 479.469 1491.75C479.686 1492.13 479.957 1492.4 480.033 1492.75ZM119.682 1668.62L77.2549 1686.64L233.949 1492.93L119.682 1668.62ZM118.595 1670.36L111.885 1680.69L48.1345 1724.35C47.8635 1724.09 47.6355 1723.9 47.3107 1723.76L75.6814 1688.6L118.595 1670.36ZM45.8384 1722.87C44.1174 1722.2 42.1813 1722 40.0199 1722.49C36.0322 1723.4 33.4017 1726.51 33.2803 1729.74L-33.052 1736.47C-33.0852 1736.2 -32.9776 1735.96 -33.0107 1735.69C-33.0439 1735.41 -33.2714 1735.22 -33.4452 1734.92L72.4295 1689.96L45.8384 1722.87ZM512.542 1456.51L493.639 1481.26L576.018 1330.83L577.378 1330.22L512.542 1456.51ZM-33.093 1737.26L33.2389 1730.53C33.2721 1730.81 33.1645 1731.05 33.1976 1731.32C34.0939 1735.07 38.6304 1737.28 43.342 1736.14C43.6771 1736.08 43.8275 1735.92 44.1191 1735.79L54.5069 1759.58C52.5194 1760.38 51.0302 1761.62 50.1907 1763.15L-33.4444 1739.45C-33.219 1738.77 -33.037 1738.01 -33.093 1737.26ZM63.0289 1760.01L105.779 1707.62L429.264 1593.27L64.8062 1761.44C64.3613 1760.86 63.7654 1760.46 63.0289 1760.01ZM452.369 1579.85L504.725 1498.96L682.581 1588.21C682.118 1588.9 681.752 1589.54 681.57 1590.3L455.779 1585.46C455.853 1584.94 455.927 1584.42 455.764 1583.92C455.338 1582.09 454.08 1580.72 452.369 1579.85ZM696.134 1585.9L874.293 1396.57L955.023 1425.92C954.388 1427.17 954.175 1428.52 954.438 1429.85C954.548 1430.47 954.949 1430.97 955.253 1431.51L696.536 1586.4C696.503 1586.12 696.318 1586.01 696.134 1585.9ZM1205.65 1381.37C1206.7 1384.95 1211.05 1387.06 1215.67 1385.96C1219.08 1385.1 1221.67 1382.79 1222.34 1380.08L1306.36 1385.49L1306.78 1385.59C1306.72 1385.71 1306.77 1385.79 1306.81 1385.87L982.528 1424.61L1205.65 1381.37ZM1316.83 1378.59L1323.6 1315.3L1486.93 1218.99C1487.02 1219.14 1487.16 1219.18 1487.3 1219.21L1320.38 1379.7C1319.32 1379.11 1318.2 1378.65 1316.83 1378.59ZM1501.8 1211.47L1720.48 1120.67L1805.86 1180.04C1805 1181.1 1804.5 1182.38 1804.39 1183.69L1502.03 1212.52C1502.04 1212.33 1502.1 1212.21 1502.01 1212.05C1502.02 1211.85 1501.83 1211.74 1501.8 1211.47ZM1820.57 1180.21L1952.33 1104.1L2197.61 1107.46L1821.13 1181.21C1821.01 1180.78 1820.74 1180.52 1820.57 1180.21ZM2214.54 1105.09L2504.25 1024.74C2505.61 1027.79 2509.51 1029.52 2513.54 1028.68L2587.17 1250.37C2585.67 1250.94 2584.34 1251.83 2583.38 1252.93L2213.92 1108.74C2214.55 1107.49 2214.75 1106.34 2214.54 1105.09ZM2593.88 1249.97L2713.51 957.15C2714.64 957.22 2715.83 957.17 2717.03 956.923C2719.39 956.351 2721.35 955.086 2722.53 953.5L2977.03 1044.8C2976.44 1046.13 2976.09 1047.44 2976.39 1048.85C2976.51 1049.28 2976.78 1049.54 2977 1049.93L2597.11 1251.8C2596.26 1250.93 2595.19 1250.35 2593.88 1249.97ZM2985.84 1039.7L2984.18 714.085C2984.42 714.075 2984.56 714.109 2984.76 714.022C2987.35 713.44 2989.38 711.857 2990.52 709.997L3256.13 782.354C3255.69 783.515 3255.48 784.666 3255.76 785.797C3256.03 786.929 3256.69 787.886 3257.64 788.713L2989.92 1040.68C2988.72 1040.06 2987.45 1039.76 2985.84 1039.7ZM3262.58 776.96C3262.38 777.047 3262.19 777.134 3261.99 777.221L3203.14 647.94C3206.64 646.374 3208.9 643.048 3208.07 639.852C3207.83 638.996 3207.4 638.226 3206.91 637.577L3443.51 468.089C3443.97 468.464 3444.28 468.805 3444.79 469.06L3267.09 776.968C3265.72 776.71 3264.21 776.616 3262.58 776.96ZM3568.23 165.758L3330.49 320.716C3328.54 318.985 3325.55 318.205 3322.42 318.927C3322.23 319.014 3322.13 319.058 3321.94 319.145L3237.54 134.476C3239.64 133.442 3241.19 131.88 3241.95 129.996L3567.21 161.783C3567.12 162.495 3566.99 163.131 3567.15 163.834C3567.44 164.57 3567.89 165.143 3568.23 165.758ZM3235.6 135.346C3235.79 135.259 3235.89 135.215 3236.08 135.128L3320.58 319.754C3317.9 321.048 3316.12 323.29 3315.8 325.747L2991.97 354.065C2991.98 353.868 2992.03 353.748 2991.94 353.594C2991.67 352.462 2991.01 351.505 2990.2 350.712L3228.62 134.418C3230.6 135.556 3233.05 136.005 3235.6 135.346ZM2978.64 361.954L2810.46 650.274C2809.05 649.939 2807.54 649.845 2805.91 650.19C2804.85 650.471 2803.88 650.906 2803.04 651.374L2592.09 449.57C2593.79 448.041 2594.65 446.114 2594.51 444.149L2975.27 358.353C2975.9 359.903 2977.12 361.191 2978.64 361.954ZM2579.49 450.101L2329.98 680.415C2328.04 679.354 2325.64 678.982 2323.14 679.52C2323.05 679.564 2322.95 679.607 2322.85 679.651L2194.62 401.791C2196.52 400.844 2197.92 399.445 2198.68 397.759L2577.67 444.937C2577.58 445.65 2577.5 446.362 2577.65 447.065C2578.01 448.35 2578.67 449.307 2579.49 450.101ZM2192.48 402.747C2192.58 402.704 2192.68 402.66 2192.77 402.617L2321.01 680.477C2320.32 680.781 2319.78 681.119 2319.29 681.534L2060.47 507.315C2061.84 505.642 2062.42 503.648 2061.95 501.737C2061.72 500.683 2061.1 499.803 2060.43 499.043L2184.87 401.334C2186.78 402.79 2189.6 403.46 2192.48 402.747ZM2049.73 510.289L1941.7 760.223C1940.52 760.076 1939.29 760.049 1937.99 760.34C1937.03 760.577 1936.3 761.002 1935.52 761.35L1708.04 523.362C1709.43 522.161 1710.36 520.782 1710.68 519.193L2045.18 504.807C2045.21 505.081 2045.15 505.399 2045.18 505.673C2045.63 507.979 2047.45 509.479 2049.73 510.289ZM1697.46 525.107C1698.62 525.65 1700.08 525.864 1701.5 525.804L1719.29 824.346C1719.19 824.39 1719.15 824.313 1719.05 824.356C1715.93 825.079 1713.78 827.1 1712.76 829.389L1450.41 794.719C1450.55 793.886 1450.59 793.096 1450.39 792.317C1450.13 790.988 1449.19 789.964 1448.09 789.104L1697.46 525.107ZM1434.13 797.374L1113.23 956.854C1111.53 954.916 1108.58 954.015 1105.43 954.463L1072.74 792.166C1075.88 791.246 1078.17 789.061 1078.92 786.508L1433.54 795.035C1433.56 795.507 1433.45 795.945 1433.47 796.417C1433.69 796.802 1433.96 797.066 1434.13 797.374ZM1066.4 791.921C1067.84 792.53 1069.49 792.658 1071.31 792.424L1103.99 954.721C1100.13 955.868 1097.6 958.93 1097.67 962.079L909.305 991.397C909.262 991.32 909.262 991.321 909.359 991.277C908.966 989.718 907.936 988.539 906.56 987.612L1066.4 791.921ZM700.263 1222.22L634.304 1235.43C634.021 1234.5 633.446 1233.69 632.773 1232.93L890.338 1003.74L700.263 1222.22ZM578.648 1327.73L577.384 1328.29L592.915 1299.94L578.648 1327.73ZM490.8 1482.92C489.393 1482.58 487.922 1482.57 486.388 1482.87C482.973 1483.72 480.481 1485.99 479.72 1488.74L252.533 1478.84C252.564 1478.24 252.735 1477.68 252.528 1477.1C252.495 1476.83 252.311 1476.72 252.181 1476.49L573.533 1332.04L490.8 1482.92ZM73.906 1688.04L-34.0101 1733.91C-34.2273 1733.53 -34.5415 1733.19 -34.8125 1732.92L236.183 1487.4L73.906 1688.04Z" fill="#777FAD"/>
</g>
<path d="M188.241 382.882L267.09 290.987L345.639 401.957L188.241 382.882Z" fill="url(#paint0_linear_8_195)"/>
<path d="M157 97.6261L101.539 125.678L86.1343 57.614L157 97.6261Z" fill="#DE3A3A"/>
<path d="M1547.87 936.814L1605.33 926.853L1579.95 866.087L1547.87 936.814Z" fill="#DE3A3A"/>
<path d="M757.205 76.9219L811.632 40.021L830 99.5444L757.205 76.9219Z" fill="#A04141"/>
<path d="M1668.21 704.922L1722.63 668.021L1741 727.544L1668.21 704.922Z" fill="#A04141"/>
<path d="M513.461 79.232L537.75 130.71L484.389 138.468L513.461 79.232Z" fill="#DE3A3A"/>
<path d="M1860.52 918.302L1863.91 961.382L1823.94 952.528L1860.52 918.302Z" fill="#901919"/>
</g>
<defs>
<linearGradient id="paint0_linear_8_195" x1="188.787" y1="357.202" x2="346.513" y2="360.516" gradientUnits="userSpaceOnUse">
<stop stop-color="#DE3A3A"/>
<stop offset="0.99" stop-color="#C69C7D"/>
</linearGradient>
<clipPath id="clip0_8_195">
<rect width="1920" height="1080" fill="white" transform="matrix(-1 0 0 1 1920 0)"/>
</clipPath>
</defs>
</svg>
