<svg width="85" height="85" viewBox="0 0 85 85" fill="none" xmlns="http://www.w3.org/2000/svg">
<rect width="85" height="85" rx="5" fill="#FDFF94"/>
<path d="M25.725 66.675V43.275H54.975C56.0094 43.275 57.0013 42.8642 57.7327 42.1327C58.4641 41.4014 58.875 40.4094 58.875 39.375V21.825C58.875 20.7907 59.2859 19.7987 60.0173 19.0673C60.7487 18.3359 61.7406 17.925 62.775 17.925C63.8094 17.925 64.8013 18.3359 65.5327 19.0673C66.2641 19.7987 66.675 20.7907 66.675 21.825V62.7751C66.675 63.8094 67.0859 64.8014 67.8173 65.5327C68.5487 66.2642 69.5406 66.675 70.575 66.675H25.725Z" fill="#FFC477"/>
<path d="M66.675 62.775V39.375C66.675 46.6154 63.7987 53.5593 58.679 58.679C53.5593 63.7987 46.6154 66.675 39.375 66.675H70.575C69.5406 66.675 68.5487 66.2641 67.8173 65.5327C67.0859 64.8013 66.675 63.8094 66.675 62.775Z" fill="#FFB655"/>
<path d="M62.775 17.925C61.7406 17.925 60.7487 18.3359 60.0173 19.0673C59.2859 19.7987 58.875 20.7907 58.875 21.825V39.375C58.875 40.4094 58.4641 41.4014 57.7327 42.1327C57.0013 42.8642 56.0094 43.275 54.975 43.275H25.725V21.825C25.725 20.7907 26.1359 19.7987 26.8673 19.0673C27.5987 18.3359 28.5906 17.925 29.625 17.925H62.775Z" fill="#FFDAAA"/>
<path d="M74.475 54.9751V62.7751C74.475 63.8095 74.0641 64.8014 73.3327 65.5328C72.6013 66.2642 71.6094 66.6751 70.575 66.6751C69.5406 66.6751 68.5487 66.2642 67.8173 65.5328C67.0859 64.8014 66.675 63.8095 66.675 62.7751V54.9751L70.575 56.9251L74.475 54.9751Z" fill="#FF9811"/>
<path d="M37.425 43.275H54.975C56.0094 43.275 57.0013 42.8641 57.7327 42.1326C58.4641 41.4013 58.875 40.4093 58.875 39.375V21.825C58.875 27.5139 56.6151 32.9697 52.5925 36.9923C48.5698 41.015 43.1139 43.275 37.425 43.275Z" fill="#FFC477"/>
<path d="M51.075 39.375V36.45L48.1451 38.4L45.2143 36.45L42.2893 38.4L39.3643 36.45L36.4393 38.4L33.5143 36.45L30.5893 38.4L27.6643 36.45L24.7393 38.4L21.825 36.45V39.375C21.825 40.4093 22.2359 41.4013 22.9673 42.1326C23.6987 42.8641 24.6906 43.275 25.725 43.275H54.975C53.9406 43.275 52.9487 42.8641 52.2173 42.1326C51.4859 41.4013 51.075 40.4093 51.075 39.375Z" fill="#FFA733"/>
<path d="M60.825 47.175V70.5751H56.925V51.075H21.825V47.175H60.825Z" fill="#4E901E"/>
<path d="M56.925 51.075H17.925V74.475H56.925V51.075Z" fill="#91DC5A"/>
<path d="M56.925 62.7749H17.925V74.4749H56.925V62.7749Z" fill="#7ED63E"/>
<path d="M53.025 57.7733V67.7768C52.3502 67.9489 51.7343 68.2996 51.2419 68.792C50.7495 69.2844 50.3988 69.9003 50.2267 70.5751H24.6232C24.4511 69.9003 24.1005 69.2844 23.6081 68.792C23.1157 68.2996 22.4997 67.9489 21.825 67.7768V57.7733C22.4997 57.6013 23.1157 57.2506 23.6081 56.7582C24.1005 56.2658 24.4511 55.6499 24.6232 54.9751H50.2267C50.3988 55.6499 50.7495 56.2658 51.2419 56.7582C51.7343 57.2506 52.3502 57.6013 53.025 57.7733Z" fill="#5EAC24"/>
<path d="M21.825 62.7749V67.7767C22.4997 67.9487 23.1157 68.2994 23.6081 68.7918C24.1005 69.2842 24.4511 69.9001 24.6232 70.5749H50.2267C50.3988 69.9001 50.7495 69.2842 51.2419 68.7918C51.7343 68.2994 52.3502 67.9487 53.025 67.7767V62.7749H21.825Z" fill="#4E901E"/>
<path d="M37.425 66.675C39.5789 66.675 41.325 64.9289 41.325 62.775C41.325 60.6211 39.5789 58.875 37.425 58.875C35.2711 58.875 33.525 60.6211 33.525 62.775C33.525 64.9289 35.2711 66.675 37.425 66.675Z" fill="#F1F2F2"/>
<path d="M37.425 57.8999C36.4608 57.8999 35.5183 58.1858 34.7166 58.7215C33.9149 59.2572 33.29 60.0186 32.9211 60.9093C32.5521 61.8001 32.4555 62.7803 32.6437 63.726C32.8318 64.6717 33.2961 65.5403 33.9779 66.222C34.6596 66.9038 35.5282 67.3681 36.474 67.5562C37.4196 67.7444 38.3998 67.6478 39.2906 67.2788C40.1814 66.9099 40.9427 66.285 41.4785 65.4834C42.0141 64.6816 42.3 63.7391 42.3 62.7749C42.2984 61.4824 41.7843 60.2434 40.8705 59.3294C39.9565 58.4156 38.7175 57.9015 37.425 57.8999ZM37.425 65.6999C36.8465 65.6999 36.2809 65.5284 35.8 65.2069C35.3189 64.8856 34.944 64.4287 34.7227 63.8942C34.5013 63.3598 34.4433 62.7717 34.5562 62.2042C34.6691 61.6369 34.9476 61.1156 35.3567 60.7066C35.7657 60.2975 36.287 60.019 36.8543 59.9061C37.4218 59.7933 38.0099 59.8512 38.5444 60.0726C39.0788 60.2939 39.5357 60.6688 39.857 61.1499C40.1785 61.6308 40.35 62.1964 40.35 62.7749C40.35 63.5506 40.0418 64.2946 39.4933 64.8432C38.9447 65.3917 38.2008 65.6999 37.425 65.6999Z" fill="#231F20"/>
<path d="M53.2668 56.8275C52.762 56.6985 52.3011 56.4359 51.9325 56.0675C51.5641 55.6989 51.3015 55.2381 51.1725 54.7332C51.1188 54.5233 50.9966 54.3373 50.8253 54.2045C50.6541 54.0717 50.4435 53.9997 50.2268 54H24.6233C24.4067 53.9999 24.1963 54.072 24.0253 54.2048C23.8542 54.3375 23.7322 54.5234 23.6785 54.7332C23.5494 55.2382 23.2867 55.6991 22.918 56.0677C22.5494 56.4361 22.0883 56.6986 21.5832 56.8275C21.3733 56.8812 21.1872 57.0034 21.0544 57.1747C20.9217 57.3459 20.8497 57.5565 20.85 57.7733V67.7768C20.85 67.9933 20.922 68.2037 21.0547 68.3747C21.1875 68.5458 21.3734 68.6678 21.5832 68.7215C22.0882 68.8506 22.5492 69.1133 22.9177 69.4819C23.2862 69.8507 23.5486 70.3118 23.6775 70.8168C23.7312 71.0267 23.8534 71.2127 24.0247 71.3455C24.1959 71.4783 24.4066 71.5503 24.6233 71.55H50.2268C50.4433 71.5501 50.6537 71.478 50.8247 71.3453C50.9958 71.2125 51.1178 71.0266 51.1715 70.8168C51.3006 70.3118 51.5633 69.8509 51.9319 69.4823C52.3007 69.1139 52.7618 68.8514 53.2668 68.7225C53.4767 68.6688 53.6628 68.5466 53.7955 68.3753C53.9283 68.2041 54.0003 67.9935 54 67.7768V57.7733C54.0003 57.5565 53.9283 57.3459 53.7955 57.1747C53.6628 57.0034 53.4767 56.8812 53.2668 56.8275ZM52.05 67.0826C50.9227 67.5732 50.0232 68.4727 49.5326 69.6H25.3175C24.8268 68.4727 23.9273 67.5732 22.8 67.0826V58.4675C23.9273 57.9768 24.8268 57.0773 25.3175 55.95H49.5326C50.0232 57.0773 50.9227 57.9768 52.05 58.4675V67.0826Z" fill="#231F20"/>
<path d="M32.55 30.6001C31.3595 30.6001 30.6 30.0229 30.6 29.6251C30.6 29.3665 30.4972 29.1185 30.3144 28.9357C30.1316 28.7529 29.8836 28.6501 29.625 28.6501C29.3664 28.6501 29.1184 28.7529 28.9356 28.9357C28.7528 29.1185 28.65 29.3665 28.65 29.6251C28.65 31.0106 29.8775 32.1318 31.575 32.4526V33.5251C31.575 33.7837 31.6778 34.0317 31.8606 34.2145C32.0434 34.3973 32.2914 34.5001 32.55 34.5001C32.8086 34.5001 33.0566 34.3973 33.2394 34.2145C33.4222 34.0317 33.525 33.7837 33.525 33.5251V32.4526C35.2225 32.1338 36.45 31.0125 36.45 29.6251C36.45 27.9851 34.7369 26.7001 32.55 26.7001C31.3595 26.7001 30.6 26.1229 30.6 25.7251C30.6 25.3273 31.3595 24.7501 32.55 24.7501C33.7405 24.7501 34.5 25.3273 34.5 25.7251C34.5 25.9837 34.6028 26.2317 34.7856 26.4145C34.9684 26.5973 35.2164 26.7001 35.475 26.7001C35.7336 26.7001 35.9816 26.5973 36.1644 26.4145C36.3472 26.2317 36.45 25.9837 36.45 25.7251C36.45 24.3396 35.2225 23.2184 33.525 22.8976V21.8251C33.525 21.5665 33.4222 21.3185 33.2394 21.1357C33.0566 20.9528 32.8086 20.8501 32.55 20.8501C32.2914 20.8501 32.0434 20.9528 31.8606 21.1357C31.6778 21.3185 31.575 21.5665 31.575 21.8251V22.8976C29.8775 23.2164 28.65 24.3377 28.65 25.7251C28.65 27.365 30.3631 28.6501 32.55 28.6501C33.7405 28.6501 34.5 29.2273 34.5 29.6251C34.5 30.0229 33.7405 30.6001 32.55 30.6001Z" fill="#231F20"/>
<path d="M74.9917 54.1462C74.849 54.0588 74.6863 54.0093 74.5191 54.0025C74.3519 53.9957 74.1856 54.0317 74.0362 54.1072L70.575 55.833L67.65 54.3705V21.825C67.65 20.532 67.1364 19.292 66.2221 18.3778C65.3079 17.4636 64.0679 16.95 62.775 16.95H29.625C28.332 16.95 27.092 17.4636 26.1779 18.3778C25.2636 19.292 24.75 20.532 24.75 21.825V37.23L22.371 35.6407C22.2242 35.5415 22.0533 35.4842 21.8764 35.4749C21.6995 35.4655 21.5234 35.5045 21.367 35.5878C21.2107 35.6709 21.0799 35.7951 20.9888 35.947C20.8977 36.099 20.8497 36.2728 20.85 36.45V39.375C20.8529 40.498 21.2421 41.5858 21.9522 42.4558C22.6624 43.3257 23.6503 43.9248 24.75 44.1525V46.2H21.825C21.5664 46.2 21.3184 46.3027 21.1356 46.4855C20.9527 46.6683 20.85 46.9164 20.85 47.175V50.1H17.925C17.6664 50.1 17.4184 50.2027 17.2356 50.3855C17.0527 50.5683 16.95 50.8164 16.95 51.075V74.475C16.95 74.7335 17.0527 74.9816 17.2356 75.1644C17.4184 75.3472 17.6664 75.45 17.925 75.45H56.925C57.1836 75.45 57.4316 75.3472 57.6144 75.1644C57.7972 74.9816 57.9 74.7335 57.9 74.475V71.55H60.825C61.0836 71.55 61.3316 71.4472 61.5144 71.2644C61.6972 71.0816 61.8 70.8335 61.8 70.575V67.65H70.575C71.8679 67.65 73.108 67.1363 74.0221 66.2221C74.9364 65.3079 75.45 64.0679 75.45 62.775V54.975C75.4503 54.8093 75.4085 54.6462 75.3282 54.5012C75.2481 54.3562 75.1322 54.2341 74.9917 54.1462ZM26.7 21.825C26.7023 21.0499 27.0112 20.3073 27.5593 19.7592C28.1073 19.2112 28.85 18.9023 29.625 18.9H58.9042C58.2561 19.7375 57.9029 20.7659 57.9 21.825V39.375C57.9 40.1507 57.5918 40.8947 57.0433 41.4432C56.4947 41.9918 55.7507 42.3 54.975 42.3C54.1993 42.3 53.4553 41.9918 52.9067 41.4432C52.3582 40.8947 52.05 40.1507 52.05 39.375V36.45C52.0513 36.2732 52.0037 36.0995 51.9125 35.9481C51.8213 35.7968 51.69 35.6735 51.5332 35.592C51.3796 35.5061 51.2049 35.465 51.029 35.4737C50.8532 35.4823 50.6832 35.5402 50.5387 35.6407L48.1402 37.23L45.7515 35.6407C45.5913 35.5338 45.4029 35.4768 45.2104 35.4768C45.0178 35.4768 44.8294 35.5338 44.6692 35.6407L42.2902 37.23L39.9015 35.6407C39.7423 35.5311 39.5536 35.4725 39.3604 35.4725C39.1671 35.4725 38.9785 35.5311 38.8192 35.6407L36.4402 37.23L34.0612 35.6407C33.902 35.5311 33.7134 35.4725 33.5201 35.4725C33.3269 35.4725 33.1382 35.5311 32.979 35.6407L30.5902 37.23L28.2112 35.6407C28.052 35.5311 27.8634 35.4725 27.6701 35.4725C27.4769 35.4725 27.2882 35.5311 27.129 35.6407L26.7 35.9235V21.825ZM22.8 39.375V38.2732L24.204 39.2092C24.3632 39.3188 24.5519 39.3774 24.7451 39.3774C24.9384 39.3774 25.127 39.3188 25.2862 39.2092L27.6652 37.62L30.054 39.2092C30.2132 39.3188 30.4019 39.3774 30.5951 39.3774C30.7884 39.3774 30.977 39.3188 31.1362 39.2092L33.5152 37.62L35.8942 39.2092C36.0535 39.3188 36.2421 39.3774 36.4354 39.3774C36.6286 39.3774 36.8173 39.3188 36.9765 39.2092L39.3652 37.62L41.7442 39.2092C41.9035 39.3188 42.0921 39.3774 42.2854 39.3774C42.4786 39.3774 42.6673 39.3188 42.8265 39.2092L45.2152 37.62L47.604 39.2092C47.7632 39.3188 47.9519 39.3774 48.1451 39.3774C48.3384 39.3774 48.527 39.3188 48.6862 39.2092L50.1 38.2732V39.375C50.0989 40.4299 50.4412 41.4566 51.075 42.3H25.725C24.95 42.2976 24.2073 41.9887 23.6593 41.4407C23.1112 40.8926 22.8023 40.15 22.8 39.375ZM55.95 73.5H18.9V52.05H55.95V73.5ZM59.85 69.6H57.9V51.075C57.9 50.8164 57.7972 50.5683 57.6144 50.3855C57.4316 50.2027 57.1836 50.1 56.925 50.1H22.8V48.15H59.85V69.6ZM61.8 65.7V47.175C61.8 46.9164 61.6972 46.6683 61.5144 46.4855C61.3316 46.3027 61.0836 46.2 60.825 46.2H26.7V44.25H54.975C56.098 44.2471 57.1858 43.8579 58.0558 43.1477C58.9258 42.4375 59.5248 41.4497 59.7525 40.35H62.775C63.0336 40.35 63.2816 40.2472 63.4644 40.0644C63.6472 39.8816 63.75 39.6335 63.75 39.375C63.75 39.1164 63.6472 38.8683 63.4644 38.6855C63.2816 38.5027 63.0336 38.4 62.775 38.4H59.85V36.45H62.775C63.0336 36.45 63.2816 36.3472 63.4644 36.1644C63.6472 35.9816 63.75 35.7335 63.75 35.475C63.75 35.2164 63.6472 34.9683 63.4644 34.7855C63.2816 34.6027 63.0336 34.5 62.775 34.5H59.85V32.55H62.775C63.0336 32.55 63.2816 32.4472 63.4644 32.2644C63.6472 32.0816 63.75 31.8335 63.75 31.575C63.75 31.3164 63.6472 31.0683 63.4644 30.8855C63.2816 30.7027 63.0336 30.6 62.775 30.6H59.85V28.65H62.775C63.0336 28.65 63.2816 28.5472 63.4644 28.3644C63.6472 28.1816 63.75 27.9335 63.75 27.675C63.75 27.4164 63.6472 27.1683 63.4644 26.9855C63.2816 26.8027 63.0336 26.7 62.775 26.7H59.85V24.75H62.775C63.0336 24.75 63.2816 24.6472 63.4644 24.4644C63.6472 24.2815 63.75 24.0335 63.75 23.775C63.75 23.5164 63.6472 23.2684 63.4644 23.0855C63.2816 22.9027 63.0336 22.8 62.775 22.8H59.85V21.825C59.85 21.0492 60.1582 20.3052 60.7067 19.7567C61.2553 19.2081 61.9993 18.9 62.775 18.9C63.5507 18.9 64.2947 19.2081 64.8433 19.7567C65.3918 20.3052 65.7 21.0492 65.7 21.825V62.775C65.7029 63.834 66.0561 64.8624 66.7042 65.7H61.8ZM73.5 62.775C73.5 63.5507 73.1918 64.2947 72.6433 64.8432C72.0947 65.3918 71.3507 65.7 70.575 65.7C69.7993 65.7 69.0553 65.3918 68.5067 64.8432C67.9582 64.2947 67.65 63.5507 67.65 62.775V56.5545L70.1362 57.7927C70.2713 57.8648 70.4219 57.9024 70.575 57.9024C70.7281 57.9024 70.8787 57.8648 71.0137 57.7927L73.5 56.5545V62.775Z" fill="#231F20"/>
<path d="M39.375 33.525H40.35C40.6086 33.525 40.8566 33.4222 41.0394 33.2394C41.2222 33.0566 41.325 32.8085 41.325 32.55C41.325 32.2914 41.2222 32.0433 41.0394 31.8605C40.8566 31.6777 40.6086 31.575 40.35 31.575H39.375C39.1164 31.575 38.8684 31.6777 38.6856 31.8605C38.5028 32.0433 38.4 32.2914 38.4 32.55C38.4 32.8085 38.5028 33.0566 38.6856 33.2394C38.8684 33.4222 39.1164 33.525 39.375 33.525Z" fill="#231F20"/>
<path d="M44.25 33.525H54.975C55.2336 33.525 55.4816 33.4222 55.6644 33.2394C55.8472 33.0566 55.95 32.8085 55.95 32.55C55.95 32.2914 55.8472 32.0433 55.6644 31.8605C55.4816 31.6777 55.2336 31.575 54.975 31.575H44.25C43.9914 31.575 43.7434 31.6777 43.5606 31.8605C43.3778 32.0433 43.275 32.2914 43.275 32.55C43.275 32.8085 43.3778 33.0566 43.5606 33.2394C43.7434 33.4222 43.9914 33.525 44.25 33.525Z" fill="#231F20"/>
<path d="M39.375 29.625H40.35C40.6086 29.625 40.8566 29.5223 41.0394 29.3395C41.2222 29.1567 41.325 28.9086 41.325 28.65C41.325 28.3915 41.2222 28.1434 41.0394 27.9606C40.8566 27.7778 40.6086 27.675 40.35 27.675H39.375C39.1164 27.675 38.8684 27.7778 38.6856 27.9606C38.5028 28.1434 38.4 28.3915 38.4 28.65C38.4 28.9086 38.5028 29.1567 38.6856 29.3395C38.8684 29.5223 39.1164 29.625 39.375 29.625Z" fill="#231F20"/>
<path d="M44.25 29.625H54.975C55.2336 29.625 55.4816 29.5223 55.6644 29.3395C55.8472 29.1567 55.95 28.9086 55.95 28.65C55.95 28.3915 55.8472 28.1434 55.6644 27.9606C55.4816 27.7778 55.2336 27.675 54.975 27.675H44.25C43.9914 27.675 43.7434 27.7778 43.5606 27.9606C43.3778 28.1434 43.275 28.3915 43.275 28.65C43.275 28.9086 43.3778 29.1567 43.5606 29.3395C43.7434 29.5223 43.9914 29.625 44.25 29.625Z" fill="#231F20"/>
<path d="M39.375 25.7249H40.35C40.6086 25.7249 40.8566 25.6221 41.0394 25.4393C41.2222 25.2565 41.325 25.0085 41.325 24.7499C41.325 24.4913 41.2222 24.2433 41.0394 24.0605C40.8566 23.8776 40.6086 23.7749 40.35 23.7749H39.375C39.1164 23.7749 38.8684 23.8776 38.6856 24.0605C38.5028 24.2433 38.4 24.4913 38.4 24.7499C38.4 25.0085 38.5028 25.2565 38.6856 25.4393C38.8684 25.6221 39.1164 25.7249 39.375 25.7249Z" fill="#231F20"/>
<path d="M44.25 25.7249H54.975C55.2336 25.7249 55.4816 25.6221 55.6644 25.4393C55.8472 25.2565 55.95 25.0085 55.95 24.7499C55.95 24.4913 55.8472 24.2433 55.6644 24.0605C55.4816 23.8776 55.2336 23.7749 54.975 23.7749H44.25C43.9914 23.7749 43.7434 23.8776 43.5606 24.0605C43.3778 24.2433 43.275 24.4913 43.275 24.7499C43.275 25.0085 43.3778 25.2565 43.5606 25.4393C43.7434 25.6221 43.9914 25.7249 44.25 25.7249Z" fill="#231F20"/>
<path d="M47.175 61.8H45.225C44.9664 61.8 44.7184 61.9028 44.5356 62.0856C44.3528 62.2684 44.25 62.5165 44.25 62.775C44.25 63.0336 44.3528 63.2817 44.5356 63.4645C44.7184 63.6473 44.9664 63.75 45.225 63.75H47.175C47.4336 63.75 47.6816 63.6473 47.8644 63.4645C48.0472 63.2817 48.15 63.0336 48.15 62.775C48.15 62.5165 48.0472 62.2684 47.8644 62.0856C47.6816 61.9028 47.4336 61.8 47.175 61.8Z" fill="#231F20"/>
<path d="M29.625 61.8H27.675C27.4164 61.8 27.1684 61.9028 26.9856 62.0856C26.8028 62.2684 26.7 62.5165 26.7 62.775C26.7 63.0336 26.8028 63.2817 26.9856 63.4645C27.1684 63.6473 27.4164 63.75 27.675 63.75H29.625C29.8836 63.75 30.1316 63.6473 30.3144 63.4645C30.4972 63.2817 30.6 63.0336 30.6 62.775C30.6 62.5165 30.4972 62.2684 30.3144 62.0856C30.1316 61.9028 29.8836 61.8 29.625 61.8Z" fill="#231F20"/>
</svg>
