<svg width="85" height="85" viewBox="0 0 85 85" fill="none" xmlns="http://www.w3.org/2000/svg">
<rect width="85" height="85" rx="5" fill="#E6AFFF"/>
<path d="M70.7547 24.466C70.751 23.1157 70.2233 21.8469 69.2666 20.8939C68.3123 19.9433 67.0448 19.4204 65.6981 19.4204H65.6871L34.5602 19.4874C33.2099 19.4899 31.9411 20.0188 30.9893 20.9755H30.9881C30.9393 21.0243 30.8918 21.0755 30.8455 21.1267C30.8357 21.1376 30.8248 21.1474 30.815 21.1583C30.7151 21.2693 30.6212 21.3838 30.5323 21.5008C30.5213 21.5154 30.5091 21.5301 30.4981 21.5447C30.4604 21.5959 30.425 21.6483 30.3897 21.7007C30.3787 21.7165 30.3665 21.7324 30.3568 21.7482C29.8595 22.4941 29.5719 23.3582 29.5231 24.2674C29.5231 24.2783 29.5219 24.2893 29.5207 24.3015C29.5183 24.3551 29.5183 24.41 29.517 24.4636C29.517 24.4941 29.5158 24.5233 29.5158 24.5538L29.5451 38.177H16.8591C15.5087 38.1794 14.24 38.7083 13.287 39.6651C12.3339 40.6218 11.811 41.8917 11.8135 43.2421V58.5398C11.8135 59.6769 12.2754 60.7067 13.0213 61.4539C13.7671 62.201 14.797 62.6641 15.9329 62.6664H21.5099C22.4117 64.057 23.9766 64.9796 25.7535 64.9796H25.7645L30.2105 64.9699L65.7846 64.8943C66.4819 64.8931 67.146 64.7505 67.7492 64.4921C69.5615 63.7194 70.834 61.9181 70.8302 59.8278L70.7547 24.466ZM15.9402 61.4477C14.3363 61.4477 13.0322 60.1437 13.0322 58.5398V43.2421C13.0322 43.2421 13.0322 43.2421 13.0322 43.2409V43.2311C13.0322 42.2098 13.4295 41.2482 14.151 40.5243C14.8725 39.7991 15.8354 39.3982 16.8591 39.3957C16.8591 39.3957 16.8591 39.3957 16.8603 39.3957H16.8762C18.9858 39.3994 20.7018 41.1142 20.7067 43.2238V59.8377C20.7018 59.8695 20.697 59.9012 20.697 59.934C20.6982 60.4617 20.781 60.9699 20.9334 61.4477H15.9402ZM25.7621 63.761H25.7535C23.667 63.761 21.9632 62.0852 21.9181 60.0072C21.9218 59.9828 21.9255 59.9585 21.9255 59.9329V43.2214C21.9218 41.6918 21.2356 40.3208 20.1558 39.3957H29.5475L29.5914 59.9145C29.5914 59.9145 29.5914 59.9145 29.5914 59.9158C29.595 62.0314 27.8778 63.7561 25.7621 63.761ZM65.7822 63.6757L30.2081 63.7512L29.049 63.7537C30.1276 62.8238 30.8126 61.4478 30.8101 59.9146C30.8101 59.9134 30.8101 59.9134 30.8101 59.9122L30.7346 24.5513C30.7346 24.5282 30.7358 24.5063 30.7358 24.4831C30.737 24.4417 30.737 24.4002 30.7382 24.36C30.7395 24.3551 30.7395 24.3503 30.7395 24.3466C30.759 23.97 30.8309 23.6032 30.9552 23.2558C30.9576 23.2473 30.96 23.24 30.9637 23.2327C30.982 23.1815 31.0003 23.1315 31.021 23.0815C31.2111 22.6208 31.4902 22.1979 31.8522 21.8348C32.5749 21.1096 33.5377 20.7086 34.5639 20.7062C34.5639 20.7062 34.5639 20.7062 34.5651 20.7062L65.6908 20.6392H65.6981C66.7207 20.6392 67.6822 21.0365 68.4063 21.758C68.9657 22.3149 69.3313 23.0145 69.4713 23.7762C69.5128 24.0017 69.5348 24.2333 69.5359 24.4685L69.6115 59.8305C69.6153 61.9461 67.8979 63.6708 65.7822 63.6757Z" fill="#B61ABA"/>
<path d="M29.5914 59.9145C29.5914 59.9145 29.5914 59.9145 29.5914 59.9158C29.595 62.0315 27.8778 63.7561 25.7621 63.761H25.7535C23.667 63.761 21.9632 62.0852 21.9181 60.0072C21.9218 59.9829 21.9254 59.9585 21.9254 59.9329V43.2214C21.9218 41.6919 21.2356 40.3208 20.1558 39.3958H29.5475L29.5914 59.9145Z" fill="#EA83ED"/>
<path d="M63.4252 40.4048H36.921C35.7278 40.4048 34.7577 41.3749 34.7577 42.5681V59.0651C34.7577 60.2582 35.7278 61.2283 36.921 61.2283H63.4251C64.6169 61.2283 65.5884 60.2582 65.5884 59.0651V42.5681C65.5885 41.3749 64.6171 40.4048 63.4252 40.4048ZM42.3018 60.0096H39.7338V55.5222H42.3018V60.0096ZM48.4053 60.0096H45.8361V50.7666H48.4053V60.0096ZM54.5088 60.0096H51.9396V52.4338H54.5088V60.0096ZM60.6124 60.0096H58.0431V46.0183H60.6123V60.0096H60.6124ZM64.3698 59.0651C64.3698 59.5867 63.9457 60.0096 63.4252 60.0096H61.8311V45.409C61.8311 45.0726 61.5581 44.7996 61.2218 44.7996H57.4338C57.0974 44.7996 56.8244 45.0726 56.8244 45.409V60.0096H55.7275V51.8245C55.7275 51.4881 55.4545 51.2151 55.1181 51.2151H51.3303C50.9939 51.2151 50.7209 51.4881 50.7209 51.8245V60.0096H49.624V50.1572C49.624 49.8208 49.351 49.5478 49.0146 49.5478H45.2268C44.8904 49.5478 44.6174 49.8208 44.6174 50.1572V60.0096H43.5205V54.9128C43.5205 54.5764 43.2487 54.3034 42.9111 54.3034H39.1245C38.7881 54.3034 38.5151 54.5764 38.5151 54.9128V60.0096H36.921C36.4006 60.0096 35.9764 59.5867 35.9764 59.0651V42.5681C35.9764 42.0477 36.4006 41.6235 36.921 41.6235H63.4251C63.9455 41.6235 64.3697 42.0477 64.3697 42.5681V59.0651H64.3698Z" fill="#B61ABA"/>
<path d="M42.3017 55.5222H39.7338V60.0097H42.3017V55.5222Z" fill="#EA83ED"/>
<path d="M48.4052 50.7666H45.8361V60.0096H48.4052V50.7666Z" fill="#EA83ED"/>
<path d="M54.5087 52.4338H51.9396V60.0096H54.5087V52.4338Z" fill="#EA83ED"/>
<path d="M60.6122 46.0183H58.0431V60.0096H60.6122V46.0183Z" fill="#EA83ED"/>
<path d="M50.1724 26.6477C47.9312 26.6477 46.1067 28.4722 46.1067 30.7147C46.1067 32.9572 47.9313 34.7804 50.1724 34.7804C52.4148 34.7804 54.2394 32.9572 54.2394 30.7147C54.2394 28.4722 52.4149 26.6477 50.1724 26.6477ZM50.1724 33.5617C48.6027 33.5617 47.3254 32.2844 47.3254 30.7147C47.3254 29.1437 48.6027 27.8665 50.1724 27.8665C51.7434 27.8665 53.0207 29.1437 53.0207 30.7147C53.0207 32.2844 51.7434 33.5617 50.1724 33.5617Z" fill="#B61ABA"/>
<path d="M62.2442 23.4229H58.7866C58.7853 23.4229 58.7853 23.4229 58.7841 23.4229H41.562C41.5607 23.4229 41.5607 23.4229 41.5595 23.4229H38.1019C37.7656 23.4229 37.4926 23.6959 37.4926 24.0322V37.397C37.4926 37.4373 37.4962 37.4775 37.5047 37.5177C37.5096 37.5421 37.5181 37.5664 37.5267 37.5896C37.5316 37.603 37.534 37.6176 37.5389 37.631C37.5498 37.6566 37.5645 37.6798 37.5779 37.7042C37.584 37.7139 37.5888 37.7261 37.5949 37.7359C37.6156 37.7663 37.6388 37.7944 37.6644 37.8199C37.6668 37.8224 37.6681 37.8248 37.6705 37.8273C37.6729 37.8297 37.6766 37.8321 37.679 37.8334C37.7046 37.8589 37.7326 37.8821 37.7619 37.9028C37.7729 37.9101 37.7851 37.9138 37.796 37.9211C37.8192 37.9345 37.8423 37.9479 37.8667 37.9589C37.8813 37.965 37.8947 37.9674 37.9094 37.9723C37.9325 37.9796 37.9557 37.9894 37.9813 37.9942C38.0203 38.0015 38.0605 38.0064 38.1019 38.0064H41.5595C41.5607 38.0064 41.5607 38.0064 41.562 38.0064H62.2442C62.4123 38.0064 62.5647 37.9382 62.6744 37.8273C62.7853 37.7176 62.8535 37.5652 62.8535 37.397V33.9394C62.8535 33.9382 62.8535 33.9382 62.8535 33.9382V27.491C62.8535 27.4898 62.8535 27.4898 62.8535 27.4898V24.0322C62.8535 23.6959 62.5805 23.4229 62.2442 23.4229ZM38.7113 24.6416H40.8843C40.6479 25.7239 39.7936 26.577 38.7113 26.8146V24.6416ZM38.7113 36.7877V34.6146C39.7936 34.8511 40.6479 35.7054 40.8843 36.7877H38.7113ZM61.6348 36.7877H59.4617C59.6982 35.7054 60.5525 34.8511 61.6348 34.6146V36.7877ZM61.6348 33.3752C59.8786 33.6409 58.488 35.0314 58.2235 36.7877H42.1227C41.8569 35.0314 40.4664 33.6409 38.7114 33.3752V28.0529C40.4664 27.7884 41.8582 26.3966 42.1227 24.6416H58.2235C58.488 26.3966 59.8798 27.7884 61.6348 28.0529V33.3752ZM61.6348 26.8146C60.5525 26.577 59.6982 25.7239 59.4617 24.6416H61.6348V26.8146Z" fill="#B61ABA"/>
<path d="M58.2235 24.6416H42.1227C41.8582 26.3966 40.4664 27.7884 38.7114 28.0529V33.3752C40.4664 33.6409 41.857 35.0314 42.1227 36.7877H58.2235C58.488 35.0314 59.8786 33.6409 61.6348 33.3752V28.0529C59.8798 27.7884 58.488 26.3966 58.2235 24.6416ZM50.1724 34.7804C47.9311 34.7804 46.1067 32.9571 46.1067 30.7146C46.1067 28.4721 47.9313 26.6477 50.1724 26.6477C52.4148 26.6477 54.2394 28.4721 54.2394 30.7146C54.2394 32.9571 52.4149 34.7804 50.1724 34.7804Z" fill="#EA83ED"/>
</svg>
