<svg width="85" height="85" viewBox="0 0 85 85" fill="none" xmlns="http://www.w3.org/2000/svg">
<rect width="85" height="85" rx="5" fill="#94FFF2"/>
<path d="M37.325 51.9249H29.525C28.4906 51.9249 27.4987 51.514 26.7673 50.7826C26.0359 50.0512 25.625 49.0593 25.625 48.0249V61.6749C25.625 62.7093 26.0359 63.7012 26.7673 64.4326C27.4987 65.164 28.4906 65.5749 29.525 65.5749H37.325C38.3594 65.5749 39.3513 65.164 40.0827 64.4326C40.8141 63.7012 41.225 62.7093 41.225 61.6749V48.0249C41.225 49.0593 40.8141 50.0512 40.0827 50.7826C39.3513 51.514 38.3594 51.9249 37.325 51.9249Z" fill="#BDDBFF"/>
<path d="M45.125 46.075V63.625C45.1234 64.1416 44.9175 64.6367 44.5522 65.0021C44.1868 65.3675 43.6916 65.5734 43.175 65.575H37.325C38.3594 65.575 39.3513 65.1641 40.0827 64.4326C40.8141 63.7013 41.225 62.7093 41.225 61.675V46.075H45.125Z" fill="#BDDBFF"/>
<path d="M25.625 48.025V61.675C25.625 62.7093 26.0359 63.7013 26.7673 64.4326C27.4987 65.1641 28.4906 65.575 29.525 65.575H15.875C15.3583 65.5734 14.8632 65.3675 14.4978 65.0021C14.1325 64.6367 13.9265 64.1416 13.925 63.625V46.075H25.625V48.025Z" fill="#BDDBFF"/>
<path d="M29.525 46.075H25.625V48.025C25.625 49.0593 26.0359 50.0513 26.7673 50.7826C27.4987 51.5141 28.4906 51.925 29.525 51.925H37.325C38.3594 51.925 39.3513 51.5141 40.0827 50.7826C40.8141 50.0513 41.225 49.0593 41.225 48.025V46.075H29.525Z" fill="#BDDBFF"/>
<path d="M43.175 42.175H15.875C15.3583 42.1766 14.8632 42.3825 14.4978 42.7479C14.1325 43.1133 13.9265 43.6084 13.925 44.125V46.075H45.125V44.125C45.1234 43.6084 44.9175 43.1133 44.5522 42.7479C44.1868 42.3825 43.6917 42.1766 43.175 42.175Z" fill="#BDDBFF"/>
<path d="M37.325 38.275V42.175H33.425V34.375C33.9374 34.3743 34.4448 34.4748 34.9182 34.6705C35.3917 34.8663 35.8218 35.1535 36.1842 35.5159C36.5465 35.8782 36.8337 36.3083 37.0295 36.7818C37.2252 37.2553 37.3257 37.7626 37.325 38.275Z" fill="#BDDBFF"/>
<path d="M29.525 34.375H25.625V38.275H29.525H33.425V34.375H29.525Z" fill="#BDDBFF"/>
<path d="M25.625 38.275V42.175H21.725V38.275C21.7243 37.7626 21.8248 37.2553 22.0205 36.7818C22.2163 36.3083 22.5035 35.8782 22.8658 35.5159C23.2282 35.1535 23.6583 34.8663 24.1318 34.6705C24.6052 34.4748 25.1126 34.3743 25.625 34.375V38.275Z" fill="#BDDBFF"/>
<path d="M64.625 28.5249H49.025V36.3249H64.625V28.5249Z" fill="#BDDBFF"/>
<path d="M61.7 12.925L70.475 22.675H63.65C63.1333 22.6735 62.6382 22.4676 62.2728 22.1022C61.9075 21.7368 61.7016 21.2417 61.7 20.725V12.925Z" fill="#BDDBFF"/>
<path d="M16.85 52.9H18.8V54.85H20.75V52.9H22.7V50.95H16.85V52.9Z" fill="#3D9AE2"/>
<path d="M71.1965 22.0217L62.4215 12.2717C62.3303 12.1707 62.2191 12.0899 62.0948 12.0345C61.9706 11.9791 61.836 11.9503 61.7 11.95H33.425C32.132 11.95 30.892 12.4636 29.9779 13.3778C29.0636 14.292 28.55 15.532 28.55 16.825V33.4H25.625C24.332 33.4 23.092 33.9136 22.1779 34.8278C21.2636 35.742 20.75 36.982 20.75 38.275V41.2H15.875C15.1 41.2023 14.3573 41.5112 13.8093 42.0592C13.2612 42.6073 12.9523 43.3499 12.95 44.125V63.625C12.9523 64.4 13.2612 65.1426 13.8093 65.6907C14.3573 66.2387 15.1 66.5476 15.875 66.55H28.6475C28.8752 67.6497 29.4742 68.6375 30.3442 69.3477C31.2142 70.0579 32.302 70.4471 33.425 70.45H66.575C67.8679 70.45 69.108 69.9363 70.0221 69.0221C70.9364 68.1079 71.45 66.8679 71.45 65.575V22.675C71.4521 22.4328 71.3615 22.1991 71.1965 22.0217ZM62.675 15.4697L68.2812 21.7H63.65C63.3914 21.7 63.1434 21.5972 62.9606 21.4144C62.7778 21.2316 62.675 20.9835 62.675 20.725V15.4697ZM26.6 35.35H32.45V37.3H26.6V35.35ZM32.45 39.25V41.2H30.5V39.25H32.45ZM26.6 39.25H28.55V41.2H26.6V39.25ZM22.7 38.275C22.7017 37.6703 22.8898 37.0809 23.2388 36.587C23.5877 36.0933 24.0806 35.7191 24.65 35.5157V41.2H22.7V38.275ZM14.9 44.125C14.9 43.8664 15.0027 43.6183 15.1856 43.4355C15.3684 43.2527 15.6164 43.15 15.875 43.15H43.175C43.4336 43.15 43.6816 43.2527 43.8644 43.4355C44.0472 43.6183 44.15 43.8664 44.15 44.125V45.1H14.9V44.125ZM34.4 41.2V35.5157C34.9694 35.7191 35.4623 36.0933 35.8112 36.587C36.1602 37.0809 36.3483 37.6703 36.35 38.275V41.2H34.4ZM44.15 47.05V63.625C44.15 63.8835 44.0472 64.1316 43.8644 64.3144C43.6816 64.4972 43.4336 64.6 43.175 64.6H41.1957C41.8439 63.7624 42.1971 62.734 42.2 61.675V47.05H44.15ZM40.25 47.05V48.025C40.2477 48.8 39.9388 49.5426 39.3907 50.0907C38.8427 50.6387 38.1 50.9476 37.325 50.95H29.525C28.75 50.9476 28.0073 50.6387 27.4593 50.0907C26.9112 49.5426 26.6023 48.8 26.6 48.025V47.05H40.25ZM15.875 64.6C15.6164 64.6 15.3684 64.4972 15.1856 64.3144C15.0027 64.1316 14.9 63.8835 14.9 63.625V47.05H24.65V61.675C24.6529 62.734 25.0061 63.7624 25.6542 64.6H15.875ZM29.525 64.6C28.75 64.5976 28.0073 64.2887 27.4593 63.7407C26.9112 63.1926 26.6023 62.45 26.6 61.675V51.8957C27.4375 52.5439 28.466 52.897 29.525 52.9H37.325C38.384 52.897 39.4125 52.5439 40.25 51.8957V61.675C40.2477 62.45 39.9388 63.1926 39.3907 63.7407C38.8427 64.2887 38.1 64.5976 37.325 64.6H29.525ZM69.5 65.575C69.4977 66.35 69.1888 67.0926 68.6407 67.6407C68.0927 68.1887 67.35 68.4976 66.575 68.5H33.425C32.8219 68.4968 32.2343 68.308 31.7423 67.959C31.2504 67.6102 30.8779 67.1181 30.6755 66.55H43.175C43.95 66.5476 44.6927 66.2387 45.2407 65.6907C45.7888 65.1426 46.0977 64.4 46.1 63.625V44.125C46.0977 43.3499 45.7888 42.6073 45.2407 42.0592C44.6927 41.5112 43.95 41.2023 43.175 41.2H38.3V38.275C38.3 36.982 37.7864 35.742 36.8721 34.8278C35.9579 33.9136 34.7179 33.4 33.425 33.4H30.5V16.825C30.5023 16.0499 30.8112 15.3073 31.3593 14.7592C31.9073 14.2112 32.65 13.9023 33.425 13.9H60.725V20.725C60.7273 21.5 61.0362 22.2426 61.5843 22.7907C62.1323 23.3387 62.875 23.6476 63.65 23.65H69.5V65.575Z" fill="#3D9AE2"/>
<path d="M46.1 17.8H34.4V19.75H46.1V17.8Z" fill="#3D9AE2"/>
<path d="M51.95 17.8H48.05V19.75H51.95V17.8Z" fill="#3D9AE2"/>
<path d="M51.95 21.7H34.4V23.65H51.95V21.7Z" fill="#3D9AE2"/>
<path d="M64.625 27.55H49.025C48.7664 27.55 48.5184 27.6528 48.3356 27.8356C48.1528 28.0184 48.05 28.2665 48.05 28.525V36.325C48.05 36.5836 48.1528 36.8317 48.3356 37.0145C48.5184 37.1973 48.7664 37.3 49.025 37.3H64.625C64.8836 37.3 65.1316 37.1973 65.3144 37.0145C65.4972 36.8317 65.6 36.5836 65.6 36.325V28.525C65.6 28.2665 65.4972 28.0184 65.3144 27.8356C65.1316 27.6528 64.8836 27.55 64.625 27.55ZM63.65 35.35H50V29.5H63.65V35.35Z" fill="#3D9AE2"/>
<path d="M46.1 27.55H38.3V29.5H46.1V27.55Z" fill="#3D9AE2"/>
<path d="M36.35 27.55H34.4V29.5H36.35V27.55Z" fill="#3D9AE2"/>
<path d="M46.1 31.45H38.3V33.4H46.1V31.45Z" fill="#3D9AE2"/>
<path d="M65.6 41.2H51.95V43.15H65.6V41.2Z" fill="#3D9AE2"/>
<path d="M50 41.2H48.05V43.15H50V41.2Z" fill="#3D9AE2"/>
<path d="M65.6 45.1001H48.05V47.0501H65.6V45.1001Z" fill="#3D9AE2"/>
<path d="M65.6 49H48.05V50.95H65.6V49Z" fill="#3D9AE2"/>
<path d="M65.6 52.8999H48.05V54.8499H65.6V52.8999Z" fill="#3D9AE2"/>
<path d="M65.6 56.8H48.05V58.75H65.6V56.8Z" fill="#3D9AE2"/>
<path d="M65.6 60.7H48.05V62.65H65.6V60.7Z" fill="#3D9AE2"/>
</svg>
