<svg width="150" height="150" viewBox="0 0 150 150" fill="none" xmlns="http://www.w3.org/2000/svg">
<path d="M61.8347 112.555L61.8837 113H62.3317H68.75H69.25V112.5V81.75H80.75V112.5V113H81.25H87.6681H88.1162L88.1651 112.555C88.9733 105.198 92.7247 99.0953 98.9157 92.3545C99.1524 92.097 99.8309 91.3864 100.646 90.5325C101.024 90.1372 101.431 89.7112 101.836 89.2853C103.102 87.957 104.382 86.6049 104.666 86.2511L104.666 86.2509C110.034 79.5566 113 71.2708 113 62.5C113 41.5132 95.9868 24.5 75 24.5C54.0132 24.5 37 41.5132 37 62.5C37 71.2664 39.9626 79.5477 45.3262 86.2402C45.6106 86.5951 46.8932 87.9509 48.1604 89.2814C48.5698 89.7113 48.98 90.1411 49.36 90.5392C50.172 91.3898 50.8459 92.0957 51.0788 92.3494L51.0789 92.3495C57.2739 99.0947 61.0263 105.198 61.8347 112.555ZM62.5 124.5H62V125V131.25V131.75H62.5H87.5H88V131.25V125V124.5H87.5H62.5ZM36.3524 93.4323C29.5615 84.9584 25.5 74.2041 25.5 62.5C25.5 35.1619 47.6619 13 75 13C102.338 13 124.5 35.1619 124.5 62.5C124.5 74.2103 120.434 84.9696 113.637 93.446C112.76 94.5391 111.552 95.7843 110.189 97.1894C110.074 97.3079 109.958 97.4275 109.841 97.5482C108.344 99.0923 106.698 100.809 105.173 102.672C102.131 106.387 99.5 110.759 99.5 115.625V131.25C99.5 137.878 94.1276 143.25 87.5 143.25H62.5C55.8726 143.25 50.5 137.878 50.5 131.25V115.625C50.5 110.759 47.8669 106.385 44.8225 102.668C43.2956 100.803 41.6489 99.085 40.1511 97.5393C40.0358 97.4203 39.9214 97.3024 39.8081 97.1856C38.4417 95.7768 37.2307 94.5283 36.3524 93.4323Z" fill="#F1EC78" stroke="#BA9D04"/>
<path d="M59.9337 66.9649C59.426 63.0356 56.0675 60 52 60C47.5817 60 44 63.5817 44 68C44 69.8924 44.6571 71.6313 45.7555 73.0011C46.5635 74.0087 47.0003 75.1252 47.0002 76.3061L47 80H56L56.001 77H58C59.1046 77 60 76.1046 60 75V72.071L61.9593 71.2317C62.3025 71.0847 62.3324 70.7367 62.1842 70.5037L59.9337 66.9649ZM46 68C46 64.6863 48.6863 62 52 62C55.0243 62 57.5665 64.2514 57.9501 67.2212L58.0072 67.6626L59.5497 70.0881L58 70.7519V75H54.0017L54.0007 78H49.0001L49.0002 76.3063C49.0004 74.6672 48.4097 73.114 47.3158 71.7499C46.4682 70.6929 46 69.3849 46 68ZM64.1535 76.1024L62.4893 74.9929C63.4436 73.5642 64 71.8471 64 70.0001C64 68.153 63.4436 66.4359 62.4893 65.0072L64.1535 63.8977C65.32 65.6439 66 67.7425 66 70.0001C66 72.2576 65.32 74.3562 64.1535 76.1024Z" fill="#8C6B61"/>
<path d="M90.0663 57.9649C90.574 54.0356 93.9325 51 98 51C102.418 51 106 54.5817 106 59C106 60.8924 105.343 62.6313 104.244 64.0011C103.436 65.0087 103 66.1252 103 67.3061L103 71H94L93.999 68H92C90.8954 68 90 67.1046 90 66V63.071L88.0407 62.2317C87.6975 62.0847 87.6676 61.7367 87.8158 61.5037L90.0663 57.9649ZM104 59C104 55.6863 101.314 53 98 53C94.9757 53 92.4335 55.2514 92.0499 58.2212L91.9928 58.6626L90.4503 61.0881L92 61.7519V66H95.9983L95.9993 69H101L101 67.3063C101 65.6672 101.59 64.114 102.684 62.7499C103.532 61.6929 104 60.3849 104 59ZM85.8465 67.1024L87.5107 65.9929C86.5564 64.5642 86 62.8471 86 61.0001C86 59.153 86.5564 57.4359 87.5107 56.0072L85.8465 54.8977C84.68 56.6439 84 58.7425 84 61.0001C84 63.2576 84.68 65.3562 85.8465 67.1024Z" fill="#FDDDCA"/>
<path d="M60.3333 55C60.3333 51.3181 63.3181 48.3333 67 48.3333C70.6818 48.3333 73.6666 51.3181 73.6666 55C73.6666 58.6818 70.6818 61.6666 67 61.6666H60.3333L62.2859 59.714C61.0795 58.5076 60.3333 56.8409 60.3333 55ZM63.5523 60.3333H67C69.9455 60.3333 72.3333 57.9455 72.3333 55C72.3333 52.0545 69.9455 49.6666 67 49.6666C64.0545 49.6666 61.6666 52.0545 61.6666 55C61.6666 56.4349 62.2341 57.7766 63.2287 58.7712L64.1716 59.714L63.5523 60.3333ZM66.3333 51H67.6666V59H66.3333V51ZM63.6666 53H65V57H63.6666V53ZM69 53H70.3333V57H69V53Z" fill="#51C94F"/>
<path d="M84.924 48.3535L89.3333 49.3334L88.3535 44.924C88.9788 43.7547 89.3333 42.4188 89.3333 41C89.3333 36.3976 85.6024 32.6667 81 32.6667C76.3976 32.6667 72.6666 36.3976 72.6666 41C72.6666 45.6024 76.3976 49.3334 81 49.3334C82.4187 49.3334 83.7546 48.9789 84.924 48.3535ZM84.6827 46.5925L84.1381 46.8838C83.1812 47.3954 82.1121 47.6667 81 47.6667C77.3181 47.6667 74.3333 44.6819 74.3333 41C74.3333 37.3181 77.3181 34.3334 81 34.3334C84.6819 34.3334 87.6666 37.3181 87.6666 41C87.6666 42.1121 87.3954 43.1813 86.8837 44.1381L86.5925 44.6827L87.1382 47.1382L84.6827 46.5925ZM85.1666 41H83.5C83.5 42.3808 82.3807 43.5 81 43.5C79.6192 43.5 78.5 42.3808 78.5 41H76.8333C76.8333 43.3012 78.6988 45.1667 81 45.1667C83.3012 45.1667 85.1666 43.3012 85.1666 41Z" fill="#FFF500"/>
</svg>
