<svg width="85" height="85" viewBox="0 0 85 85" fill="none" xmlns="http://www.w3.org/2000/svg">
<rect width="85" height="85" rx="5" fill="#FFD584"/>
<path d="M42.2 73.4999C25.5 73.4999 11.9 59.8999 11.9 43.1999C11.9 26.4999 25.5 12.8999 42.2 12.8999C58.9 12.8999 72.5 26.4999 72.5 43.1999C72.5 59.8999 58.9 73.4999 42.2 73.4999ZM42.2 16.7999C27.7 16.7999 15.8 28.6999 15.8 43.1999C15.8 57.6999 27.6 69.4999 42.1 69.4999C56.6 69.4999 68.4 57.6999 68.4 43.1999C68.5 28.6999 56.7 16.7999 42.2 16.7999Z" fill="#F6782C"/>
<path d="M42.7 59.9H42.2C32.1 59.9 27.5 52.4 26.6 48.5L25.9 46H58.9L58.3 48.5C57.3 52.5 52.8 59.9 42.7 59.9ZM31.5 50C32.9 52.5 36 55.9 42.2 55.9H42.7C48.9 55.9 52 52.5 53.4 50H31.5Z" fill="#F6782C"/>
<path d="M31.7 40.8C33.633 40.8 35.2 39.233 35.2 37.3C35.2 35.3671 33.633 33.8 31.7 33.8C29.767 33.8 28.2 35.3671 28.2 37.3C28.2 39.233 29.767 40.8 31.7 40.8Z" fill="#F6782C"/>
<path d="M52.4 40.8C54.333 40.8 55.9 39.233 55.9 37.3C55.9 35.3671 54.333 33.8 52.4 33.8C50.467 33.8 48.9 35.3671 48.9 37.3C48.9 39.233 50.467 40.8 52.4 40.8Z" fill="#F6782C"/>
</svg>
