<svg width="85" height="85" viewBox="0 0 85 85" fill="none" xmlns="http://www.w3.org/2000/svg">
<rect width="85" height="85" rx="5" fill="#CBFFAB"/>
<path fill-rule="evenodd" clip-rule="evenodd" d="M43.1499 12.9102C26.5764 12.9102 13.0932 26.3933 13.0932 42.9667C13.0932 48.7969 14.7482 54.3964 17.8939 59.2563L13.328 69.3139C12.9071 70.2413 13.0604 71.3278 13.721 72.1024C14.2271 72.6957 14.9611 73.0238 15.7181 73.0238C15.9494 73.0238 16.1828 72.9932 16.4123 72.9301L28.993 69.4785C33.3361 71.8012 38.2068 73.0238 43.1499 73.0238C59.7233 73.0238 73.2068 59.5403 73.2068 42.9667C73.2068 26.3933 59.7233 12.9102 43.1499 12.9102ZM43.1499 67.7743C38.7602 67.7743 34.4409 66.6065 30.6591 64.3967C30.2537 64.1599 29.7961 64.0384 29.3351 64.0384C29.1023 64.0384 28.8687 64.0695 28.6406 64.1321L20.422 66.3869L23.2846 60.0808C23.6737 59.2233 23.5739 58.2235 23.0231 57.4602C19.961 53.2159 18.3427 48.2045 18.3427 42.9667C18.3427 29.2879 29.4711 18.1594 43.15 18.1594C56.8289 18.1594 67.9574 29.2879 67.9574 42.9667C67.9574 56.6457 56.8289 67.7743 43.1499 67.7743Z" fill="#00FB73"/>
<path fill-rule="evenodd" clip-rule="evenodd" d="M54.7058 47.4679C53.447 46.715 51.809 45.8744 50.3262 46.4811C49.1888 46.9466 48.4623 48.7274 47.7254 49.6369C47.3468 50.1036 46.8954 50.1765 46.3145 49.9427C42.0442 48.2416 38.7715 45.3906 36.415 41.4628C36.0159 40.8522 36.0875 40.3709 36.5686 39.8048C37.2809 38.967 38.1745 38.0151 38.367 36.8852C38.5595 35.7558 38.0299 34.4351 37.5629 33.4294C36.9662 32.1441 36.299 30.3112 35.0118 29.5842C33.8278 28.9156 32.2693 29.2899 31.2148 30.1486C29.3949 31.6307 28.5169 33.9526 28.5431 36.2545C28.5506 36.9085 28.631 37.5608 28.7838 38.192C29.1509 39.7103 29.8525 41.1278 30.6424 42.4757C31.2377 43.4919 31.8848 44.4781 32.5829 45.4264C34.8673 48.5295 37.709 51.226 40.9992 53.2412C42.6433 54.2481 44.4142 55.1313 46.2478 55.737C48.3044 56.4164 50.1368 57.1239 52.3574 56.702C54.6825 56.2605 56.9745 54.8217 57.8974 52.5809C58.1703 51.9179 58.3074 51.1789 58.1545 50.4783C57.8384 49.0297 55.8774 48.1686 54.7058 47.4679Z" fill="#00FB73"/>
</svg>
