<svg version="1.1" id="Layer_1" xmlns="http://www.w3.org/2000/svg" xmlns:xlink="http://www.w3.org/1999/xlink" x="0px" y="0px"
	 width="100%" viewBox="0 0 683 683" enable-background="new 0 0 683 683" xml:space="preserve">
<path fill="#FFFEFE" opacity="1.000000" stroke="none" 
	d="
M470.000000,684.000000 
	C313.333344,684.000000 157.166672,684.000000 1.000000,684.000000 
	C1.000000,456.333344 1.000000,228.666672 1.000000,1.000000 
	C228.666672,1.000000 456.333344,1.000000 684.000000,1.000000 
	C684.000000,228.666672 684.000000,456.333344 684.000000,684.000000 
	C612.833313,684.000000 541.666687,684.000000 470.000000,684.000000 
M208.438370,426.178162 
	C209.858246,428.137970 211.973831,429.913635 212.551559,432.096344 
	C213.714569,436.490326 214.039917,441.106018 214.735779,445.798096 
	C219.780029,445.094666 224.184158,444.329193 228.621292,443.951416 
	C230.000183,443.834045 231.468552,444.767487 233.007111,446.023834 
	C235.591782,446.026733 238.404510,446.627716 240.660141,445.767639 
	C241.709778,445.367401 242.247406,442.067719 242.036560,440.192627 
	C241.203171,432.781464 239.981552,425.414032 239.076920,419.215790 
	C236.417679,417.379700 234.548599,416.089203 232.052719,414.365936 
	C240.155304,411.796295 240.155304,411.796295 239.232803,408.445740 
	C235.651230,408.928925 232.058640,409.413605 228.466034,409.898285 
	C228.673264,409.486145 228.880478,409.074005 229.087692,408.661865 
	C227.766830,407.796661 226.445969,406.931458 225.046997,406.015076 
	C223.591293,408.661987 222.569733,410.519470 222.039581,411.483459 
	C217.683243,411.820618 214.157242,412.093506 211.193161,412.322906 
	C210.078033,411.139801 209.200119,409.962311 208.057114,409.164581 
	C207.762756,408.959167 206.332291,409.766876 205.939621,410.419525 
	C203.834579,413.918396 201.892654,417.515442 199.413666,421.935760 
	C201.660751,421.935760 203.363510,421.935760 205.131516,422.691193 
	C206.089325,424.148163 207.047119,425.605164 207.185089,427.069550 
	C206.121323,428.114502 204.052765,429.270020 204.153656,430.186829 
	C204.922623,437.174896 206.115067,444.116364 207.193954,451.191986 
	C208.769989,450.994629 209.862625,450.857788 211.461807,450.657532 
	C210.241669,442.540619 209.070862,434.751678 208.438370,426.178162 
M273.952271,419.965424 
	C273.788910,419.817383 273.625519,419.669312 274.062073,418.995087 
	C280.367188,417.882904 286.672302,416.770691 293.186249,415.621643 
	C292.277313,409.834290 291.436951,404.483551 290.564270,398.927185 
	C280.466309,400.445312 270.820160,401.895538 260.451843,403.454346 
	C263.160645,409.316650 259.766937,416.626434 266.779022,421.196533 
	C264.368500,423.229248 261.654083,425.518219 258.940857,427.806183 
	C260.807251,430.939301 262.728943,430.312622 265.139465,428.582764 
	C267.216583,427.092133 269.675293,426.133179 271.965271,424.939148 
	C272.376160,425.627075 272.787018,426.315002 273.197906,427.002930 
	C269.229126,429.592255 265.260315,432.181610 261.318298,434.753479 
	C264.058289,437.883301 264.278198,438.192383 267.141571,436.154968 
	C271.433258,433.101166 275.346619,429.520294 279.491180,426.252747 
	C280.972992,425.084534 282.659027,424.175385 284.251831,423.147980 
	C284.794403,423.805695 285.337006,424.463379 285.879578,425.121094 
	C280.938293,430.000580 275.997009,434.880035 270.836639,439.975861 
	C271.571381,440.597321 272.610779,441.476532 274.756683,443.291718 
	C280.947845,436.144196 286.871887,429.305054 292.747528,422.521759 
	C296.041138,430.936493 294.584106,433.988739 284.520142,436.809845 
	C287.187317,438.180084 288.833099,439.768707 290.349152,439.653320 
	C293.745941,439.394775 297.930847,438.985291 298.093872,434.319519 
	C298.287567,428.776611 297.755737,423.208344 297.526550,417.350708 
	C289.178223,418.465607 281.797089,419.451385 273.952271,419.965424 
M402.760254,402.795654 
	C404.284668,398.196228 400.627533,399.220947 397.117676,398.797424 
	C399.603882,398.110962 400.925934,397.745941 402.573242,397.291138 
	C401.816559,393.169342 401.113251,389.338440 400.673248,386.941650 
	C401.957581,384.510254 402.734436,383.039551 404.136932,380.384491 
	C389.125916,382.614471 375.860596,384.585144 362.595245,386.555817 
	C362.348724,387.012634 362.102203,387.469421 361.855682,387.926239 
	C363.335419,389.250122 364.815125,390.574005 366.237457,391.846558 
	C366.968475,396.935120 367.739075,402.299042 368.513611,407.690460 
	C370.663422,407.895020 372.503571,408.070129 375.836121,408.387268 
	C371.651550,409.246979 368.944183,409.803223 366.236847,410.359436 
	C366.053284,410.856262 365.869690,411.353088 365.686096,411.849945 
	C366.983887,412.548920 368.269135,413.802521 369.582092,413.832306 
	C372.378204,413.895660 375.188660,413.323578 377.709778,413.619110 
	C374.177643,416.517639 370.645477,419.416138 367.041382,422.373688 
	C368.861267,424.877258 370.766449,425.676941 373.390350,423.254822 
	C376.265717,420.600647 379.336456,418.158142 382.356537,415.594147 
	C381.478394,414.162506 380.837006,413.116852 381.031708,412.103271 
	C383.512085,411.620453 385.158661,412.041687 385.126404,415.156769 
	C385.107849,416.945892 385.424255,418.830383 386.044495,420.503418 
	C386.492218,421.711212 387.688904,422.641327 388.551544,423.695312 
	C389.078156,422.391571 390.062592,421.078674 390.036865,419.785919 
	C389.981842,417.022247 389.403961,414.269043 389.025085,411.396667 
	C390.628052,410.952942 392.043030,410.561249 393.134430,410.937927 
	C392.117920,412.898743 391.606598,414.396637 394.651428,415.222931 
	C397.650940,416.036987 400.583160,417.334961 403.313751,418.839996 
	C406.304474,420.488464 407.441315,419.179626 408.317474,416.440491 
	C404.107483,414.252686 399.964813,412.099884 396.654175,409.935547 
	C399.999969,409.335327 403.345764,408.735138 406.453339,408.177673 
	C406.863403,403.528320 404.287415,404.381622 402.040344,403.983276 
	C402.045197,403.719666 402.050018,403.456055 402.760254,402.795654 
M188.499207,547.995239 
	C174.653687,542.332458 160.795792,536.699646 146.967606,530.994873 
	C139.579941,527.947083 135.128799,522.698608 132.951523,514.721375 
	C111.111061,434.701202 89.021355,354.749084 67.040565,274.767120 
	C62.767323,259.218018 58.162647,243.734970 54.630058,228.014893 
	C51.599941,214.530853 60.306690,204.185318 73.946503,203.862473 
	C101.410202,203.212418 128.876251,202.654892 156.342606,202.125427 
	C208.782272,201.114548 261.222351,200.124512 313.663177,199.176834 
	C340.802826,198.686386 367.945496,198.359619 395.084717,197.849518 
	C407.055603,197.624527 414.909515,203.459106 417.891632,215.189301 
	C418.952179,219.361069 419.980225,223.541077 421.082855,227.956635 
	C434.126953,226.980865 446.958282,226.021027 459.934570,225.050339 
	C460.640015,233.599396 461.340851,241.546021 461.902557,249.502502 
	C461.984955,250.669266 461.495972,251.913025 461.109802,253.067123 
	C460.605072,254.575562 459.114899,256.296753 459.491058,257.459991 
	C460.848450,261.657562 457.175323,267.635040 463.726318,270.053009 
	C463.873596,270.107361 463.849609,270.676208 463.873322,271.007385 
	C464.497070,279.722992 465.116608,288.438934 465.758118,297.454254 
	C456.487915,298.190979 447.780579,298.882996 438.447845,299.624725 
	C442.216125,314.861572 445.823853,329.449219 449.480774,344.235931 
	C454.071075,343.731110 458.156311,343.281830 462.582520,342.795074 
	C463.794128,352.381714 464.952911,361.550781 466.146515,370.995148 
	C462.847137,371.564880 459.977539,372.060364 456.664459,372.632446 
	C461.479095,391.777252 466.195923,410.620392 471.016449,429.436981 
	C471.251526,430.354584 472.265533,431.512421 473.138611,431.752838 
	C477.572021,432.973450 482.078674,433.928131 486.472351,434.955597 
	C531.097046,334.889099 505.855133,211.669281 411.993225,138.661194 
	C319.763611,66.922798 190.740921,69.917099 100.254539,145.636444 
	C12.758383,218.853561 -12.539255,347.201233 40.620098,448.210938 
	C62.889904,490.526459 94.548752,523.927612 135.785477,548.164612 
	C174.509567,570.924744 244.046585,588.042175 269.420715,580.915344 
	C242.438065,569.915283 215.836929,559.070801 188.499207,547.995239 
M544.138245,460.435272 
	C518.141052,454.049591 492.159760,447.597443 466.124390,441.371399 
	C463.224091,440.677826 461.996887,439.467163 461.351593,436.688965 
	C459.019470,426.648651 456.478607,416.656647 453.997955,406.651031 
	C451.293640,395.743103 448.568665,384.840332 445.798126,373.716125 
	C442.212189,374.240387 439.167999,374.685455 435.985260,375.150757 
	C439.063538,387.847748 442.035339,399.953033 444.924164,412.078125 
	C446.675171,419.427643 446.460327,419.665039 438.903687,420.824768 
	C410.621277,425.165375 382.341400,429.522552 354.056641,433.847809 
	C287.284912,444.058533 220.507950,454.235260 153.744781,464.501740 
	C149.499634,465.154541 147.108826,463.811279 146.000244,459.658691 
	C126.620377,387.063416 107.204636,314.477661 87.803780,241.887970 
	C86.254913,236.092789 88.232460,233.368210 94.229233,233.184753 
	C127.671532,232.161697 161.114426,231.157852 194.558044,230.178848 
	C222.348236,229.365341 250.141495,228.653625 277.930145,227.791611 
	C316.525513,226.594330 355.117065,225.271515 393.714020,224.130508 
	C395.520935,224.077087 397.500275,225.021378 399.162781,225.932617 
	C402.536835,227.781937 405.748749,229.927048 409.027466,231.950226 
	C409.519989,231.492783 410.012482,231.035339 410.504974,230.577896 
	C408.969604,225.055725 407.761932,219.413086 405.790619,214.051208 
	C404.331329,210.082062 400.813934,208.670258 396.495300,208.784378 
	C379.849304,209.224243 363.199249,209.517868 346.549805,209.817093 
	C290.108643,210.831467 233.667343,211.839294 177.225616,212.820953 
	C144.259323,213.394333 111.290924,213.852325 78.325890,214.487549 
	C65.895950,214.727066 63.140671,218.591003 66.189270,230.763153 
	C66.350716,231.407776 66.615143,232.026016 66.791779,232.667511 
	C92.123466,324.663513 117.546272,416.634796 142.597977,508.707001 
	C144.582169,515.999573 148.173370,519.982483 154.924377,522.707825 
	C213.481171,546.346863 271.975708,570.140991 330.423157,594.049194 
	C341.063873,598.401917 351.471588,598.781067 362.543152,595.685181 
	C461.474304,568.021790 560.460388,540.554810 659.430969,513.032471 
	C667.724487,510.726196 671.257202,506.371063 672.011292,497.898010 
	C672.338135,494.224579 671.425964,492.109161 667.408630,491.121735 
	C626.555908,481.080688 585.744324,470.872345 544.138245,460.435272 
M258.844330,329.192596 
	C262.433624,328.750427 266.022888,328.308289 269.934601,327.826416 
	C269.182648,322.347168 268.494537,317.332947 267.784912,312.162048 
	C251.849503,314.195587 236.407196,316.166168 220.484451,318.198090 
	C223.727753,343.801575 226.912109,368.939789 230.131027,394.350739 
	C236.501282,393.495239 242.209488,392.728638 248.323669,391.907532 
	C247.097656,381.790253 245.927139,372.130859 244.713058,362.111969 
	C253.491562,360.939697 261.826965,359.826599 270.610168,358.653687 
	C269.915253,353.295227 269.267365,348.299194 268.602631,343.173462 
	C259.671997,344.242828 251.310959,345.243988 242.629944,346.283478 
	C242.003922,341.135590 241.448181,336.565826 240.850830,331.653717 
	C246.828918,330.846619 252.396317,330.094940 258.844330,329.192596 
M331.901733,282.144928 
	C332.155212,280.837463 332.457153,279.537262 332.654907,278.221405 
	C335.986267,256.056061 316.139191,238.144958 295.537781,244.715424 
	C282.835968,248.766418 274.401459,261.422150 275.541260,274.719543 
	C276.828735,289.739868 286.743774,301.222778 299.930420,302.965240 
	C314.453674,304.884338 326.036652,297.573914 331.901733,282.144928 
M182.600113,306.597076 
	C181.981964,298.357544 181.363815,290.118011 180.656265,280.686646 
	C193.750381,291.133148 205.937424,300.855957 219.215622,311.449310 
	C217.601379,290.502686 216.123947,271.331360 214.621979,251.841766 
	C210.204727,252.273193 206.299881,252.654587 202.099655,253.064819 
	C202.834991,263.039642 203.537720,272.572357 204.325531,283.258942 
	C191.250687,272.816833 179.084152,263.100128 166.917618,253.383438 
	C166.587006,253.701355 166.256393,254.019257 165.925781,254.337173 
	C167.388229,273.366638 168.850693,292.396088 170.330856,311.655975 
	C174.007111,311.415527 177.336700,311.439636 180.547134,310.833099 
	C181.452194,310.662048 182.008072,308.642944 182.600113,306.597076 
M383.145447,362.445557 
	C382.985779,360.581604 382.826111,358.717651 382.639404,356.537659 
	C369.602661,366.520447 360.728607,368.035187 353.524536,361.819794 
	C347.636108,356.739471 345.448853,345.813171 349.619659,338.914337 
	C351.403717,335.963348 354.336029,333.182922 357.407166,331.638489 
	C364.679199,327.981384 371.419769,331.259125 378.011841,335.390839 
	C378.011841,331.607422 377.703766,328.579956 378.085541,325.642120 
	C378.629578,321.455780 376.707306,319.827423 372.968933,318.697968 
	C360.177002,314.833160 346.398315,319.203156 338.773254,329.858521 
	C331.195190,340.448120 331.573303,356.449890 339.657562,367.285767 
	C347.416168,377.685120 360.894714,381.661865 373.620422,377.306274 
	C383.223755,374.019348 384.062927,372.788086 383.145447,362.445557 
M443.556580,290.995697 
	C447.968628,290.597351 452.380676,290.199036 457.102142,289.772766 
	C456.703735,285.648743 456.344940,281.934418 455.958710,277.936554 
	C448.633942,278.436829 441.716278,278.909332 434.324982,279.414154 
	C434.128448,275.779785 433.953796,272.549561 433.756683,268.903931 
	C439.988251,268.334229 445.835114,267.799652 452.002838,267.235779 
	C451.567444,263.111847 451.193115,259.566254 450.789215,255.740601 
	C444.573334,256.165253 438.813873,256.558746 432.679108,256.977875 
	C432.429077,253.635086 432.201782,250.596725 431.958496,247.344284 
	C439.276520,246.741516 446.008820,246.186996 453.250488,245.590530 
	C452.974274,241.583038 452.719421,237.884979 452.438416,233.807755 
	C440.622864,234.721756 429.415924,235.588654 417.753052,236.490845 
	C419.219574,255.468338 420.647064,273.940979 422.084839,292.546509 
	C429.380249,292.001129 436.001892,291.506134 443.556580,290.995697 
M332.528229,374.008057 
	C321.935516,357.715668 311.342804,341.423279 300.110718,324.147461 
	C292.561981,345.958069 285.355255,366.780487 277.951721,388.171539 
	C282.450562,387.662720 286.096588,387.393951 289.677246,386.757629 
	C290.748230,386.567291 292.409943,385.421173 292.486664,384.591370 
	C293.113647,377.812317 297.541077,376.667175 303.185181,376.603027 
	C306.319366,376.567413 309.505188,376.058655 312.559631,375.317566 
	C316.192047,374.436249 318.461945,375.353760 320.139221,378.813263 
	C320.855988,380.291656 322.781677,382.155640 324.160492,382.157593 
	C328.161774,382.163330 332.164307,381.315094 336.833496,380.716370 
	C335.238617,378.215088 334.092224,376.417175 332.528229,374.008057 
M407.384094,278.899384 
	C405.639374,279.858063 403.965027,280.985840 402.137817,281.746307 
	C394.041718,285.115875 385.877838,283.080750 381.646545,276.750305 
	C376.994202,269.789917 377.667511,259.267334 383.130310,253.560516 
	C388.408600,248.046432 397.315216,247.471558 404.707306,252.170990 
	C406.008362,252.998138 407.301910,253.837112 409.176544,255.041763 
	C409.176544,250.727798 409.504517,247.193680 409.038422,243.767593 
	C408.804657,242.049469 407.502380,239.752213 406.039307,239.040070 
	C394.008972,233.184525 378.214020,237.377869 370.324524,248.228653 
	C361.984100,259.699615 363.079346,277.181824 372.778839,287.403748 
	C382.318665,297.457397 398.397095,299.534485 409.738861,291.948242 
	C411.105743,291.033966 412.252228,288.939392 412.432892,287.275848 
	C412.834259,283.580505 412.558044,279.811584 412.558044,274.944794 
	C410.285278,276.681152 409.139404,277.556580 407.384094,278.899384 
M228.334244,269.185547 
	C235.478195,282.099487 242.622162,295.013428 250.356476,308.994568 
	C258.108765,287.791656 265.331390,268.037415 272.759399,247.721359 
	C269.750549,247.857544 267.301697,248.193253 264.887268,248.027695 
	C260.724304,247.742218 258.804565,249.487228 257.583313,253.534363 
	C254.999939,262.095490 251.770203,270.461609 248.550507,279.634338 
	C243.780045,270.568298 239.358505,262.060181 234.800278,253.625885 
	C234.177673,252.473862 232.882706,250.887527 231.883026,250.875854 
	C227.684921,250.826935 223.480728,251.300079 218.770462,251.616196 
	C222.121948,257.757812 225.061218,263.144073 228.334244,269.185547 
M418.645264,352.961884 
	C419.336090,358.546051 420.026917,364.130249 420.774200,370.170746 
	C433.007629,368.623108 444.818207,367.128937 457.002563,365.587463 
	C456.397034,361.188507 455.847931,357.199310 455.278046,353.059387 
	C447.646027,354.005341 440.595032,354.879303 433.186615,355.797577 
	C431.251617,340.796448 429.345245,326.017456 427.396698,310.911438 
	C422.577545,311.583496 418.241394,312.188202 413.553131,312.842041 
	C415.233643,326.363220 416.832397,339.226288 418.645264,352.961884 
M152.383087,313.915833 
	C152.528671,313.120239 152.855698,312.309937 152.792725,311.531219 
	C151.786957,299.095398 150.744080,286.662506 149.682724,274.231262 
	C148.949326,265.641327 148.174622,257.054901 147.391708,248.164185 
	C141.934647,248.674088 136.915024,249.143112 131.487106,249.650284 
	C133.344940,271.905121 135.149750,293.524628 136.981125,315.462463 
	C142.299896,314.982697 146.918518,314.566071 152.383087,313.915833 
M401.022339,318.631165 
	C401.227936,315.438782 400.109100,314.056061 396.635956,314.836578 
	C393.463776,315.549500 390.177246,315.753479 386.557953,316.232483 
	C389.003967,335.534546 391.392151,354.380463 393.823212,373.564789 
	C398.811646,372.911316 403.171478,372.340210 407.767090,371.738190 
	C405.499847,354.003082 403.292419,336.735626 401.022339,318.631165 
M322.987061,400.460968 
	C321.417877,400.652527 319.848694,400.844116 317.986572,401.071442 
	C318.199158,399.329926 318.354340,398.194977 318.471893,397.056122 
	C318.584991,395.960693 318.659149,394.861237 318.749512,393.774384 
	C314.241577,393.277252 312.330017,398.062988 313.552277,406.074921 
	C316.901520,405.720917 320.253510,405.366608 325.299866,404.833191 
	C321.380737,414.129395 318.011780,422.120667 314.222992,431.107727 
	C316.204742,430.967102 318.162994,430.828125 320.380737,430.670746 
	C321.015411,431.342804 322.030273,432.417358 323.169037,433.623108 
	C324.760742,432.933411 326.538849,432.606110 327.709076,431.583282 
	C334.826019,425.362946 342.284546,423.734283 350.878967,428.686401 
	C353.542480,430.221130 355.165680,428.638123 354.985840,425.557098 
	C350.611847,424.053284 346.408936,422.608246 342.125519,421.135559 
	C344.179871,415.699341 349.074127,411.635651 347.535767,405.054230 
	C340.915314,405.982880 334.611694,406.867096 328.308105,407.751282 
	C328.044739,407.254333 327.781372,406.757416 327.518005,406.260468 
	C328.773071,405.388580 329.928070,404.002075 331.300751,403.735168 
	C336.846771,402.656677 342.438690,401.717316 348.056030,401.137573 
	C351.581726,400.773682 351.873688,399.335480 350.519409,396.635284 
	C348.802032,396.768036 347.150818,396.895691 345.559265,397.018738 
	C344.861481,392.075592 340.321472,392.162262 337.217102,390.618317 
	C336.642853,390.332733 335.004211,392.187439 333.612976,393.238556 
	C336.472229,394.811768 338.688873,396.031403 341.803009,397.744843 
	C336.855469,398.409241 333.125031,398.910187 328.930542,399.473450 
	C328.930542,396.394226 328.930542,393.806213 328.930542,390.888824 
	C327.286987,391.095978 326.090393,391.246796 325.224762,391.355896 
	C324.683716,394.560272 324.219482,397.309753 322.987061,400.460968 
M342.244354,275.282776 
	C342.902832,282.994049 343.561310,290.705322 344.222687,298.450500 
	C349.036591,298.093201 353.267975,297.779175 357.724884,297.448364 
	C356.268188,278.420074 354.864349,260.081879 353.437958,241.448944 
	C348.574829,241.802155 344.365509,242.107864 339.884827,242.433304 
	C340.668793,253.456406 341.411835,263.904449 342.244354,275.282776 
z"/>
<path fill="#D50D3B" opacity="1.000000" stroke="none" 
	d="
M188.867493,548.110718 
	C215.836929,559.070801 242.438065,569.915283 269.420715,580.915344 
	C244.046585,588.042175 174.509567,570.924744 135.785477,548.164612 
	C94.548752,523.927612 62.889904,490.526459 40.620098,448.210938 
	C-12.539255,347.201233 12.758383,218.853561 100.254539,145.636444 
	C190.740921,69.917099 319.763611,66.922798 411.993225,138.661194 
	C505.855133,211.669281 531.097046,334.889099 486.472351,434.955597 
	C482.078674,433.928131 477.572021,432.973450 473.138611,431.752838 
	C472.265533,431.512421 471.251526,430.354584 471.016449,429.436981 
	C466.195923,410.620392 461.479095,391.777252 456.664459,372.632446 
	C459.977539,372.060364 462.847137,371.564880 466.146515,370.995148 
	C464.952911,361.550781 463.794128,352.381714 462.582520,342.795074 
	C458.156311,343.281830 454.071075,343.731110 449.480774,344.235931 
	C445.823853,329.449219 442.216125,314.861572 438.447845,299.624725 
	C447.780579,298.882996 456.487915,298.190979 465.758118,297.454254 
	C465.116608,288.438934 464.497070,279.722992 463.873322,271.007385 
	C463.849609,270.676208 463.873596,270.107361 463.726318,270.053009 
	C457.175323,267.635040 460.848450,261.657562 459.491058,257.459991 
	C459.114899,256.296753 460.605072,254.575562 461.109802,253.067123 
	C461.495972,251.913025 461.984955,250.669266 461.902557,249.502502 
	C461.340851,241.546021 460.640015,233.599396 459.934570,225.050339 
	C446.958282,226.021027 434.126953,226.980865 421.082855,227.956635 
	C419.980225,223.541077 418.952179,219.361069 417.891632,215.189301 
	C414.909515,203.459106 407.055603,197.624527 395.084717,197.849518 
	C367.945496,198.359619 340.802826,198.686386 313.663177,199.176834 
	C261.222351,200.124512 208.782272,201.114548 156.342606,202.125427 
	C128.876251,202.654892 101.410202,203.212418 73.946503,203.862473 
	C60.306690,204.185318 51.599941,214.530853 54.630058,228.014893 
	C58.162647,243.734970 62.767323,259.218018 67.040565,274.767120 
	C89.021355,354.749084 111.111061,434.701202 132.951523,514.721375 
	C135.128799,522.698608 139.579941,527.947083 146.967606,530.994873 
	C160.795792,536.699646 174.653687,542.332458 188.867493,548.110718 
z"/>
<path fill="#D60F3D" opacity="1.000000" stroke="none" 
	d="
M544.529724,460.573059 
	C585.744324,470.872345 626.555908,481.080688 667.408630,491.121735 
	C671.425964,492.109161 672.338135,494.224579 672.011292,497.898010 
	C671.257202,506.371063 667.724487,510.726196 659.430969,513.032471 
	C560.460388,540.554810 461.474304,568.021790 362.543152,595.685181 
	C351.471588,598.781067 341.063873,598.401917 330.423157,594.049194 
	C271.975708,570.140991 213.481171,546.346863 154.924377,522.707825 
	C148.173370,519.982483 144.582169,515.999573 142.597977,508.707001 
	C117.546272,416.634796 92.123466,324.663513 66.791779,232.667511 
	C66.615143,232.026016 66.350716,231.407776 66.189270,230.763153 
	C63.140671,218.591003 65.895950,214.727066 78.325890,214.487549 
	C111.290924,213.852325 144.259323,213.394333 177.225616,212.820953 
	C233.667343,211.839294 290.108643,210.831467 346.549805,209.817093 
	C363.199249,209.517868 379.849304,209.224243 396.495300,208.784378 
	C400.813934,208.670258 404.331329,210.082062 405.790619,214.051208 
	C407.761932,219.413086 408.969604,225.055725 410.504974,230.577896 
	C410.012482,231.035339 409.519989,231.492783 409.027466,231.950226 
	C405.748749,229.927048 402.536835,227.781937 399.162781,225.932617 
	C397.500275,225.021378 395.520935,224.077087 393.714020,224.130508 
	C355.117065,225.271515 316.525513,226.594330 277.930145,227.791611 
	C250.141495,228.653625 222.348236,229.365341 194.558044,230.178848 
	C161.114426,231.157852 127.671532,232.161697 94.229233,233.184753 
	C88.232460,233.368210 86.254913,236.092789 87.803780,241.887970 
	C107.204636,314.477661 126.620377,387.063416 146.000244,459.658691 
	C147.108826,463.811279 149.499634,465.154541 153.744781,464.501740 
	C220.507950,454.235260 287.284912,444.058533 354.056641,433.847809 
	C382.341400,429.522552 410.621277,425.165375 438.903687,420.824768 
	C446.460327,419.665039 446.675171,419.427643 444.924164,412.078125 
	C442.035339,399.953033 439.063538,387.847748 435.985260,375.150757 
	C439.167999,374.685455 442.212189,374.240387 445.798126,373.716125 
	C448.568665,384.840332 451.293640,395.743103 453.997955,406.651031 
	C456.478607,416.656647 459.019470,426.648651 461.351593,436.688965 
	C461.996887,439.467163 463.224091,440.677826 466.124390,441.371399 
	C492.159760,447.597443 518.141052,454.049591 544.529724,460.573059 
M340.563080,581.019714 
	C344.431183,583.390381 348.342926,582.927429 352.548035,581.753845 
	C401.542389,568.079407 450.566040,554.509766 499.586700,540.929749 
	C548.130432,527.481812 596.683228,514.066406 645.212830,500.567596 
	C647.088074,500.045990 648.763245,498.805450 650.531677,497.899963 
	C650.352295,497.430023 650.172852,496.960083 649.993469,496.490143 
	C648.100159,495.969299 646.213684,495.421631 644.312500,494.931610 
	C582.003784,478.872498 519.701294,462.789368 457.361328,446.852631 
	C454.270142,446.062408 450.741211,445.957489 447.601746,446.537750 
	C404.095520,454.579315 360.620941,462.792480 317.140259,470.972168 
	C265.813721,480.627869 214.486099,490.277985 163.174667,500.013397 
	C161.503479,500.330475 160.004166,501.553436 158.424728,502.354126 
	C158.513351,502.826294 158.601974,503.298492 158.690598,503.770691 
	C219.067520,529.439758 279.444427,555.108887 340.563080,581.019714 
z"/>
<path fill="#D6103D" opacity="1.000000" stroke="none" 
	d="
M258.404022,329.267944 
	C252.396317,330.094940 246.828918,330.846619 240.850830,331.653717 
	C241.448181,336.565826 242.003922,341.135590 242.629944,346.283478 
	C251.310959,345.243988 259.671997,344.242828 268.602631,343.173462 
	C269.267365,348.299194 269.915253,353.295227 270.610168,358.653687 
	C261.826965,359.826599 253.491562,360.939697 244.713058,362.111969 
	C245.927139,372.130859 247.097656,381.790253 248.323669,391.907532 
	C242.209488,392.728638 236.501282,393.495239 230.131027,394.350739 
	C226.912109,368.939789 223.727753,343.801575 220.484451,318.198090 
	C236.407196,316.166168 251.849503,314.195587 267.784912,312.162048 
	C268.494537,317.332947 269.182648,322.347168 269.934601,327.826416 
	C266.022888,328.308289 262.433624,328.750427 258.404022,329.267944 
z"/>
<path fill="#D6103D" opacity="1.000000" stroke="none" 
	d="
M331.792480,282.534973 
	C326.036652,297.573914 314.453674,304.884338 299.930420,302.965240 
	C286.743774,301.222778 276.828735,289.739868 275.541260,274.719543 
	C274.401459,261.422150 282.835968,248.766418 295.537781,244.715424 
	C316.139191,238.144958 335.986267,256.056061 332.654907,278.221405 
	C332.457153,279.537262 332.155212,280.837463 331.792480,282.534973 
M317.304230,281.507233 
	C317.505249,276.799103 318.603058,271.910919 317.702026,267.424103 
	C316.267151,260.278870 308.872009,255.438187 302.582886,256.271454 
	C295.543060,257.204224 290.520355,262.819641 289.688080,270.687927 
	C288.795654,279.125000 292.987885,286.893494 299.825928,289.474182 
	C306.359528,291.939911 312.265320,289.442841 317.304230,281.507233 
z"/>
<path fill="#D6113F" opacity="1.000000" stroke="none" 
	d="
M182.662109,307.034271 
	C182.008072,308.642944 181.452194,310.662048 180.547134,310.833099 
	C177.336700,311.439636 174.007111,311.415527 170.330856,311.655975 
	C168.850693,292.396088 167.388229,273.366638 165.925781,254.337173 
	C166.256393,254.019257 166.587006,253.701355 166.917618,253.383438 
	C179.084152,263.100128 191.250687,272.816833 204.325531,283.258942 
	C203.537720,272.572357 202.834991,263.039642 202.099655,253.064819 
	C206.299881,252.654587 210.204727,252.273193 214.621979,251.841766 
	C216.123947,271.331360 217.601379,290.502686 219.215622,311.449310 
	C205.937424,300.855957 193.750381,291.133148 180.656265,280.686646 
	C181.363815,290.118011 181.981964,298.357544 182.662109,307.034271 
z"/>
<path fill="#D6113E" opacity="1.000000" stroke="none" 
	d="
M383.160339,362.866730 
	C384.062927,372.788086 383.223755,374.019348 373.620422,377.306274 
	C360.894714,381.661865 347.416168,377.685120 339.657562,367.285767 
	C331.573303,356.449890 331.195190,340.448120 338.773254,329.858521 
	C346.398315,319.203156 360.177002,314.833160 372.968933,318.697968 
	C376.707306,319.827423 378.629578,321.455780 378.085541,325.642120 
	C377.703766,328.579956 378.011841,331.607422 378.011841,335.390839 
	C371.419769,331.259125 364.679199,327.981384 357.407166,331.638489 
	C354.336029,333.182922 351.403717,335.963348 349.619659,338.914337 
	C345.448853,345.813171 347.636108,356.739471 353.524536,361.819794 
	C360.728607,368.035187 369.602661,366.520447 382.639404,356.537659 
	C382.826111,358.717651 382.985779,360.581604 383.160339,362.866730 
z"/>
<path fill="#D6123F" opacity="1.000000" stroke="none" 
	d="
M443.090057,291.003418 
	C436.001892,291.506134 429.380249,292.001129 422.084839,292.546509 
	C420.647064,273.940979 419.219574,255.468338 417.753052,236.490845 
	C429.415924,235.588654 440.622864,234.721756 452.438416,233.807755 
	C452.719421,237.884979 452.974274,241.583038 453.250488,245.590530 
	C446.008820,246.186996 439.276520,246.741516 431.958496,247.344284 
	C432.201782,250.596725 432.429077,253.635086 432.679108,256.977875 
	C438.813873,256.558746 444.573334,256.165253 450.789215,255.740601 
	C451.193115,259.566254 451.567444,263.111847 452.002838,267.235779 
	C445.835114,267.799652 439.988251,268.334229 433.756683,268.903931 
	C433.953796,272.549561 434.128448,275.779785 434.324982,279.414154 
	C441.716278,278.909332 448.633942,278.436829 455.958710,277.936554 
	C456.344940,281.934418 456.703735,285.648743 457.102142,289.772766 
	C452.380676,290.199036 447.968628,290.597351 443.090057,291.003418 
z"/>
<path fill="#D6103E" opacity="1.000000" stroke="none" 
	d="
M332.737030,374.313660 
	C334.092224,376.417175 335.238617,378.215088 336.833496,380.716370 
	C332.164307,381.315094 328.161774,382.163330 324.160492,382.157593 
	C322.781677,382.155640 320.855988,380.291656 320.139221,378.813263 
	C318.461945,375.353760 316.192047,374.436249 312.559631,375.317566 
	C309.505188,376.058655 306.319366,376.567413 303.185181,376.603027 
	C297.541077,376.667175 293.113647,377.812317 292.486664,384.591370 
	C292.409943,385.421173 290.748230,386.567291 289.677246,386.757629 
	C286.096588,387.393951 282.450562,387.662720 277.951721,388.171539 
	C285.355255,366.780487 292.561981,345.958069 300.110718,324.147461 
	C311.342804,341.423279 321.935516,357.715668 332.737030,374.313660 
M298.696808,366.876648 
	C302.895905,366.311432 307.094971,365.746216 311.908661,365.098297 
	C308.663696,359.426453 305.827454,354.469025 302.604736,348.836090 
	C300.920929,354.677521 299.493225,359.579681 298.109528,364.494263 
	C297.933502,365.119415 297.987488,365.809357 298.696808,366.876648 
z"/>
<path fill="#D6113E" opacity="1.000000" stroke="none" 
	d="
M407.688843,278.665680 
	C409.139404,277.556580 410.285278,276.681152 412.558044,274.944794 
	C412.558044,279.811584 412.834259,283.580505 412.432892,287.275848 
	C412.252228,288.939392 411.105743,291.033966 409.738861,291.948242 
	C398.397095,299.534485 382.318665,297.457397 372.778839,287.403748 
	C363.079346,277.181824 361.984100,259.699615 370.324524,248.228653 
	C378.214020,237.377869 394.008972,233.184525 406.039307,239.040070 
	C407.502380,239.752213 408.804657,242.049469 409.038422,243.767593 
	C409.504517,247.193680 409.176544,250.727798 409.176544,255.041763 
	C407.301910,253.837112 406.008362,252.998138 404.707306,252.170990 
	C397.315216,247.471558 388.408600,248.046432 383.130310,253.560516 
	C377.667511,259.267334 376.994202,269.789917 381.646545,276.750305 
	C385.877838,283.080750 394.041718,285.115875 402.137817,281.746307 
	C403.965027,280.985840 405.639374,279.858063 407.688843,278.665680 
z"/>
<path fill="#D6113E" opacity="1.000000" stroke="none" 
	d="
M228.167374,268.857910 
	C225.061218,263.144073 222.121948,257.757812 218.770462,251.616196 
	C223.480728,251.300079 227.684921,250.826935 231.883026,250.875854 
	C232.882706,250.887527 234.177673,252.473862 234.800278,253.625885 
	C239.358505,262.060181 243.780045,270.568298 248.550507,279.634338 
	C251.770203,270.461609 254.999939,262.095490 257.583313,253.534363 
	C258.804565,249.487228 260.724304,247.742218 264.887268,248.027695 
	C267.301697,248.193253 269.750549,247.857544 272.759399,247.721359 
	C265.331390,268.037415 258.108765,287.791656 250.356476,308.994568 
	C242.622162,295.013428 235.478195,282.099487 228.167374,268.857910 
z"/>
<path fill="#D6123F" opacity="1.000000" stroke="none" 
	d="
M418.538208,352.525635 
	C416.832397,339.226288 415.233643,326.363220 413.553131,312.842041 
	C418.241394,312.188202 422.577545,311.583496 427.396698,310.911438 
	C429.345245,326.017456 431.251617,340.796448 433.186615,355.797577 
	C440.595032,354.879303 447.646027,354.005341 455.278046,353.059387 
	C455.847931,357.199310 456.397034,361.188507 457.002563,365.587463 
	C444.818207,367.128937 433.007629,368.623108 420.774200,370.170746 
	C420.026917,364.130249 419.336090,358.546051 418.538208,352.525635 
z"/>
<path fill="#D6123F" opacity="1.000000" stroke="none" 
	d="
M151.960114,314.032654 
	C146.918518,314.566071 142.299896,314.982697 136.981125,315.462463 
	C135.149750,293.524628 133.344940,271.905121 131.487106,249.650284 
	C136.915024,249.143112 141.934647,248.674088 147.391708,248.164185 
	C148.174622,257.054901 148.949326,265.641327 149.682724,274.231262 
	C150.744080,286.662506 151.786957,299.095398 152.792725,311.531219 
	C152.855698,312.309937 152.528671,313.120239 151.960114,314.032654 
z"/>
<path fill="#D71944" opacity="1.000000" stroke="none" 
	d="
M377.993256,413.011902 
	C375.188660,413.323578 372.378204,413.895660 369.582092,413.832306 
	C368.269135,413.802521 366.983887,412.548920 365.686096,411.849945 
	C365.869690,411.353088 366.053284,410.856262 366.236847,410.359436 
	C368.944183,409.803223 371.651550,409.246979 375.836121,408.387268 
	C372.503571,408.070129 370.663422,407.895020 368.513611,407.690460 
	C367.739075,402.299042 366.968475,396.935120 366.237457,391.846558 
	C364.815125,390.574005 363.335419,389.250122 361.855682,387.926239 
	C362.102203,387.469421 362.348724,387.012634 362.595245,386.555817 
	C375.860596,384.585144 389.125916,382.614471 404.136932,380.384491 
	C402.734436,383.039551 401.957581,384.510254 400.673248,386.941650 
	C401.113251,389.338440 401.816559,393.169342 402.573242,397.291138 
	C400.925934,397.745941 399.603882,398.110962 397.117676,398.797424 
	C400.627533,399.220947 404.284668,398.196228 401.994965,402.952545 
	C393.926483,404.110626 386.623322,405.111816 378.958466,406.083344 
	C377.864532,406.471222 377.132263,406.888733 376.399963,407.306213 
	C377.239960,407.583344 378.079956,407.860474 379.348297,408.029968 
	C387.180023,406.872406 394.583405,405.822479 401.986786,404.772583 
	C404.287415,404.381622 406.863403,403.528320 406.453339,408.177673 
	C403.345764,408.735138 399.999969,409.335327 395.997681,409.948242 
	C394.713501,410.030457 394.085754,410.100006 393.458038,410.169556 
	C392.043030,410.561249 390.628052,410.952942 389.025085,411.396667 
	C389.403961,414.269043 389.981842,417.022247 390.036865,419.785919 
	C390.062592,421.078674 389.078156,422.391571 388.551544,423.695312 
	C387.688904,422.641327 386.492218,421.711212 386.044495,420.503418 
	C385.424255,418.830383 385.107849,416.945892 385.126404,415.156769 
	C385.158661,412.041687 383.512085,411.620453 380.290588,412.079468 
	C379.030731,412.374390 378.511993,412.693146 377.993256,413.011902 
M370.199890,391.134338 
	C370.976166,390.989136 371.752441,390.843933 372.528717,390.698730 
	C372.515869,390.585205 372.503021,390.471680 372.490173,390.358154 
	C370.719849,390.358154 368.949493,390.358154 367.179138,390.358154 
	C367.183319,390.643616 367.187500,390.929047 367.191650,391.214508 
	C367.916931,391.214508 368.642181,391.214508 370.199890,391.134338 
z"/>
<path fill="#D71944" opacity="1.000000" stroke="none" 
	d="
M274.415985,420.437134 
	C281.797089,419.451385 289.178223,418.465607 297.526550,417.350708 
	C297.755737,423.208344 298.287567,428.776611 298.093872,434.319519 
	C297.930847,438.985291 293.745941,439.394775 290.349152,439.653320 
	C288.833099,439.768707 287.187317,438.180084 284.520142,436.809845 
	C294.584106,433.988739 296.041138,430.936493 292.747528,422.521759 
	C286.871887,429.305054 280.947845,436.144196 274.756683,443.291718 
	C272.610779,441.476532 271.571381,440.597321 270.836639,439.975861 
	C275.997009,434.880035 280.938293,430.000580 285.879578,425.121094 
	C285.337006,424.463379 284.794403,423.805695 284.251831,423.147980 
	C282.659027,424.175385 280.972992,425.084534 279.491180,426.252747 
	C275.346619,429.520294 271.433258,433.101166 267.141571,436.154968 
	C264.278198,438.192383 264.058289,437.883301 261.318298,434.753479 
	C265.260315,432.181610 269.229126,429.592255 273.197906,427.002930 
	C272.787018,426.315002 272.376160,425.627075 271.965271,424.939148 
	C269.675293,426.133179 267.216583,427.092133 265.139465,428.582764 
	C262.728943,430.312622 260.807251,430.939301 258.940857,427.806183 
	C261.654083,425.518219 264.368500,423.229248 266.779022,421.196533 
	C259.766937,416.626434 263.160645,409.316650 260.451843,403.454346 
	C270.820160,401.895538 280.466309,400.445312 290.564270,398.927185 
	C291.436951,404.483551 292.277313,409.834290 293.186249,415.621643 
	C286.672302,416.770691 280.367188,417.882904 273.623962,419.468994 
	C273.595886,420.107666 274.005920,420.272400 274.415985,420.437134 
M267.609528,413.120270 
	C267.449738,413.552399 267.041626,414.263458 267.167114,414.375153 
	C269.340088,416.309784 286.066772,413.330200 288.472107,409.928864 
	C281.367798,410.999817 274.920135,411.971802 267.609528,413.120270 
M273.232788,405.814484 
	C270.763916,406.243256 268.295074,406.672058 265.826202,407.100830 
	C265.970367,407.798492 266.114563,408.496155 266.258728,409.193817 
	C273.209381,408.112122 280.160004,407.030426 287.110626,405.948730 
	C287.014282,405.232666 286.917938,404.516602 286.821594,403.800537 
	C282.577362,404.415283 278.333130,405.029999 273.232788,405.814484 
M273.516174,425.175079 
	C273.430359,425.388031 273.344513,425.600983 273.258667,425.813904 
	C273.489685,425.752075 273.720703,425.690216 273.516174,425.175079 
z"/>
<path fill="#D6123F" opacity="1.000000" stroke="none" 
	d="
M401.053650,319.049683 
	C403.292419,336.735626 405.499847,354.003082 407.767090,371.738190 
	C403.171478,372.340210 398.811646,372.911316 393.823212,373.564789 
	C391.392151,354.380463 389.003967,335.534546 386.557953,316.232483 
	C390.177246,315.753479 393.463776,315.549500 396.635956,314.836578 
	C400.109100,314.056061 401.227936,315.438782 401.053650,319.049683 
z"/>
<path fill="#D71A45" opacity="1.000000" stroke="none" 
	d="
M323.371155,400.260101 
	C324.219482,397.309753 324.683716,394.560272 325.224762,391.355896 
	C326.090393,391.246796 327.286987,391.095978 328.930542,390.888824 
	C328.930542,393.806213 328.930542,396.394226 328.930542,399.473450 
	C333.125031,398.910187 336.855469,398.409241 341.803009,397.744843 
	C338.688873,396.031403 336.472229,394.811768 333.612976,393.238556 
	C335.004211,392.187439 336.642853,390.332733 337.217102,390.618317 
	C340.321472,392.162262 344.861481,392.075592 345.559265,397.018738 
	C347.150818,396.895691 348.802032,396.768036 350.519409,396.635284 
	C351.873688,399.335480 351.581726,400.773682 348.056030,401.137573 
	C342.438690,401.717316 336.846771,402.656677 331.300751,403.735168 
	C329.928070,404.002075 328.773071,405.388580 327.518005,406.260468 
	C327.781372,406.757416 328.044739,407.254333 328.308105,407.751282 
	C334.611694,406.867096 340.915314,405.982880 347.535767,405.054230 
	C349.074127,411.635651 344.179871,415.699341 342.125519,421.135559 
	C346.408936,422.608246 350.611847,424.053284 354.985840,425.557098 
	C355.165680,428.638123 353.542480,430.221130 350.878967,428.686401 
	C342.284546,423.734283 334.826019,425.362946 327.709076,431.583282 
	C326.538849,432.606110 324.760742,432.933411 323.169037,433.623108 
	C322.030273,432.417358 321.015411,431.342804 320.380737,430.670746 
	C318.162994,430.828125 316.204742,430.967102 314.222992,431.107727 
	C318.011780,422.120667 321.380737,414.129395 325.299866,404.833191 
	C320.253510,405.366608 316.901520,405.720917 313.552277,406.074921 
	C312.330017,398.062988 314.241577,393.277252 318.749512,393.774384 
	C318.659149,394.861237 318.584991,395.960693 318.471893,397.056122 
	C318.354340,398.194977 318.199158,399.329926 317.986572,401.071442 
	C319.848694,400.844116 321.417877,400.652527 323.371155,400.260101 
M325.313904,428.023376 
	C328.322449,426.148804 331.330963,424.274200 334.612640,422.229401 
	C331.581818,419.347137 329.132233,417.017609 326.650208,414.657227 
	C324.163147,419.984985 321.821228,425.001892 319.078400,430.877594 
	C321.651978,429.706848 323.135254,429.032104 325.313904,428.023376 
M342.395508,411.083984 
	C338.663452,411.083984 334.931427,411.083984 331.199371,411.083984 
	C331.121643,411.612305 331.043915,412.140594 330.966187,412.668915 
	C333.076263,414.654816 335.186340,416.640717 337.854675,419.152069 
	C339.513611,416.274567 340.815002,414.017212 342.395508,411.083984 
z"/>
<path fill="#D6123F" opacity="1.000000" stroke="none" 
	d="
M342.199615,274.817627 
	C341.411835,263.904449 340.668793,253.456406 339.884827,242.433304 
	C344.365509,242.107864 348.574829,241.802155 353.437958,241.448944 
	C354.864349,260.081879 356.268188,278.420074 357.724884,297.448364 
	C353.267975,297.779175 349.036591,298.093201 344.222687,298.450500 
	C343.561310,290.705322 342.902832,282.994049 342.199615,274.817627 
z"/>
<path fill="#D71743" opacity="1.000000" stroke="none" 
	d="
M205.066269,421.935760 
	C203.363510,421.935760 201.660751,421.935760 199.413666,421.935760 
	C201.892654,417.515442 203.834579,413.918396 205.939621,410.419525 
	C206.332291,409.766876 207.762756,408.959167 208.057114,409.164581 
	C209.200119,409.962311 210.078033,411.139801 211.193161,412.322906 
	C214.157242,412.093506 217.683243,411.820618 222.039581,411.483459 
	C222.569733,410.519470 223.591293,408.661987 225.046997,406.015076 
	C226.445969,406.931458 227.766830,407.796661 229.087692,408.661865 
	C228.880478,409.074005 228.673264,409.486145 228.466034,409.898285 
	C232.058640,409.413605 235.651230,408.928925 239.232803,408.445740 
	C240.155304,411.796295 240.155304,411.796295 232.052719,414.365936 
	C234.548599,416.089203 236.417679,417.379700 239.076920,419.215790 
	C239.981552,425.414032 241.203171,432.781464 242.036560,440.192627 
	C242.247406,442.067719 241.709778,445.367401 240.660141,445.767639 
	C238.404510,446.627716 235.591782,446.026733 233.077316,445.321136 
	C233.446075,444.040619 233.744614,443.462799 234.458160,442.936340 
	C235.907013,442.140991 237.902267,441.189606 237.823288,440.463989 
	C237.164246,434.408539 236.123413,428.394623 235.161987,422.135254 
	C228.068375,423.126617 221.513962,424.042603 214.976776,424.984955 
	C214.994003,425.011292 215.037125,425.057159 214.993774,424.680237 
	C212.731888,421.761780 210.513367,419.220306 207.510437,415.780212 
	C206.710083,418.522034 206.344162,419.775635 205.995697,421.018921 
	C206.013168,421.008636 206.029236,420.971436 205.674393,420.825073 
	C205.200104,421.131409 205.080673,421.584106 204.991379,422.015564 
	C205.021515,421.994354 205.066269,421.935760 205.066269,421.935760 
M227.831802,415.384827 
	C225.746048,416.316772 223.660294,417.248688 221.574539,418.180634 
	C221.807770,418.723236 222.041016,419.265839 222.274246,419.808472 
	C224.752487,419.443848 227.230728,419.079193 230.201340,418.642151 
	C229.392532,417.508850 228.851410,416.750641 227.831802,415.384827 
z"/>
<path fill="#D71944" opacity="1.000000" stroke="none" 
	d="
M234.043152,442.884979 
	C233.744614,443.462799 233.446075,444.040619 233.021729,444.919128 
	C231.468552,444.767487 230.000183,443.834045 228.621292,443.951416 
	C224.184158,444.329193 219.780029,445.094666 214.735779,445.798096 
	C214.039917,441.106018 213.714569,436.490326 212.551559,432.096344 
	C211.973831,429.913635 209.858246,428.137970 208.192780,426.598083 
	C207.947205,427.018005 208.004913,427.062134 208.004913,427.062134 
	C207.047119,425.605164 206.089325,424.148163 205.098892,422.313477 
	C205.066269,421.935760 205.021515,421.994354 205.318939,422.042206 
	C205.753983,421.717194 205.891617,421.344330 206.029236,420.971436 
	C206.029236,420.971436 206.013168,421.008636 206.389206,421.028748 
	C209.522537,422.384979 212.279831,423.721069 215.037125,425.057159 
	C215.037125,425.057159 214.994003,425.011292 214.969482,425.404114 
	C216.146759,426.057373 217.383392,426.643860 218.544067,426.519806 
	C222.783005,426.066772 226.996628,425.376831 231.604553,424.721405 
	C232.462875,431.114471 233.253021,436.999725 234.043152,442.884979 
M225.665588,429.537506 
	C223.379745,429.889984 221.050919,430.083923 218.832596,430.685425 
	C218.107605,430.882019 217.670197,432.139252 217.101273,432.911469 
	C220.048325,432.902191 223.018768,433.089630 225.925781,432.743805 
	C226.642731,432.658508 227.153290,430.838196 227.758743,429.815521 
	C227.328247,429.683441 226.897751,429.551361 225.665588,429.537506 
M224.832199,440.231049 
	C226.237854,439.516846 227.643509,438.802643 229.049164,438.088440 
	C227.506744,437.734314 225.976212,437.180725 224.418228,437.087982 
	C223.131317,437.011444 221.759583,437.328583 220.524307,437.756592 
	C219.610779,438.073212 218.856216,438.848572 218.030823,439.419525 
	C219.035919,439.920502 219.997742,440.654419 221.059280,440.851593 
	C221.974533,441.021576 223.003296,440.580322 224.832199,440.231049 
z"/>
<path fill="#D81D48" opacity="1.000000" stroke="none" 
	d="
M207.923615,426.990387 
	C209.070862,434.751678 210.241669,442.540619 211.461807,450.657532 
	C209.862625,450.857788 208.769989,450.994629 207.193954,451.191986 
	C206.115067,444.116364 204.922623,437.174896 204.153656,430.186829 
	C204.052765,429.270020 206.121323,428.114502 207.595001,427.065857 
	C208.004913,427.062134 207.947205,427.018005 207.923615,426.990387 
z"/>
<path fill="#D81D48" opacity="1.000000" stroke="none" 
	d="
M393.296234,410.553711 
	C394.085754,410.100006 394.713501,410.030457 395.581665,409.953979 
	C399.964813,412.099884 404.107483,414.252686 408.317474,416.440491 
	C407.441315,419.179626 406.304474,420.488464 403.313751,418.839996 
	C400.583160,417.334961 397.650940,416.036987 394.651428,415.222931 
	C391.606598,414.396637 392.117920,412.898743 393.296234,410.553711 
z"/>
<path fill="#D81D48" opacity="1.000000" stroke="none" 
	d="
M377.851501,413.315491 
	C378.511993,412.693146 379.030731,412.374390 379.872559,412.063416 
	C380.837006,413.116852 381.478394,414.162506 382.356537,415.594147 
	C379.336456,418.158142 376.265717,420.600647 373.390350,423.254822 
	C370.766449,425.676941 368.861267,424.877258 367.041382,422.373688 
	C370.645477,419.416138 374.177643,416.517639 377.851501,413.315491 
z"/>
<path fill="#F6CCD6" opacity="1.000000" stroke="none" 
	d="
M379.320129,406.113007 
	C386.623322,405.111816 393.926483,404.110626 401.642273,403.150940 
	C402.050018,403.456055 402.045197,403.719666 402.013550,404.377930 
	C394.583405,405.822479 387.180023,406.872406 379.397827,407.686584 
	C379.119385,407.004883 379.219757,406.558960 379.320129,406.113007 
z"/>
<path fill="#FEFCFC" opacity="1.000000" stroke="none" 
	d="
M340.192200,580.898804 
	C279.444427,555.108887 219.067520,529.439758 158.690598,503.770691 
	C158.601974,503.298492 158.513351,502.826294 158.424728,502.354126 
	C160.004166,501.553436 161.503479,500.330475 163.174667,500.013397 
	C214.486099,490.277985 265.813721,480.627869 317.140259,470.972168 
	C360.620941,462.792480 404.095520,454.579315 447.601746,446.537750 
	C450.741211,445.957489 454.270142,446.062408 457.361328,446.852631 
	C519.701294,462.789368 582.003784,478.872498 644.312500,494.931610 
	C646.213684,495.421631 648.100159,495.969299 649.993469,496.490143 
	C650.172852,496.960083 650.352295,497.430023 650.531677,497.899963 
	C648.763245,498.805450 647.088074,500.045990 645.212830,500.567596 
	C596.683228,514.066406 548.130432,527.481812 499.586700,540.929749 
	C450.566040,554.509766 401.542389,568.079407 352.548035,581.753845 
	C348.342926,582.927429 344.431183,583.390381 340.192200,580.898804 
M234.896683,524.610840 
	C241.354385,527.255432 247.722595,530.161011 254.312271,532.420715 
	C257.085632,533.371765 260.502899,533.714355 263.329651,533.055603 
	C341.986877,514.723694 420.606934,496.232269 499.229004,477.749695 
	C506.496460,476.041290 513.736511,474.216400 521.969727,472.206207 
	C520.405884,471.446533 520.000183,471.167877 519.551697,471.043213 
	C496.979858,464.769348 474.414001,458.473358 451.811401,452.312012 
	C449.968445,451.809662 447.817413,451.936249 445.903442,452.285339 
	C438.868408,453.568542 431.874054,455.074402 424.862396,456.486511 
	C359.347382,469.680664 293.830780,482.867188 228.317505,496.070038 
	C214.806442,498.792938 201.307190,501.574493 186.313446,504.632721 
	C203.232742,511.554321 218.729156,517.893860 234.896683,524.610840 
M392.819427,514.223572 
	C390.188049,514.913391 387.556641,515.603210 384.568085,516.386658 
	C385.349152,516.931213 385.709412,517.292908 386.144775,517.470093 
	C406.465912,525.741211 426.781616,534.026184 447.146881,542.187378 
	C448.537354,542.744629 450.406494,542.744995 451.882751,542.356689 
	C486.760010,533.186523 521.613831,523.927246 556.976746,514.550415 
	C555.674377,513.934326 554.840210,513.382690 553.923645,513.129089 
	C530.214111,506.567780 506.505798,500.001434 482.759918,493.573822 
	C480.965759,493.088165 478.813416,493.292755 476.963715,493.739807 
	C449.167999,500.457001 421.395142,507.268860 392.819427,514.223572 
z"/>
<path fill="#FEFBFC" opacity="1.000000" stroke="none" 
	d="
M317.151184,281.860352 
	C312.265320,289.442841 306.359528,291.939911 299.825928,289.474182 
	C292.987885,286.893494 288.795654,279.125000 289.688080,270.687927 
	C290.520355,262.819641 295.543060,257.204224 302.582886,256.271454 
	C308.872009,255.438187 316.267151,260.278870 317.702026,267.424103 
	C318.603058,271.910919 317.505249,276.799103 317.151184,281.860352 
z"/>
<path fill="#FCF2F4" opacity="1.000000" stroke="none" 
	d="
M298.315857,366.672974 
	C297.987488,365.809357 297.933502,365.119415 298.109528,364.494263 
	C299.493225,359.579681 300.920929,354.677521 302.604736,348.836090 
	C305.827454,354.469025 308.663696,359.426453 311.908661,365.098297 
	C307.094971,365.746216 302.895905,366.311432 298.315857,366.672974 
z"/>
<path fill="#D71A45" opacity="1.000000" stroke="none" 
	d="
M378.958435,406.083344 
	C379.219757,406.558960 379.119385,407.004883 378.969482,407.794220 
	C378.079956,407.860474 377.239960,407.583344 376.399963,407.306213 
	C377.132263,406.888733 377.864532,406.471222 378.958435,406.083344 
z"/>
<path fill="#FFFEFE" opacity="1.000000" stroke="none" 
	d="
M369.783691,391.174438 
	C368.642181,391.214508 367.916931,391.214508 367.191650,391.214508 
	C367.187500,390.929047 367.183319,390.643616 367.179138,390.358154 
	C368.949493,390.358154 370.719849,390.358154 372.490173,390.358154 
	C372.503021,390.471680 372.515869,390.585205 372.528717,390.698730 
	C371.752441,390.843933 370.976166,390.989136 369.783691,391.174438 
z"/>
<path fill="#F9DFE5" opacity="1.000000" stroke="none" 
	d="
M268.041016,413.032043 
	C274.920135,411.971802 281.367798,410.999817 288.472107,409.928864 
	C286.066772,413.330200 269.340088,416.309784 267.167114,414.375153 
	C267.041626,414.263458 267.449738,413.552399 268.041016,413.032043 
z"/>
<path fill="#F9DFE5" opacity="1.000000" stroke="none" 
	d="
M273.660828,405.729614 
	C278.333130,405.029999 282.577362,404.415283 286.821594,403.800537 
	C286.917938,404.516602 287.014282,405.232666 287.110626,405.948730 
	C280.160004,407.030426 273.209381,408.112122 266.258728,409.193817 
	C266.114563,408.496155 265.970367,407.798492 265.826202,407.100830 
	C268.295074,406.672058 270.763916,406.243256 273.660828,405.729614 
z"/>
<path fill="#FFFEFE" opacity="1.000000" stroke="none" 
	d="
M274.184143,420.201294 
	C274.005920,420.272400 273.595886,420.107666 273.323975,419.732086 
	C273.625519,419.669312 273.788910,419.817383 274.184143,420.201294 
z"/>
<path fill="#FFFEFE" opacity="1.000000" stroke="none" 
	d="
M273.733948,425.401733 
	C273.720703,425.690216 273.489685,425.752075 273.258667,425.813904 
	C273.344513,425.600983 273.430359,425.388031 273.733948,425.401733 
z"/>
<path fill="#FFFEFE" opacity="1.000000" stroke="none" 
	d="
M324.966217,428.190369 
	C323.135254,429.032104 321.651978,429.706848 319.078400,430.877594 
	C321.821228,425.001892 324.163147,419.984985 326.650208,414.657227 
	C329.132233,417.017609 331.581818,419.347137 334.612640,422.229401 
	C331.330963,424.274200 328.322449,426.148804 324.966217,428.190369 
z"/>
<path fill="#FAE5EA" opacity="1.000000" stroke="none" 
	d="
M342.255981,411.421936 
	C340.815002,414.017212 339.513611,416.274567 337.854675,419.152069 
	C335.186340,416.640717 333.076263,414.654816 330.966187,412.668915 
	C331.043915,412.140594 331.121643,411.612305 331.199371,411.083984 
	C334.931427,411.083984 338.663452,411.083984 342.255981,411.421936 
z"/>
<path fill="#FAE5EA" opacity="1.000000" stroke="none" 
	d="
M234.458160,442.936340 
	C233.253021,436.999725 232.462875,431.114471 231.604553,424.721405 
	C226.996628,425.376831 222.783005,426.066772 218.544067,426.519806 
	C217.383392,426.643860 216.146759,426.057373 214.952271,425.377777 
	C221.513962,424.042603 228.068375,423.126617 235.161987,422.135254 
	C236.123413,428.394623 237.164246,434.408539 237.823288,440.463989 
	C237.902267,441.189606 235.907013,442.140991 234.458160,442.936340 
z"/>
<path fill="#F9DFE5" opacity="1.000000" stroke="none" 
	d="
M214.993774,424.680237 
	C212.279831,423.721069 209.522537,422.384979 206.371735,421.039062 
	C206.344162,419.775635 206.710083,418.522034 207.510437,415.780212 
	C210.513367,419.220306 212.731888,421.761780 214.993774,424.680237 
z"/>
<path fill="#F9DFE5" opacity="1.000000" stroke="none" 
	d="
M228.071045,415.688629 
	C228.851410,416.750641 229.392532,417.508850 230.201340,418.642151 
	C227.230728,419.079193 224.752487,419.443848 222.274246,419.808472 
	C222.041016,419.265839 221.807770,418.723236 221.574539,418.180634 
	C223.660294,417.248688 225.746048,416.316772 228.071045,415.688629 
z"/>
<path fill="#F9DFE5" opacity="1.000000" stroke="none" 
	d="
M205.674408,420.825073 
	C205.891617,421.344330 205.753983,421.717194 205.288788,422.063416 
	C205.080673,421.584106 205.200104,421.131409 205.674408,420.825073 
z"/>
<path fill="#FAE5EA" opacity="1.000000" stroke="none" 
	d="
M226.066422,429.478394 
	C226.897751,429.551361 227.328247,429.683441 227.758728,429.815491 
	C227.153290,430.838196 226.642731,432.658508 225.925781,432.743805 
	C223.018768,433.089630 220.048325,432.902191 217.101273,432.911438 
	C217.670197,432.139252 218.107605,430.882019 218.832596,430.685425 
	C221.050919,430.083923 223.379745,429.889984 226.066422,429.478394 
z"/>
<path fill="#FAE5EA" opacity="1.000000" stroke="none" 
	d="
M224.407043,440.320160 
	C223.003296,440.580322 221.974533,441.021576 221.059280,440.851593 
	C219.997742,440.654419 219.035919,439.920502 218.030823,439.419525 
	C218.856216,438.848572 219.610779,438.073212 220.524307,437.756592 
	C221.759583,437.328583 223.131317,437.011444 224.418228,437.087982 
	C225.976212,437.180725 227.506744,437.734314 229.049164,438.088440 
	C227.643509,438.802643 226.237854,439.516846 224.407043,440.320160 
z"/>
<path fill="#D50E3B" opacity="1.000000" stroke="none" 
	d="
M234.561127,524.422119 
	C218.729156,517.893860 203.232742,511.554321 186.313446,504.632721 
	C201.307190,501.574493 214.806442,498.792938 228.317505,496.070038 
	C293.830780,482.867188 359.347382,469.680664 424.862396,456.486511 
	C431.874054,455.074402 438.868408,453.568542 445.903442,452.285339 
	C447.817413,451.936249 449.968445,451.809662 451.811401,452.312012 
	C474.414001,458.473358 496.979858,464.769348 519.551697,471.043213 
	C520.000183,471.167877 520.405884,471.446533 521.969727,472.206207 
	C513.736511,474.216400 506.496460,476.041290 499.229004,477.749695 
	C420.606934,496.232269 341.986877,514.723694 263.329651,533.055603 
	C260.502899,533.714355 257.085632,533.371765 254.312271,532.420715 
	C247.722595,530.161011 241.354385,527.255432 234.561127,524.422119 
z"/>
<path fill="#D50E3C" opacity="1.000000" stroke="none" 
	d="
M393.218170,514.140991 
	C421.395142,507.268860 449.167999,500.457001 476.963715,493.739807 
	C478.813416,493.292755 480.965759,493.088165 482.759918,493.573822 
	C506.505798,500.001434 530.214111,506.567780 553.923645,513.129089 
	C554.840210,513.382690 555.674377,513.934326 556.976746,514.550415 
	C521.613831,523.927246 486.760010,533.186523 451.882751,542.356689 
	C450.406494,542.744995 448.537354,542.744629 447.146881,542.187378 
	C426.781616,534.026184 406.465912,525.741211 386.144775,517.470093 
	C385.709412,517.292908 385.349152,516.931213 384.568085,516.386658 
	C387.556641,515.603210 390.188049,514.913391 393.218170,514.140991 
z"/>
</svg>